<?xml version="1.0" standalone="no"?><!DOCTYPE svg PUBLIC "-//W3C//DTD SVG 1.1//EN" "http://www.w3.org/Graphics/SVG/1.1/DTD/svg11.dtd" ><svg xmlns="http://www.w3.org/2000/svg"><metadata></metadata><defs><font id="fonteditor" horiz-adv-x="1864"><font-face font-family="Cataneo BT" font-weight="400" font-stretch="normal" units-per-em="2048" panose-1="3 2 8 2 4 5 2 6 8 4" ascent="1923" descent="-737" x-height="4" bbox="-737 -737 1998 1608" underline-thickness="117" underline-position="-369" unicode-range="U+0030-007a" /><missing-glyph horiz-adv-x="1229" d="M102 -362 L102 1444 L1126 1444 L1126 -362 L102 -362 ZM217 -248 L1012 -248 L1012 1329 L217 1329 L217 -248 Z" /><glyph glyph-name="zero" unicode="0" d="M635 1210 Q475 1210 374.5 1000.5 Q274 791 274 455 Q274 267 327.5 173.5 Q381 80 487 80 Q643 80 740.5 290 Q838 500 838 844 Q838 1025 786.5 1117.5 Q735 1210 635 1210 ZM59 387 Q59 604 133.5 797.5 Q208 991 340 1118 Q432 1207 536 1255 Q640 1303 743 1303 Q896 1303 977.5 1201.5 Q1059 1100 1059 911 Q1059 721 1000.5 544 Q942 367 836 236 Q737 115 609.5 45 Q482 -25 360 -25 Q215 -25 137 81.5 Q59 188 59 387 Z" /><glyph glyph-name="one" unicode="1" d="M555 1305 L596 1286 Q537 1016 494 712.5 Q451 409 424 76 L682 45 L673 -6 Q581 -4 452.5 -2.5 Q324 -1 291 0 Q236 0 147 -1.5 Q58 -3 -61 -6 L-51 45 L201 76 Q254 323 292.5 590.5 Q331 858 354 1143 Q292 1123 227.5 1106.5 Q163 1090 96 1077 L102 1128 Q229 1161 341.5 1205 Q454 1249 555 1305 Z" /><glyph glyph-name="two" unicode="2" d="M175 162 Q219 165 269 166.5 Q319 168 412 168 Q435 168 506.5 166 Q578 164 625 164 Q727 164 765.5 196.5 Q804 229 831 328 L883 328 Q871 286 853 216 Q796 0 698 0 Q682 0 519 7 Q356 14 209 14 Q163 14 104.5 11 Q46 8 -53 0 L-63 41 Q334 355 510 574 Q686 793 686 969 Q686 1077 629.5 1144.5 Q573 1212 485 1212 Q398 1212 343.5 1156.5 Q289 1101 289 1012 Q289 977 297.5 943.5 Q306 910 324 877 Q304 868 288 864 Q272 860 256 860 Q211 860 180.5 891.5 Q150 923 150 969 Q150 1091 290.5 1197 Q431 1303 604 1303 Q747 1303 832.5 1226 Q918 1149 918 1020 Q918 773 252 226 L175 162 Z" /><glyph glyph-name="three" unicode="3" d="M508 700 Q659 690 744 612.5 Q829 535 829 410 Q829 228 663 104 Q497 -20 246 -20 Q114 -20 36.5 22.5 Q-41 65 -41 135 Q-41 182 -14 215 Q13 248 68 270 Q80 165 144.5 105 Q209 45 311 45 Q438 45 522 134.5 Q606 224 606 360 Q606 499 526.5 569 Q447 639 289 639 L283 639 L307 698 Q474 715 569 805 Q664 895 664 1036 Q664 1117 610 1174 Q556 1231 477 1231 Q391 1231 336 1173 Q281 1115 281 1024 Q281 1011 282.5 996.5 Q284 982 288 954 Q284 953 277 951 Q257 946 250 946 Q205 946 177.5 973.5 Q150 1001 150 1047 Q150 1145 269 1221.5 Q388 1298 551 1298 Q710 1298 796.5 1233.5 Q883 1169 883 1051 Q883 932 783 839.5 Q683 747 508 700 Z" /><glyph glyph-name="four" unicode="4" d="M678 1178 Q544 981 403 815.5 Q262 650 133 537 Q191 547 279 552 Q367 557 489 557 L588 557 Q605 674 634.5 881 Q664 1088 678 1178 ZM839 1304 L883 1290 Q853 1188 820.5 993 Q788 798 760 551 Q769 550 780.5 549.5 Q792 549 811 549 Q878 549 911.5 565 Q945 581 952 616 L999 616 Q995 598 989 565 Q958 416 842 416 Q822 416 767 419 Q752 419 743 420 Q735 355 728 272.5 Q721 190 713 45 Q671 33 628 15.5 Q585 -2 537 -27 L496 -4 Q515 76 533.5 182 Q552 288 571 426 Q525 428 482 429 Q439 430 397 430 Q274 430 178 425 Q82 420 23 410 L-2 489 Q195 679 356 870 Q517 1061 633 1241 Q686 1254 791 1288 Q823 1299 839 1304 Z" /><glyph glyph-name="five" unicode="5" d="M872 1331 L918 1331 Q905 1189 854 1146.5 Q803 1104 604 1104 Q538 1104 470 1107.5 Q402 1111 330 1118 Q325 1017 307.5 922 Q290 827 260 737 Q319 759 377 769.5 Q435 780 496 780 Q661 780 749.5 702 Q838 624 838 479 Q838 269 661 123 Q484 -23 225 -23 Q100 -23 25.5 22 Q-49 67 -49 141 Q-49 184 -19.5 217.5 Q10 251 66 272 Q82 161 144 104 Q206 47 311 47 Q442 47 530 156 Q618 265 618 430 Q618 557 553 626.5 Q488 696 371 696 Q318 696 268.5 682 Q219 668 172 639 L141 664 Q184 769 206.5 887.5 Q229 1006 229 1126 Q229 1145 228.5 1163.5 Q228 1182 227 1202 Q249 1218 269.5 1238.5 Q290 1259 313 1288 Q375 1273 456 1265 Q537 1257 631 1257 Q763 1257 813.5 1273.5 Q864 1290 872 1331 Z" /><glyph glyph-name="six" unicode="6" d="M735 463 Q735 573 688.5 633.5 Q642 694 557 694 Q440 694 352 581.5 Q264 469 264 311 Q264 196 317 127.5 Q370 59 457 59 Q570 59 652.5 177 Q735 295 735 463 ZM911 1096 Q875 1148 824 1175 Q773 1202 713 1202 Q563 1202 455.5 1048.5 Q348 895 289 598 Q383 703 487 758 Q591 813 694 813 Q811 813 875.5 742.5 Q940 672 940 543 Q940 314 763.5 147 Q587 -20 352 -20 Q215 -20 140.5 67 Q66 154 66 313 Q66 548 155 761.5 Q244 975 397 1108 Q499 1196 622.5 1247 Q746 1298 850 1298 Q910 1298 943.5 1275 Q977 1252 977 1210 Q977 1182 960 1152.5 Q943 1123 911 1096 Z" /><glyph glyph-name="seven" unicode="7" d="M1022 1288 L1040 1249 Q767 1051 597 723.5 Q427 396 401 18 Q344 7 295 -9 Q246 -25 203 -47 L164 -16 Q213 315 378.5 605.5 Q544 896 819 1133 Q772 1123 711.5 1118.5 Q651 1114 565 1114 L375 1114 Q251 1114 212 1094 Q173 1074 156 1022 L105 1022 Q111 1042 123 1079 Q192 1288 297 1288 Q337 1288 479.5 1277 Q622 1266 723 1266 Q820 1266 890.5 1271.5 Q961 1277 1022 1288 Z" /><glyph glyph-name="eight" unicode="8" d="M391 631 Q284 558 227 467.5 Q170 377 170 279 Q170 172 235.5 108.5 Q301 45 410 45 Q527 45 603.5 117 Q680 189 680 297 Q680 391 615.5 466.5 Q551 542 391 631 ZM639 698 Q757 628 809.5 549 Q862 470 862 365 Q862 207 712 93.5 Q562 -20 340 -20 Q185 -20 98.5 50.5 Q12 121 12 248 Q12 365 93 466.5 Q174 568 344 666 Q260 722 219 789 Q178 856 178 938 Q178 1092 307 1197.5 Q436 1303 629 1303 Q771 1303 851.5 1236.5 Q932 1170 932 1053 Q932 960 857 869 Q782 778 639 698 ZM588 731 Q676 795 722 875 Q768 955 768 1044 Q768 1132 715.5 1187.5 Q663 1243 582 1243 Q485 1243 419.5 1179.5 Q354 1116 354 1022 Q354 941 407.5 873.5 Q461 806 588 731 Z" /><glyph glyph-name="nine" unicode="9" d="M90 190 Q125 137 182 104.5 Q239 72 299 72 Q476 72 591 231.5 Q706 391 760 711 Q666 609 563.5 555.5 Q461 502 362 502 Q247 502 182 573 Q117 644 117 770 Q117 861 157.5 953 Q198 1045 272 1122 Q351 1204 464.5 1252 Q578 1300 690 1300 Q840 1300 911.5 1216.5 Q983 1133 983 958 Q983 727 893.5 515 Q804 303 653 176 Q543 82 416 29.5 Q289 -23 172 -23 Q109 -23 70 4.5 Q31 32 31 76 Q31 103 46.5 133.5 Q62 164 90 190 ZM586 1221 Q474 1221 398 1112.5 Q322 1004 322 842 Q322 739 368.5 678.5 Q415 618 494 618 Q606 618 694 725.5 Q782 833 782 981 Q782 1096 731 1158.5 Q680 1221 586 1221 Z" /><glyph glyph-name="A" unicode="a" d="M676 1108 Q591 958 516 816.5 Q441 675 377 543 L799 543 Q778 656 749.5 787.5 Q721 919 676 1108 ZM844 1331 Q868 1092 936 765 Q1004 438 1108 66 L1272 33 L1257 -10 Q1196 -5 1134.5 -2.5 Q1073 0 989 0 Q923 0 852 -2.5 Q781 -5 707 -10 L723 33 L878 65 Q871 137 855.5 236.5 Q840 336 813 481 L348 481 Q275 337 232.5 237 Q190 137 170 66 L336 33 L321 -10 Q267 -5 213.5 -2.5 Q160 0 88 0 Q3 0 -53 -2.5 Q-109 -5 -163 -10 L-150 33 L2 66 Q308 558 485 882.5 Q662 1207 662 1272 Q662 1275 661 1277 Q660 1279 659 1280 L844 1331 Z" /><glyph glyph-name="B" unicode="b" d="M393 80 Q454 65 506.5 58 Q559 51 604 51 Q734 51 810.5 149 Q887 247 887 416 Q887 548 818.5 612 Q750 676 610 676 Q570 676 491 669 Q468 667 457 666 Q436 527 420 381 Q404 235 393 80 ZM741 723 Q935 710 1020.5 643 Q1106 576 1106 436 Q1106 229 952.5 108.5 Q799 -12 532 -12 Q488 -12 377.5 -6 Q267 0 201 0 Q156 0 102 -2.5 Q48 -5 -20 -10 L-6 33 L162 66 Q230 404 270 690 Q310 976 324 1214 L147 1247 L164 1290 Q235 1283 291.5 1279.5 Q348 1276 399 1276 Q500 1276 643.5 1286 Q787 1296 829 1296 Q968 1296 1039 1236.5 Q1110 1177 1110 1061 Q1110 926 1015 839 Q920 752 741 723 ZM469 748 Q494 744 519.5 742.5 Q545 741 569 741 Q732 741 816.5 817 Q901 893 901 1038 Q901 1133 847 1181 Q793 1229 686 1229 Q651 1229 617 1223 Q583 1217 549 1204 Q526 1095 506 981.5 Q486 868 469 748 Z" /><glyph glyph-name="C" unicode="c" d="M983 1024 L971 1028 Q960 1120 900 1169.5 Q840 1219 739 1219 Q542 1219 416.5 1024.5 Q291 830 291 516 Q291 310 382.5 197 Q474 84 641 84 Q727 84 811 110.5 Q895 137 983 193 L977 117 Q867 46 746.5 10.5 Q626 -25 492 -25 Q288 -25 179 96 Q70 217 70 442 Q70 620 134 784.5 Q198 949 313 1069 Q423 1184 562.5 1244.5 Q702 1305 856 1305 Q977 1305 1047.5 1270 Q1118 1235 1118 1178 Q1118 1127 986 1026 L983 1024 Z" /><glyph glyph-name="D" unicode="d" d="M-20 -10 L-6 33 L162 66 Q230 404 270 690 Q310 976 324 1214 L147 1247 L164 1290 Q253 1283 329 1279.5 Q405 1276 463 1276 Q531 1276 678 1287 Q825 1298 903 1298 Q1140 1298 1257 1182 Q1374 1066 1374 829 Q1374 641 1305 474 Q1236 307 1110 188 Q998 83 858 36.5 Q718 -10 506 -10 Q477 -10 384.5 -5 Q292 0 229 0 Q193 0 136 -2.5 Q79 -5 -20 -10 ZM393 82 Q444 71 499 65 Q554 59 612 59 Q886 59 1019.5 232 Q1153 405 1153 758 Q1153 987 1054.5 1107 Q956 1227 768 1227 Q727 1227 676 1221 Q625 1215 555 1202 Q495 944 454.5 662 Q414 380 393 82 Z" /><glyph glyph-name="E" unicode="e" d="M164 1288 Q273 1280 377 1276 Q481 1272 612 1272 Q744 1272 887.5 1280 Q1031 1288 1044 1288 Q1063 1288 1071 1278 Q1079 1268 1079 1245 Q1079 1239 1077 1226 Q1076 1220 1075 1217 L1032 1036 L989 1026 L991 1081 L991 1110 Q991 1149 918.5 1167 Q846 1185 553 1202 Q529 1099 506 972.5 Q483 846 463 698 Q554 698 646 702.5 Q738 707 834 715 L881 823 L932 842 Q905 755 886 663 Q867 571 856 473 L811 446 L813 604 Q741 614 651 621 Q561 628 453 631 Q429 463 415 326.5 Q401 190 397 76 L475 76 Q719 76 837 104 Q955 132 987 197 L1018 256 L1063 268 L1001 53 Q989 9 975.5 -1.5 Q962 -12 909 -12 L897 -12 Q883 -12 824 -10 Q579 0 356 0 Q214 0 133.5 -3 Q53 -6 -20 -12 L-6 33 L162 66 Q227 379 267.5 666.5 Q308 954 324 1212 L150 1247 L164 1288 Z" /><glyph glyph-name="F" unicode="f" d="M164 1288 Q270 1280 355.5 1276 Q441 1272 510 1272 Q773 1272 1006 1286 Q1037 1288 1042 1288 Q1073 1288 1082.5 1279.5 Q1092 1271 1092 1247 Q1092 1244 1091 1238 Q1090 1232 1087 1216 L1042 1036 L999 1026 L1001 1081 L1001 1108 Q1001 1148 929.5 1166 Q858 1184 553 1200 Q528 1092 505.5 968.5 Q483 845 463 698 Q478 698 496.5 699 Q515 700 518 700 Q608 700 691 704 Q774 708 848 715 L895 823 L946 844 Q916 744 897.5 653.5 Q879 563 870 475 L827 449 L827 602 Q756 613 661 620.5 Q566 628 451 631 Q427 465 413 326 Q399 187 393 66 L588 33 L569 -10 Q488 -5 412.5 -2.5 Q337 0 266 0 Q175 0 109.5 -2.5 Q44 -5 -20 -10 L-6 33 L162 66 Q230 404 270 690 Q310 976 324 1214 L147 1247 L164 1288 Z" /><glyph glyph-name="G" unicode="g" d="M1034 1020 L1020 1024 Q1008 1122 941.5 1172.5 Q875 1223 758 1223 Q554 1223 420.5 1025.5 Q287 828 287 520 Q287 309 380 196.5 Q473 84 647 84 Q696 84 751.5 94 Q807 104 874 125 Q890 220 900.5 312 Q911 404 918 494 L756 524 L770 567 Q795 565 839 562 Q973 551 1022 551 Q1063 551 1123.5 555 Q1184 559 1278 567 L1264 524 L1124 494 Q1107 407 1096.5 322 Q1086 237 1081 152 Q911 63 771 20 Q631 -23 512 -23 Q298 -23 182 100 Q66 223 66 449 Q66 618 130.5 782 Q195 946 309 1065 Q418 1178 564.5 1241.5 Q711 1305 864 1305 Q1008 1305 1088.5 1270 Q1169 1235 1169 1174 Q1169 1123 1037 1022 L1034 1020 Z" /><glyph glyph-name="H" unicode="h" d="M164 1290 Q191 1288 241 1285 Q395 1274 451 1274 Q506 1274 661 1285 Q710 1288 737 1290 L723 1247 L555 1214 Q528 1091 505 964 Q482 837 463 705 L1090 705 Q1111 862 1123 985 Q1135 1108 1141 1214 L967 1247 L981 1290 Q1080 1282 1149.5 1278 Q1219 1274 1266 1274 Q1313 1274 1382.5 1278 Q1452 1282 1554 1290 L1540 1247 L1372 1214 Q1306 895 1265.5 606 Q1225 317 1212 66 L1386 33 L1370 -10 Q1295 -5 1224 -2.5 Q1153 0 1083 0 Q993 0 928 -2.5 Q863 -5 797 -10 L813 33 L981 66 Q1007 189 1032 332.5 Q1057 476 1081 643 L455 643 Q428 464 413.5 324.5 Q399 185 393 66 L569 33 L553 -10 Q486 -5 420.5 -2.5 Q355 0 266 0 Q201 0 128.5 -2.5 Q56 -5 -20 -10 L-6 33 L162 66 Q230 403 270 689 Q310 975 324 1214 L147 1247 L164 1290 Z" /><glyph glyph-name="I" unicode="i" d="M-18 -10 L-4 33 L164 66 Q229 383 269.5 670.5 Q310 958 326 1214 L152 1247 L166 1290 Q262 1282 332 1278 Q402 1274 455 1274 Q510 1274 659 1285 Q711 1288 739 1290 L725 1247 L557 1214 Q491 895 450.5 606 Q410 317 397 66 L571 33 L555 -10 Q491 -5 426.5 -2.5 Q362 0 268 0 Q177 0 111.5 -2.5 Q46 -5 -18 -10 Z" /><glyph glyph-name="J" unicode="j" d="M145 1290 Q251 1282 320 1278 Q389 1274 436 1274 Q483 1274 552 1278 Q621 1282 723 1290 L709 1247 L537 1214 Q469 868 418 463.5 Q367 59 352 0 Q313 -153 213.5 -249.5 Q114 -346 -90 -426 L-104 -385 Q2 -332 63.5 -243.5 Q125 -155 156 -10 Q194 174 234.5 503.5 Q275 833 303 1214 L129 1247 L145 1290 Z" /><glyph glyph-name="K" unicode="k" d="M164 1290 Q191 1288 241 1285 Q395 1274 451 1274 Q511 1274 675 1286 Q716 1289 737 1290 L723 1247 L555 1214 Q527 1083 503 949 Q479 815 459 676 Q656 821 804 958 Q952 1095 1040 1214 L905 1247 L922 1290 Q984 1282 1044 1278 Q1104 1274 1161 1274 Q1207 1274 1265.5 1278 Q1324 1282 1401 1290 L1384 1247 L1253 1214 Q1121 1124 988 1019 Q855 914 705 780 Q927 357 1059 199 Q1191 41 1315 33 L1296 -10 L1128 -10 Q1054 -10 1015 0 Q976 10 946 35 Q892 79 795.5 230 Q699 381 547 662 L444 586 Q424 431 411.5 304 Q399 177 393 66 L569 33 L553 -10 Q488 -5 423 -2.5 Q358 0 266 0 Q176 0 110.5 -2.5 Q45 -5 -20 -10 L-6 33 L162 66 Q230 404 270 690 Q310 976 324 1214 L147 1247 L164 1290 Z" /><glyph glyph-name="L" unicode="l" d="M164 1290 Q184 1289 225 1286 Q395 1274 461 1274 Q515 1274 665 1285 Q714 1288 741 1290 L727 1247 L555 1214 Q488 898 448 610.5 Q408 323 397 74 Q771 82 868 107 Q965 132 993 195 L1026 264 L1073 279 L1010 53 Q998 11 983 -0.5 Q968 -12 905 -12 Q889 -12 826 -10 Q578 0 354 0 Q215 0 134.5 -3 Q54 -6 -20 -12 L-6 33 L162 66 Q230 404 270 690 Q310 976 324 1214 L147 1247 L164 1290 Z" /><glyph glyph-name="M" unicode="m" d="M-110 -10 L-94 33 L76 66 Q158 279 243 570 Q328 861 410 1214 L231 1247 L248 1288 Q314 1280 377 1276 Q440 1272 502 1272 Q523 1272 547 1272.5 Q571 1273 622 1276 Q647 1080 696.5 836.5 Q746 593 819 307 L1176 907 Q1227 995 1272 1087.5 Q1317 1180 1356 1278 Q1372 1277 1425 1274.5 Q1478 1272 1509 1272 Q1576 1272 1642 1276 Q1708 1280 1774 1288 L1759 1247 L1591 1214 Q1548 944 1525.5 672.5 Q1503 401 1503 133 L1503 66 L1681 33 L1667 -10 Q1604 -5 1538.5 -2.5 Q1473 0 1372 0 Q1289 0 1226 -2.5 Q1163 -5 1098 -10 L1112 33 L1280 66 Q1312 300 1333.5 558.5 Q1355 817 1368 1102 Q1318 1027 1264.5 939.5 Q1211 852 1143 735 L1032 545 Q929 367 885 272.5 Q841 178 821 100 L682 18 Q668 156 583 518.5 Q498 881 461 1108 Q378 826 324 565.5 Q270 305 244 66 L414 33 L397 -10 Q332 -5 269.5 -2.5 Q207 0 147 0 Q63 0 5.5 -2.5 Q-52 -5 -110 -10 Z" /><glyph glyph-name="N" unicode="n" d="M137 1290 Q199 1284 248.5 1281 Q298 1278 336 1278 Q387 1278 420.5 1281 Q454 1284 487 1290 Q594 1055 742 790 Q890 525 1073 242 Q1098 478 1110 696 Q1122 914 1122 1110 L1122 1214 L948 1247 L963 1290 Q1039 1283 1103.5 1279.5 Q1168 1276 1217 1276 Q1257 1276 1314 1279 Q1371 1282 1479 1290 L1464 1247 L1296 1214 Q1222 868 1181 569 Q1140 270 1137 46 L999 -27 Q833 286 679 553 Q525 820 371 1063 Q345 856 332 632.5 Q319 409 319 168 L319 66 L494 33 L479 -10 Q421 -5 362.5 -2.5 Q304 0 225 0 Q140 0 81 -2.5 Q22 -5 -36 -10 L-20 33 L147 66 Q215 382 253.5 670.5 Q292 959 301 1214 L121 1247 L137 1290 Z" /><glyph glyph-name="O" unicode="o" d="M717 1219 Q526 1219 410.5 1027 Q295 835 295 514 Q295 280 365.5 170.5 Q436 61 588 61 Q784 61 899 248.5 Q1014 436 1014 756 Q1014 994 942 1106.5 Q870 1219 717 1219 ZM825 1305 Q1026 1305 1132.5 1185 Q1239 1065 1239 840 Q1239 478 1016.5 226.5 Q794 -25 477 -25 Q280 -25 176 92.5 Q72 210 72 432 Q72 594 120.5 745 Q169 896 258 1010 Q366 1148 517 1226.5 Q668 1305 825 1305 Z" /><glyph glyph-name="P" unicode="p" d="M442 575 Q424 440 411.5 312.5 Q399 185 393 66 L573 33 L557 -10 Q490 -5 423.5 -2.5 Q357 0 266 0 Q175 0 109.5 -2.5 Q44 -5 -20 -10 L-6 33 L162 66 Q230 404 270 690 Q310 976 324 1214 L147 1247 L164 1290 Q224 1283 283.5 1279.5 Q343 1276 401 1276 Q492 1276 620.5 1286 Q749 1296 786 1296 Q936 1296 1014 1224.5 Q1092 1153 1092 1016 Q1092 819 945.5 694 Q799 569 565 569 Q538 569 507.5 570.5 Q477 572 442 575 ZM457 651 Q491 641 522.5 636 Q554 631 586 631 Q721 631 800 735 Q879 839 879 1018 Q879 1124 827.5 1175.5 Q776 1227 670 1227 Q629 1227 567 1214 Q555 1211 551 1210 Q526 1093 502.5 954.5 Q479 816 457 651 Z" /><glyph glyph-name="Q" unicode="q" d="M846 84 Q1021 -134 1189 -252.5 Q1357 -371 1491 -371 Q1513 -371 1537.5 -367 Q1562 -363 1599 -352 L1612 -391 Q1542 -421 1473.5 -437 Q1405 -453 1346 -453 Q1198 -453 1032.5 -345 Q867 -237 651 2 Q601 -12 555.5 -18.5 Q510 -25 465 -25 Q277 -25 174.5 96.5 Q72 218 72 442 Q72 600 119.5 747.5 Q167 895 256 1010 Q364 1148 515 1226.5 Q666 1305 823 1305 Q1023 1305 1130 1185.5 Q1237 1066 1237 842 Q1237 597 1136 401 Q1035 205 846 84 ZM715 1219 Q524 1219 408.5 1025.5 Q293 832 293 508 Q293 282 365.5 171.5 Q438 61 586 61 Q781 61 896.5 249 Q1012 437 1012 756 Q1012 994 940 1106.5 Q868 1219 715 1219 Z" /><glyph glyph-name="R" unicode="r" d="M461 672 Q493 666 516.5 664 Q540 662 559 662 Q727 662 817 751 Q907 840 907 1006 Q907 1120 856 1170.5 Q805 1221 688 1221 Q652 1221 618 1217 Q584 1213 553 1206 Q528 1093 505 958 Q482 823 461 672 ZM164 66 Q229 384 269.5 672.5 Q310 961 326 1214 L152 1247 L166 1288 Q251 1281 319 1277.5 Q387 1274 446 1274 Q532 1274 657.5 1281 Q783 1288 823 1288 Q967 1288 1043.5 1221 Q1120 1154 1120 1028 Q1120 896 1036.5 798 Q953 700 791 641 Q939 300 1040 163.5 Q1141 27 1239 27 L1253 27 L1241 -14 L1073 -14 Q1000 -14 966.5 -4.5 Q933 5 909 29 Q854 84 780.5 219 Q707 354 600 598 Q547 593 521.5 591.5 Q496 590 475 590 L451 590 Q428 444 415 314 Q402 184 397 66 L571 33 L555 -14 Q490 -7 425 -3.5 Q360 0 268 0 Q177 0 111.5 -3.5 Q46 -7 -18 -14 L-4 33 L164 66 Z" /><glyph glyph-name="S" unicode="s" d="M782 1038 L769 1042 Q765 1128 715 1175.5 Q665 1223 575 1223 Q487 1223 431 1169 Q375 1115 375 1032 Q375 965 414.5 905.5 Q454 846 561 762 Q719 637 763 565.5 Q807 494 807 406 Q807 228 648.5 102.5 Q490 -23 252 -23 Q142 -23 74 13.5 Q6 50 6 106 Q6 144 37.5 182.5 Q69 221 147 276 L160 270 Q166 175 227 118 Q288 61 385 61 Q490 61 558.5 128 Q627 195 627 297 Q627 368 588 431 Q549 494 457 569 Q442 581 415 603 Q199 777 199 918 Q199 1075 342 1190 Q485 1305 686 1305 Q790 1305 854 1273 Q918 1241 918 1192 Q918 1165 888.5 1131 Q859 1097 782 1038 Z" /><glyph glyph-name="T" unicode="t" d="M1229 1221 L1184 1034 L1143 1020 L1149 1077 L1149 1094 Q1149 1147 1093.5 1168 Q1038 1189 772 1210 Q705 877 666.5 590 Q628 303 619 65 L803 33 L786 -10 Q705 -5 629 -2.5 Q553 0 481 0 Q390 0 324.5 -2.5 Q259 -5 195 -10 L209 33 L387 66 Q453 388 493 674 Q533 960 547 1210 Q320 1203 247.5 1178.5 Q175 1154 143 1094 L113 1034 L66 1020 L121 1233 Q130 1271 141 1284.5 Q152 1298 174 1298 Q181 1298 217 1296 Q447 1278 684 1278 Q832 1278 1001.5 1288 Q1171 1298 1192 1298 Q1211 1298 1221 1285.5 Q1231 1273 1231 1247 Q1231 1236 1230.5 1230.5 Q1230 1225 1229 1221 Z" /><glyph glyph-name="U" unicode="u" d="M117 1247 L133 1290 Q235 1282 305 1278 Q375 1274 428 1274 Q489 1274 652 1286 Q690 1289 708 1290 L694 1247 L530 1214 Q465 952 428 714.5 Q391 477 391 338 Q391 194 464 125.5 Q537 57 690 57 Q924 57 1011 230 Q1098 403 1098 956 Q1098 1039 1095.5 1100 Q1093 1161 1087 1215 L909 1247 L926 1290 Q1035 1282 1093.5 1279 Q1152 1276 1194 1276 Q1229 1276 1279 1278.5 Q1329 1281 1454 1290 L1440 1247 L1272 1214 Q1227 1012 1187 724.5 Q1147 437 1126 356 Q1078 162 954.5 68.5 Q831 -25 623 -25 Q414 -25 307.5 64.5 Q201 154 201 328 Q201 388 241 682.5 Q281 977 289 1214 L117 1247 Z" /><glyph glyph-name="V" unicode="v" d="M25 1247 L39 1290 Q115 1282 181 1278 Q247 1274 297 1274 Q362 1274 533 1286 Q571 1289 589 1290 L575 1247 L418 1214 Q436 1026 485.5 772 Q535 518 614 213 Q817 574 937.5 820.5 Q1058 1067 1104 1214 L938 1247 L952 1290 Q1038 1281 1092.5 1277.5 Q1147 1274 1184 1274 Q1242 1274 1392 1286 Q1425 1289 1441 1290 L1427 1247 L1276 1214 Q1028 839 848 519 Q668 199 600 18 L444 -27 Q415 205 348.5 527.5 Q282 850 188 1214 L25 1247 Z" /><glyph glyph-name="W" unicode="w" d="M1120 1305 Q1120 1120 1161 834 Q1202 548 1280 199 Q1413 481 1511.5 738 Q1610 995 1669 1214 L1505 1247 L1518 1290 Q1584 1282 1642 1278 Q1700 1274 1743 1274 Q1800 1274 1946 1286 Q1981 1289 1998 1290 L1985 1247 L1825 1214 Q1635 851 1499 544.5 Q1363 238 1303 41 L1120 -27 Q1110 105 1070.5 352.5 Q1031 600 971 918 Q833 660 731.5 438.5 Q630 217 569 43 L391 -27 Q361 261 310 574 Q259 887 188 1214 L25 1247 L39 1290 Q114 1282 181.5 1278 Q249 1274 303 1274 Q366 1274 527 1286 Q564 1289 581 1290 L567 1247 L410 1214 Q419 1002 456 747.5 Q493 493 557 197 Q812 716 879 897 Q946 1078 946 1188 Q946 1202 945.5 1215 Q945 1228 944 1241 L1120 1305 Z" /><glyph glyph-name="X" unicode="x" d="M139 1290 Q259 1282 318 1279 Q377 1276 420 1276 Q458 1276 516 1279 Q574 1282 698 1290 L684 1247 L537 1217 Q557 1116 588 1007 Q619 898 659 782 Q758 909 836 1023.5 Q914 1138 956 1217 L825 1247 L840 1290 Q917 1284 975.5 1281 Q1034 1278 1075 1278 Q1115 1278 1170.5 1281 Q1226 1284 1298 1290 L1284 1247 L1139 1217 Q1079 1163 955 1027 Q831 891 682 713 Q764 475 820.5 325 Q877 175 926 66 L1092 33 L1077 -10 Q1012 -5 948 -2.5 Q884 0 797 0 Q731 0 659 -2.5 Q587 -5 510 -10 L524 33 L686 66 Q665 163 629 284.5 Q593 406 535 578 Q409 427 318 295.5 Q227 164 178 66 L311 33 L297 -10 Q234 -5 172 -2.5 Q110 0 43 0 Q-16 0 -65 -2.5 Q-114 -5 -165 -10 L-147 33 L0 66 Q107 174 236.5 322.5 Q366 471 508 647 Q460 793 409.5 931.5 Q359 1070 299 1217 L125 1247 L139 1290 Z" /><glyph glyph-name="Y" unicode="y" d="M41 1290 Q164 1281 213.5 1278.5 Q263 1276 297 1276 Q338 1276 396 1279 Q454 1282 567 1290 L553 1247 L406 1217 Q435 1120 487 990 Q539 860 633 645 Q788 867 863.5 990.5 Q939 1114 987 1217 L850 1247 L866 1290 Q966 1282 1011 1279 Q1056 1276 1085 1276 Q1119 1276 1165.5 1279 Q1212 1282 1303 1290 L1288 1247 L1151 1217 Q1012 1056 894.5 902 Q777 748 676 594 Q654 449 640.5 318 Q627 187 621 66 L801 33 L786 -10 Q705 -5 629 -2.5 Q553 0 481 0 Q390 0 324 -2.5 Q258 -5 193 -10 L209 33 L391 66 Q414 172 433 296 Q452 420 469 571 Q401 734 327 895 Q253 1056 172 1217 L27 1247 L41 1290 Z" /><glyph glyph-name="Z" unicode="z" d="M1081 1292 L1087 1227 Q747 785 567.5 535 Q388 285 252 72 Q275 73 319 75 Q857 104 905 205 L938 270 L985 285 L924 45 Q914 9 902.5 -2.5 Q891 -14 868 -14 Q858 -14 813 -12 Q598 0 397 0 Q283 0 182.5 -3.5 Q82 -7 -6 -14 L-12 55 Q228 356 440 645 Q652 934 834 1208 Q777 1204 675 1197 Q273 1170 229 1081 L199 1018 L150 1006 L215 1235 Q225 1273 234.5 1282.5 Q244 1292 268 1292 Q277 1292 319 1289 Q518 1276 709 1276 Q799 1276 891.5 1280 Q984 1284 1081 1292 Z" /><glyph glyph-name="a" unicode="a" d="M659 799 Q627 799 579 803 Q531 807 514 807 Q440 807 394 775 Q348 743 315 670 Q275 579 246 443 Q217 307 217 205 Q217 170 226.5 152.5 Q236 135 254 135 Q329 135 467.5 338 Q606 541 659 799 ZM590 426 Q460 230 320 107 Q180 -16 100 -16 Q64 -16 45.5 18.5 Q27 53 27 121 Q27 485 220.5 703.5 Q414 922 735 922 L778 922 Q808 922 829 922.5 Q850 923 870 923 Q811 717 777 520.5 Q743 324 743 219 Q743 190 749.5 176 Q756 162 770 162 Q781 162 795 173.5 Q809 185 848 227 L881 199 Q799 99 723 41.5 Q647 -16 602 -16 Q572 -16 555.5 8 Q539 32 539 78 Q539 122 551 205.5 Q563 289 590 426 Z" /><glyph glyph-name="b" unicode="b" d="M242 123 Q274 116 301 112.5 Q328 109 348 109 Q449 109 510.5 153 Q572 197 610 297 Q641 373 658.5 476 Q676 579 676 680 Q676 741 665.5 766 Q655 791 631 791 Q600 791 548 745 Q496 699 432 614 Q347 503 302 386.5 Q257 270 242 123 ZM807 1432 Q752 1459 706 1473 Q660 1487 625 1487 Q440 1487 320 721 Q300 593 289 523 Q429 709 564 819.5 Q699 930 782 930 Q835 930 861 887.5 Q887 845 887 758 Q887 602 823.5 455.5 Q760 309 643 197 Q533 91 417 41.5 Q301 -8 166 -8 Q129 -8 92 -3.5 Q55 1 19 10 Q74 152 115 516 Q156 880 215 1069 Q287 1303 440.5 1454.5 Q594 1606 739 1606 Q789 1606 816.5 1584.5 Q844 1563 844 1524 Q844 1504 835.5 1482 Q827 1460 807 1432 Z" /><glyph glyph-name="c" unicode="c" d="M557 719 Q518 764 483.5 785.5 Q449 807 416 807 Q343 807 286 656 Q229 505 229 303 Q229 217 257 174 Q285 131 340 131 Q389 131 451 172.5 Q513 214 582 293 L616 258 Q511 130 393 55 Q275 -20 186 -20 Q104 -20 65.5 30.5 Q27 81 27 190 Q27 327 67.5 461.5 Q108 596 176 688 Q250 786 368.5 858 Q487 930 569 930 Q621 930 655.5 904 Q690 878 690 842 Q690 814 655 782 Q620 750 557 719 Z" /><glyph glyph-name="d" unicode="d" d="M590 426 Q460 230 320 107 Q180 -16 100 -16 Q64 -16 45.5 18.5 Q27 53 27 121 Q27 466 197.5 680 Q368 894 666 922 Q726 1220 885.5 1412 Q1045 1604 1219 1604 Q1260 1604 1283.5 1582.5 Q1307 1561 1307 1524 Q1307 1500 1298 1477 Q1289 1454 1272 1430 Q1216 1458 1175 1471.5 Q1134 1485 1102 1485 Q1013 1485 963.5 1400 Q914 1315 850 961 Q802 698 772.5 489.5 Q743 281 743 219 Q743 190 749.5 176 Q756 162 770 162 Q781 162 795 173.5 Q809 185 848 227 L881 199 Q799 99 723 41.5 Q647 -16 602 -16 Q572 -16 555.5 8 Q539 32 539 78 Q539 122 551 205.5 Q563 289 590 426 ZM647 799 Q613 799 568.5 802 Q524 805 512 805 Q440 805 395 774.5 Q350 744 317 674 Q276 584 246.5 446.5 Q217 309 217 199 Q217 166 226.5 150.5 Q236 135 256 135 Q333 135 469 338.5 Q605 542 647 799 Z" /><glyph glyph-name="e" unicode="e" d="M256 477 Q245 422 239 374 Q233 326 233 289 Q233 212 261 171.5 Q289 131 342 131 Q391 131 451 171 Q511 211 582 291 L616 258 Q516 131 397 53 Q278 -25 190 -25 Q112 -25 70.5 26 Q29 77 29 172 Q29 312 77.5 464.5 Q126 617 199 709 Q271 800 378.5 865 Q486 930 561 930 Q621 930 654.5 897.5 Q688 865 688 807 Q688 707 563.5 609 Q439 511 256 477 ZM266 532 Q367 532 432.5 591 Q498 650 498 739 Q498 780 482 800.5 Q466 821 434 821 Q380 821 336.5 746.5 Q293 672 266 532 Z" /><glyph glyph-name="f" unicode="f" d="M854 1430 Q802 1458 754.5 1472.5 Q707 1487 666 1487 Q574 1487 523 1387 Q472 1287 403 870 Q452 866 491 864 Q530 862 551 862 Q623 862 652.5 869 Q682 876 702 891 L715 868 Q663 812 597 789 Q531 766 412 766 L390 766 Q386 741 379 690 Q271 -129 121 -367 Q13 -539 -164 -638 Q-341 -737 -539 -737 Q-630 -737 -683.5 -705 Q-737 -673 -737 -618 Q-737 -589 -726 -563 Q-715 -537 -694 -516 Q-639 -572 -554.5 -603.5 Q-470 -635 -377 -635 Q-252 -635 -156 -568 Q-60 -501 -6 -377 Q73 -192 182 596 L188 643 L205 774 Q152 774 108 766 Q64 758 25 741 L14 760 Q71 818 119 844 Q167 870 223 874 Q269 1189 436 1398.5 Q603 1608 782 1608 Q832 1608 860.5 1585.5 Q889 1563 889 1524 Q889 1497 880.5 1474.5 Q872 1452 854 1430 Z" /><glyph glyph-name="g" unicode="g" d="M590 426 Q460 230 320 107 Q180 -16 100 -16 Q64 -16 45.5 18.5 Q27 53 27 121 Q27 485 220.5 703.5 Q414 922 735 922 L778 922 Q808 922 829 922.5 Q850 923 870 923 Q803 715 757.5 374.5 Q712 34 696 -47 Q636 -368 452 -551.5 Q268 -735 14 -735 Q-65 -735 -110.5 -706 Q-156 -677 -156 -627 Q-156 -602 -146.5 -580 Q-137 -558 -117 -535 Q-59 -579 13.5 -604 Q86 -629 158 -629 Q326 -629 410.5 -462.5 Q495 -296 590 426 ZM659 799 Q627 799 579 803 Q531 807 514 807 Q440 807 394 775 Q348 743 315 670 Q275 579 246 443 Q217 307 217 205 Q217 170 226.5 152.5 Q236 135 254 135 Q329 135 467.5 338 Q606 541 659 799 Z" /><glyph glyph-name="h" unicode="h" d="M31 -27 Q76 181 139 604 Q202 1027 270 1190 Q344 1364 486.5 1485 Q629 1606 750 1606 Q799 1606 827.5 1584 Q856 1562 856 1524 Q856 1501 847 1479 Q838 1457 819 1432 Q764 1460 720 1473.5 Q676 1487 639 1487 Q454 1487 327 689 Q304 542 291 461 Q439 664 595 798 Q751 932 823 932 Q851 932 867 915.5 Q883 899 883 868 Q883 790 834.5 556.5 Q786 323 786 205 Q786 186 791 175 Q796 164 805 164 Q821 164 843 180.5 Q865 197 897 233 L930 207 Q841 95 773 40.5 Q705 -14 655 -14 Q620 -14 603 11 Q586 36 586 88 Q586 193 630 412 Q674 631 674 717 Q674 736 667 747 Q660 758 647 758 Q616 758 554.5 700.5 Q493 643 420 545 Q338 434 292.5 315 Q247 196 231 55 Q189 40 142.5 21 Q96 2 31 -27 Z" /><glyph glyph-name="i" unicode="i" d="M422 256 L455 229 Q368 112 288 46 Q208 -20 156 -20 Q127 -20 113.5 -0.5 Q100 19 100 61 Q100 165 149.5 386.5 Q199 608 199 700 Q199 717 193.5 726 Q188 735 178 735 Q162 735 139 718 Q116 701 82 664 L51 694 Q144 804 222 866 Q300 928 344 928 Q373 928 387 910 Q401 892 401 856 Q401 821 369 631 Q358 567 352 530 Q331 406 319 324 Q307 242 307 225 Q307 204 313.5 194 Q320 184 334 184 Q348 184 370 202 Q392 220 422 256 ZM362 1323 Q401 1323 427 1297 Q453 1271 453 1233 Q453 1169 416.5 1125 Q380 1081 328 1081 Q288 1081 263 1108 Q238 1135 238 1178 Q238 1235 275.5 1279 Q313 1323 362 1323 Z" /><glyph glyph-name="j" unicode="j" d="M-551 -532 Q-491 -581 -420.5 -606 Q-350 -631 -274 -631 Q-132 -631 -52.5 -512 Q27 -393 80 -80 Q126 192 155 412 Q184 632 184 692 Q184 712 177.5 722.5 Q171 733 160 733 Q136 733 74 673 Q64 664 59 659 L27 690 Q136 816 208 873 Q280 930 330 930 Q357 930 372 909 Q387 888 387 850 Q387 797 373.5 684.5 Q360 572 322 324 Q284 68 260.5 -52 Q237 -172 213 -242 Q138 -462 -36.5 -597.5 Q-211 -733 -420 -733 Q-501 -733 -546.5 -704.5 Q-592 -676 -592 -625 Q-592 -601 -582 -579 Q-572 -557 -551 -532 ZM342 1323 Q381 1323 406.5 1296.5 Q432 1270 432 1229 Q432 1166 395 1122.5 Q358 1079 307 1079 Q267 1079 242 1107 Q217 1135 217 1180 Q217 1237 254.5 1280 Q292 1323 342 1323 Z" /><glyph glyph-name="k" unicode="k" d="M819 1432 Q765 1460 720 1473.5 Q675 1487 637 1487 Q454 1487 331 695 Q312 571 301 504 Q460 711 583 818.5 Q706 926 784 926 Q814 926 834 903 Q854 880 854 844 Q854 815 835.5 779.5 Q817 744 780 702 Q754 733 727.5 746.5 Q701 760 666 760 Q626 760 587 738.5 Q548 717 504 672 Q570 426 641 276.5 Q712 127 760 127 Q775 127 793 140 Q811 153 858 205 L889 178 Q811 81 754.5 32.5 Q698 -16 662 -16 Q588 -16 518.5 121 Q449 258 381 537 Q282 426 245 69 L243 57 Q215 46 146 17 Q77 -12 39 -27 Q79 164 137.5 589 Q196 1014 270 1190 Q343 1363 487 1484.5 Q631 1606 752 1606 Q801 1606 828.5 1584 Q856 1562 856 1524 Q856 1501 847 1478 Q838 1455 819 1432 Z" /><glyph glyph-name="l" unicode="l" d="M808 1428 Q757 1456 713 1470.5 Q669 1485 635 1485 Q547 1485 497 1401.5 Q447 1318 387 1022 Q333 752 299.5 519.5 Q266 287 266 223 Q266 202 272.5 189 Q279 176 289 176 Q303 176 318.5 186.5 Q334 197 377 240 L408 211 Q318 104 243.5 45 Q169 -14 125 -14 Q95 -14 78 9.5 Q61 33 61 76 Q61 132 77 255.5 Q93 379 123 551 Q166 802 201.5 943 Q237 1084 279 1182 Q354 1363 490 1483.5 Q626 1604 745 1604 Q793 1604 818.5 1583 Q844 1562 844 1524 Q844 1498 835 1473.5 Q826 1449 808 1428 Z" /><glyph glyph-name="m" unicode="m" d="M578 -27 Q630 211 661 413.5 Q692 616 692 686 Q692 726 685.5 740 Q679 754 662 754 Q633 754 573 694.5 Q513 635 451 541 Q376 432 335 317 Q294 202 276 57 Q226 38 132 -4 Q97 -19 80 -26 Q131 217 162 423 Q193 629 193 698 Q193 724 184.5 739 Q176 754 162 754 Q150 754 123.5 732 Q97 710 59 670 L29 698 Q135 814 213 871 Q291 928 342 928 Q370 928 383.5 907 Q397 886 397 842 Q397 805 383.5 710 Q370 615 344 479 Q488 682 624.5 805 Q761 928 836 928 Q864 928 877.5 907 Q891 886 891 842 Q891 808 882 741.5 Q873 675 840 473 Q981 679 1118.5 803.5 Q1256 928 1335 928 Q1369 928 1384 910 Q1399 892 1399 850 Q1399 827 1363 622 L1350 547 Q1326 410 1314.5 326.5 Q1303 243 1303 205 Q1303 186 1308.5 175 Q1314 164 1323 164 Q1339 164 1361.5 180.5 Q1384 197 1415 233 L1446 207 Q1357 95 1289.5 40.5 Q1222 -14 1171 -14 Q1137 -14 1120.5 10.5 Q1104 35 1104 88 Q1104 196 1147 413 Q1190 630 1190 709 Q1190 733 1182.5 743.5 Q1175 754 1159 754 Q1130 754 1076 700 Q1022 646 956 553 Q879 442 835 322.5 Q791 203 774 55 Q746 44 679.5 15.5 Q613 -13 578 -27 Z" /><glyph glyph-name="n" unicode="n" d="M78 -27 Q129 217 159.5 423 Q190 629 190 698 Q190 723 182.5 736.5 Q175 750 160 750 Q147 750 119.5 728.5 Q92 707 57 670 L27 698 Q133 814 210.5 871 Q288 928 340 928 Q368 928 381.5 907 Q395 886 395 842 Q395 802 380 700 Q365 598 338 461 Q485 663 641 795.5 Q797 928 870 928 Q899 928 913.5 913 Q928 898 928 868 Q928 790 879.5 556.5 Q831 323 831 205 Q831 186 837 175 Q843 164 852 164 Q868 164 890.5 180.5 Q913 197 944 233 L975 207 Q886 95 818.5 40.5 Q751 -14 700 -14 Q666 -14 649.5 10.5 Q633 35 633 88 Q633 193 677 412 Q721 631 721 717 Q721 736 714 747 Q707 758 694 758 Q663 758 601.5 700.5 Q540 643 467 545 Q385 434 339.5 315 Q294 196 279 55 Q236 40 189.5 21 Q143 2 78 -27 Z" /><glyph glyph-name="o" unicode="o" d="M578 606 Q578 716 544 771.5 Q510 827 444 827 Q344 827 284.5 685 Q225 543 225 301 Q225 196 258.5 142 Q292 88 356 88 Q455 88 516.5 230 Q578 372 578 606 ZM575 930 Q677 930 728.5 864.5 Q780 799 780 670 Q780 543 740.5 424.5 Q701 306 629 215 Q545 111 433.5 46.5 Q322 -18 229 -18 Q128 -18 77.5 45 Q27 108 27 236 Q27 392 80.5 532.5 Q134 673 227 762 Q311 839 405 884.5 Q499 930 575 930 Z" /><glyph glyph-name="p" unicode="p" d="M279 82 Q308 74 335 70 Q362 66 387 66 Q477 66 538.5 106 Q600 146 645 233 Q688 317 714.5 438.5 Q741 560 741 672 Q741 723 729.5 745.5 Q718 768 692 768 Q606 768 465.5 558.5 Q325 349 279 82 ZM338 465 Q479 672 623 798 Q767 924 854 924 Q900 924 927 878 Q954 832 954 754 Q954 591 898 444.5 Q842 298 737 190 Q642 91 524.5 34 Q407 -23 297 -23 Q297 -23 285 -21.5 Q273 -20 262 -20 Q214 -345 23 -541 Q-168 -737 -428 -737 Q-509 -737 -554.5 -707 Q-600 -677 -600 -625 Q-600 -603 -589.5 -580.5 Q-579 -558 -559 -535 Q-498 -581 -426.5 -606 Q-355 -631 -285 -631 Q-148 -631 -69.5 -529.5 Q9 -428 63 -172 Q120 94 154 348 Q188 602 188 696 Q188 723 182 736.5 Q176 750 164 750 Q148 750 117.5 726.5 Q87 703 53 664 L25 692 Q122 802 201.5 863 Q281 924 328 924 Q359 924 375 901 Q391 878 391 831 Q391 783 377 685.5 Q363 588 338 465 Z" /><glyph glyph-name="q" unicode="q" d="M659 799 Q627 799 579 803 Q531 807 514 807 Q434 807 384 768 Q334 729 299 639 Q264 547 240.5 422.5 Q217 298 217 203 Q217 167 225.5 151 Q234 135 254 135 Q327 135 467 338 Q607 541 659 799 ZM870 924 Q792 647 710 34 Q677 -216 657 -344 Q656 -355 652 -378 Q620 -585 516 -627 L819 -637 L809 -682 Q792 -682 758 -681 Q724 -680 707 -680 Q564 -680 435.5 -693 Q307 -706 186 -733 L199 -684 L303 -659 Q360 -648 382.5 -631 Q405 -614 418 -580 Q461 -467 559 223 Q578 353 588 424 Q457 227 319 106.5 Q181 -14 96 -14 Q60 -14 43.5 20 Q27 54 27 129 Q27 490 219.5 706 Q412 922 731 922 L807 922 Q821 922 837 922.5 Q853 923 870 924 Z" /><glyph glyph-name="r" unicode="r" d="M662 659 Q646 691 629.5 705 Q613 719 592 719 Q513 719 414 524 Q315 329 274 51 Q233 36 166.5 9 Q100 -18 78 -27 Q129 217 159.5 423 Q190 629 190 698 Q190 723 182.5 736.5 Q175 750 160 750 Q147 750 119.5 728.5 Q92 707 57 670 L27 698 Q130 810 208.5 867 Q287 924 340 924 Q369 924 382 904.5 Q395 885 395 842 Q395 804 380.5 705.5 Q366 607 342 487 L346 485 Q452 690 550.5 807 Q649 924 715 924 Q748 924 768 897.5 Q788 871 788 827 Q788 789 756 746.5 Q724 704 662 659 Z" /><glyph glyph-name="s" unicode="s" d="M512 735 Q480 784 442.5 809 Q405 834 365 834 Q319 834 288.5 805 Q258 776 258 733 Q258 677 345 574 Q366 550 377 536 Q433 468 457 414.5 Q481 361 481 307 Q481 183 367.5 85.5 Q254 -12 106 -12 Q38 -12 -3.5 14 Q-45 40 -45 80 Q-45 102 -21.5 131 Q2 160 43 190 Q80 133 124.5 104.5 Q169 76 219 76 Q270 76 303 106 Q336 136 336 182 Q336 214 319.5 246 Q303 278 247 343 L243 348 Q111 508 111 614 Q111 738 221.5 832 Q332 926 473 926 Q534 926 573 901 Q612 876 612 840 Q612 813 584 782.5 Q556 752 512 735 Z" /><glyph glyph-name="t" unicode="t" d="M467 1128 L483 1110 Q457 1055 439 996 Q421 937 410 870 Q476 865 509.5 862.5 Q543 860 563 860 Q609 860 635 867 Q661 874 684 889 L700 868 Q648 813 590.5 789.5 Q533 766 444 766 L420 766 Q419 766 416 766 Q401 768 391 768 Q356 591 335.5 441.5 Q315 292 315 223 Q315 194 321.5 183 Q328 172 344 172 Q360 172 386 192.5 Q412 213 442 250 L475 223 Q384 107 305 45.5 Q226 -16 168 -16 Q137 -16 121.5 4 Q106 24 106 66 Q106 130 133.5 314 Q161 498 211 774 Q150 774 106 766 Q62 758 27 741 L16 768 Q131 830 242 918.5 Q353 1007 467 1128 Z" /><glyph glyph-name="u" unicode="u" d="M934 932 Q880 699 847.5 496.5 Q815 294 815 213 Q815 186 821.5 174 Q828 162 842 162 Q855 162 877.5 180.5 Q900 199 934 238 L965 209 Q874 97 804 41.5 Q734 -14 682 -14 Q650 -14 634 10 Q618 34 618 82 Q618 130 632 228 Q646 326 670 446 Q523 240 375.5 113 Q228 -14 143 -14 Q117 -14 102.5 5.5 Q88 25 88 61 Q88 144 136 368.5 Q184 593 184 700 Q184 727 179 736 Q174 745 160 745 Q149 745 124.5 726 Q100 707 70 674 L41 700 Q123 801 202.5 860.5 Q282 920 332 920 Q359 920 373 902 Q387 884 387 850 Q387 732 339 506 Q291 280 291 207 Q291 176 297 166 Q303 156 319 156 Q404 156 551 371 Q698 586 737 854 Q757 862 797 879 Q887 919 934 932 Z" /><glyph glyph-name="v" unicode="v" d="M33 657 L2 684 Q89 803 157.5 863.5 Q226 924 274 924 Q335 924 363 849 Q391 774 391 614 Q391 494 382.5 373.5 Q374 253 356 135 Q513 294 609 460 Q705 626 705 721 Q705 747 694.5 760.5 Q684 774 666 774 Q655 774 637.5 763 Q620 752 594 729 L567 758 Q644 844 699.5 884 Q755 924 799 924 Q836 924 856.5 900 Q877 876 877 831 Q877 724 745 519 Q613 314 406 115 Q332 44 280 10.5 Q228 -23 193 -23 Q179 -23 172.5 -16.5 Q166 -10 166 4 Q166 7 169 26 Q203 214 203 467 Q203 612 187 673.5 Q171 735 135 735 Q115 735 92 718 Q69 701 33 657 Z" /><glyph glyph-name="w" unicode="w" d="M682 524 Q552 305 372 139 Q192 -27 131 -27 Q123 -27 119 -21.5 Q115 -16 115 -6 Q115 8 133 76 Q207 358 207 586 Q207 665 193.5 702 Q180 739 152 739 Q134 739 108.5 721 Q83 703 45 664 L16 688 Q93 795 163 854 Q233 913 281 913 Q336 913 363.5 858 Q391 803 391 690 Q391 575 374.5 442.5 Q358 310 326 166 Q473 292 569.5 445 Q666 598 713 780 Q750 813 781 845.5 Q812 878 838 913 L872 897 Q864 856 860 803.5 Q856 751 856 664 Q856 436 884.5 302 Q913 168 961 168 Q987 168 1020.5 204 Q1054 240 1092 309 Q1147 412 1178.5 515.5 Q1210 619 1210 694 Q1210 730 1200 748 Q1190 766 1169 766 Q1153 766 1133.5 754.5 Q1114 743 1092 721 L1067 748 Q1138 840 1190 885 Q1242 930 1280 930 Q1318 930 1340 899 Q1362 868 1362 815 Q1362 706 1286.5 533 Q1211 360 1085 190 Q1014 95 956 45.5 Q898 -4 858 -4 Q777 -4 735 121 Q693 246 682 524 Z" /><glyph glyph-name="x" unicode="x" d="M-96 135 Q-94 135 -90 134 Q-51 127 -33 127 Q56 127 135.5 200 Q215 273 305 438 Q302 452 295 479 Q232 729 188 729 Q171 729 147 707.5 Q123 686 96 645 L66 670 Q139 792 204.5 860 Q270 928 313 928 Q376 928 426 665 Q440 590 449 547 Q576 767 644.5 847.5 Q713 928 766 928 Q803 928 829.5 896.5 Q856 865 856 821 Q856 820 854.5 806.5 Q853 793 852 781 Q850 781 846 781 Q816 784 803 784 Q717 784 634 711.5 Q551 639 465 487 Q515 279 541.5 226.5 Q568 174 604 174 Q620 174 640 192.5 Q660 211 686 250 L717 225 Q647 110 583.5 47 Q520 -16 473 -16 Q405 -16 331 324 Q324 360 319 379 Q205 152 135.5 68 Q66 -16 0 -16 Q-44 -16 -72 14 Q-100 44 -100 90 Q-100 103 -97 130 Q-96 133 -96 135 Z" /><glyph glyph-name="y" unicode="y" d="M934 932 Q875 716 828.5 380.5 Q782 45 766 -37 Q724 -257 647.5 -391 Q571 -525 438 -618 Q363 -672 265.5 -703.5 Q168 -735 82 -735 Q-2 -735 -46 -705.5 Q-90 -676 -90 -621 Q-90 -602 -80.5 -580 Q-71 -558 -51 -535 Q11 -581 81 -606 Q151 -631 221 -631 Q509 -631 657 377 L668 446 Q522 240 375 113 Q228 -14 143 -14 Q117 -14 102.5 5.5 Q88 25 88 61 Q88 144 136 368.5 Q184 593 184 700 Q184 727 179 736 Q174 745 160 745 Q149 745 124.5 726 Q100 707 70 674 L41 700 Q123 801 202.5 860.5 Q282 920 332 920 Q359 920 373 902 Q387 884 387 850 Q387 732 339 506 Q291 280 291 207 Q291 176 297 166 Q303 156 319 156 Q404 156 551 371 Q698 586 737 854 Q757 862 797 879 Q887 919 934 932 Z" /><glyph glyph-name="z" unicode="z" d="M743 915 L772 893 Q605 685 438.5 501.5 Q272 318 115 168 Q144 177 176 181.5 Q208 186 248 186 Q292 186 374 170 Q456 154 492 154 Q555 154 598.5 186 Q642 218 678 291 L715 274 Q637 97 583 42.5 Q529 -12 449 -12 Q393 -12 280.5 19.5 Q168 51 113 51 Q68 51 26 35.5 Q-16 20 -55 -12 L-76 6 Q115 251 279.5 436.5 Q444 622 592 758 Q566 746 537 740.5 Q508 735 473 735 Q426 735 351 748.5 Q276 762 248 762 Q195 762 153.5 732.5 Q112 703 78 641 L43 655 Q113 802 172.5 862 Q232 922 305 922 Q356 922 462 898 Q568 874 621 874 Q654 874 684.5 884.5 Q715 895 743 915 Z" /></font>
</defs>
</svg>
