<?xml version="1.0" standalone="no"?><!DOCTYPE svg PUBLIC "-//W3C//DTD SVG 1.1//EN" "http://www.w3.org/Graphics/SVG/1.1/DTD/svg11.dtd" ><svg xmlns="http://www.w3.org/2000/svg"><metadata></metadata><defs><font id="fonteditor" horiz-adv-x="1000"><font-face font-family="eยนkcFW{Q}+fg {ย E" font-weight="800" font-stretch="normal" units-per-em="1000" panose-1="2 0 9 0 0 0 0 0 0 0" ascent="925" descent="-297" x-height="0" bbox="9 -129 991 832" underline-thickness="0" underline-position="0" unicode-range="U+4e00-9f99" /><missing-glyph horiz-adv-x="1000"  /><glyph glyph-name="uni4E00" unicode="&#x4e00;" d="M942 339 L429 339 Q208 340 67 332 Q49 356 47 386 Q93 379 247 374 Q371 370 461 370 L722 370 Q779 461 813 492 Q818 497 827 493 Q855 478 899 434 Q939 395 955 371 Q962 362 958 351 Q954 339 942 339 Z" /><glyph glyph-name="uni4E03" unicode="&#x4e03;" d="M467 456 L748 497 Q756 515 774 552 Q791 588 809 612 Q813 616 821 614 Q895 579 952 524 Q959 517 957 506 Q955 495 942 493 L467 425 L463 124 Q462 94 476 78 Q489 64 518 58 Q602 46 697 61 Q754 71 777 106 Q806 151 838 275 Q846 300 853 300 Q860 299 859 271 Q855 204 851 138 Q852 111 876 96 Q902 83 904 37 Q900 -10 842 -33 Q793 -53 716 -59 Q576 -69 492 -61 Q331 -48 336 108 L338 406 L330 405 Q202 386 76 359 Q56 376 47 407 Q159 414 339 438 L340 608 Q342 729 331 785 Q406 783 475 770 Q511 764 509 745 Q507 727 471 719 L467 456 Z" /><glyph glyph-name="uni4E07" unicode="&#x4e07;" d="M527 664 Q521 564 507 472 L697 472 Q726 508 749 526 Q753 530 759 527 Q818 498 861 459 Q874 446 867 432 Q860 416 830 412 Q831 232 799 101 Q753 -71 575 -87 Q543 -90 535 -68 Q526 -42 505 -24 Q482 -3 393 39 Q378 47 379 53 Q380 59 398 56 Q491 41 549 39 Q644 35 676 142 Q706 239 706 442 L501 442 Q460 222 353 99 Q253 -15 55 -90 Q39 -95 34 -90 Q29 -85 46 -75 Q246 44 323 253 Q377 398 386 664 L337 664 Q159 664 81 655 Q64 674 62 703 Q179 695 363 693 L756 693 Q784 739 832 791 Q837 796 845 792 Q912 747 958 694 Q965 686 961 675 Q957 664 943 664 L527 664 Z" /><glyph glyph-name="uni4E09" unicode="&#x4e09;" d="M815 338 L461 338 Q254 338 203 332 Q185 352 184 379 Q295 371 483 369 L624 369 Q670 442 701 469 Q706 474 713 469 Q782 423 829 366 Q834 359 831 349 Q827 338 815 338 ZM948 10 L408 10 Q142 10 71 3 Q54 21 53 50 Q176 41 430 39 L746 39 Q779 89 829 143 Q835 147 841 144 Q912 95 962 36 Q967 28 964 20 Q961 10 948 10 ZM879 639 L436 639 Q190 639 129 633 Q112 651 112 679 Q235 671 458 669 L683 669 Q726 736 763 769 Q767 773 774 770 Q846 722 893 666 Q898 659 895 649 Q892 639 879 639 Z" /><glyph glyph-name="uni4E0A" unicode="&#x4e0a;" d="M549 -9 L754 -9 Q796 56 833 94 Q837 100 844 95 Q904 57 962 -9 Q969 -18 965 -28 Q961 -39 948 -39 L315 -39 Q125 -39 63 -45 Q47 -28 45 2 Q159 -8 342 -9 L415 -9 L415 601 Q415 723 405 799 Q484 799 561 785 Q577 782 585 775 Q592 768 590 760 Q585 744 549 735 L549 447 L689 447 Q733 519 764 552 Q767 555 774 552 Q845 502 887 447 Q894 438 890 428 Q886 417 873 417 L549 417 L549 -9 Z" /><glyph glyph-name="uni4E0B" unicode="&#x4e0b;" d="M543 489 L543 193 Q543 86 545 14 Q546 -23 547 -60 Q548 -74 529 -84 Q507 -96 463 -98 Q431 -99 416 -90 Q400 -81 402 -62 Q406 -28 406 5 Q409 104 409 182 Q409 429 409 677 L337 677 Q141 677 70 670 Q54 688 52 716 Q121 708 361 708 L733 708 Q777 773 817 808 Q820 810 829 808 Q911 756 953 704 Q958 697 955 687 Q952 677 940 677 L543 677 L543 508 Q773 492 846 394 Q865 366 863 331 Q861 296 840 279 Q818 258 790 259 Q758 260 735 291 Q705 339 665 392 Q624 445 543 489 Z" /><glyph glyph-name="uni4E0D" unicode="&#x4e0d;" d="M818 209 Q781 269 727 328 Q662 398 596 438 Q577 451 581 455 Q586 459 608 455 Q727 433 819 388 Q908 344 932 299 Q948 271 944 236 Q941 203 923 188 Q899 167 869 172 Q838 177 818 209 ZM528 536 Q572 529 574 529 Q583 527 590 522 Q598 516 597 509 Q596 491 560 485 L560 136 Q560 127 563 -20 Q564 -41 564 -62 Q564 -85 522 -94 Q500 -98 483 -98 Q455 -100 440 -92 Q424 -83 425 -66 Q429 -34 429 -10 Q432 47 432 148 L432 420 Q272 250 53 156 Q31 148 28 154 Q25 161 44 174 Q157 250 264 374 Q369 496 434 623 Q451 656 461 686 L347 686 Q177 686 94 678 Q77 696 74 725 Q190 716 373 715 L738 715 Q775 775 816 811 Q821 816 828 812 Q903 766 948 715 Q955 707 951 697 Q947 686 933 686 L520 686 Q591 665 621 649 Q639 640 632 626 Q623 611 585 615 Q560 578 528 536 Z" /><glyph glyph-name="uni4E0E" unicode="&#x4e0e;" d="M674 215 L234 215 Q149 215 61 208 Q46 220 44 253 Q128 243 261 243 L488 243 Q517 289 563 337 Q566 340 575 337 Q638 297 686 244 Q693 236 690 226 Q687 215 674 215 ZM407 635 L705 635 Q725 673 775 727 Q780 732 785 728 Q846 689 897 634 Q904 625 901 616 Q897 606 884 606 L401 606 Q382 522 362 444 L750 444 Q778 480 806 501 Q811 505 817 501 Q873 475 912 438 Q925 424 922 411 Q918 395 886 387 Q875 151 814 42 Q779 -22 715 -63 Q647 -107 568 -107 Q539 -107 530 -88 Q516 -59 480 -35 Q434 -2 372 33 Q358 41 360 47 Q362 53 379 49 Q470 25 537 20 Q644 14 698 94 Q748 170 763 417 L370 417 Q352 387 327 365 Q317 353 302 359 Q242 381 205 419 Q192 433 201 447 Q210 461 243 470 Q286 635 298 723 Q306 783 306 810 Q405 803 456 785 Q479 776 475 761 Q471 745 430 739 Q419 687 407 635 Z" /><glyph glyph-name="uni4E13" unicode="&#x4e13;" d="M572 81 Q620 53 640 21 Q656 -4 654 -34 Q652 -63 635 -81 Q609 -108 575 -101 Q541 -95 521 -58 Q441 77 306 143 Q269 164 315 158 Q453 133 527 102 Q594 206 634 279 L409 279 Q383 242 359 222 Q353 219 346 221 Q298 240 246 278 Q227 292 235 307 Q243 322 275 325 Q294 381 309 426 Q133 426 77 420 Q61 433 59 465 Q137 457 318 455 Q342 535 361 603 Q216 601 170 596 Q153 614 153 642 Q211 637 369 633 Q381 679 390 723 Q400 767 403 814 Q486 806 548 783 Q571 772 568 759 Q564 740 527 739 Q517 704 497 632 L649 632 Q696 708 725 731 Q729 737 737 732 Q758 721 798 686 Q834 654 854 631 Q862 623 857 613 Q852 603 839 603 L488 603 Q463 515 445 455 L736 455 Q784 530 814 556 Q819 560 826 556 Q849 544 888 510 Q921 480 943 455 Q951 446 946 436 Q941 426 928 426 L437 426 Q430 401 400 307 L624 307 Q660 349 685 366 Q691 370 696 366 Q718 357 755 330 Q793 302 805 287 Q819 270 807 257 Q794 244 761 244 Q668 153 572 81 Z" /><glyph glyph-name="uni4E14" unicode="&#x4e14;" d="M763 -24 L790 -24 Q810 22 854 74 Q858 80 865 75 Q922 27 961 -27 Q965 -33 963 -42 Q960 -51 946 -52 L313 -52 Q130 -52 59 -59 Q43 -41 43 -14 Q97 -19 241 -23 L241 657 Q241 728 233 797 Q305 778 372 741 L624 741 Q654 774 675 790 Q679 794 686 792 Q741 770 787 734 Q801 723 798 711 Q795 696 763 686 L763 -24 ZM636 -24 L636 215 L364 215 L364 -24 L636 -24 ZM636 245 L636 465 L364 465 L364 245 L636 245 ZM636 495 L636 711 L364 711 L364 495 L636 495 Z" /><glyph glyph-name="uni4E16" unicode="&#x4e16;" d="M770 483 L770 387 Q770 303 776 169 Q776 157 762 147 Q743 134 705 131 Q644 126 648 163 Q650 190 651 217 L533 217 Q533 175 534 154 Q534 143 520 134 Q501 122 464 120 Q405 115 408 151 Q415 304 416 383 L417 483 L297 483 L296 25 L724 25 Q727 29 729 33 Q772 95 799 121 Q804 125 811 121 Q879 77 919 25 Q927 15 923 5 Q918 -6 905 -6 L313 -6 Q290 -43 263 -67 Q251 -75 242 -72 Q187 -44 142 0 Q127 15 135 31 Q143 48 175 56 L175 482 Q74 480 45 477 Q26 498 29 520 Q80 516 175 513 L175 612 Q175 690 166 775 Q255 773 310 760 Q337 753 334 739 Q331 723 298 717 L297 511 L417 511 L418 669 Q418 715 410 793 Q487 791 547 777 Q571 772 571 758 Q571 741 533 734 L533 511 L653 511 L653 662 Q653 728 644 788 Q719 786 782 772 Q796 769 802 763 Q808 757 807 749 Q803 733 770 727 L770 511 L797 511 Q841 585 863 604 Q868 609 874 605 Q896 592 929 558 Q959 527 971 509 Q976 501 973 493 Q970 483 957 483 L770 483 ZM653 483 L533 483 L533 373 Q532 331 532 244 L652 244 Q653 311 653 379 L653 483 Z" /><glyph glyph-name="uni4E1A" unicode="&#x4e1a;" d="M172 274 Q165 432 89 575 Q80 589 86 592 Q92 594 105 585 Q181 527 228 464 Q282 392 294 322 Q302 275 290 242 Q278 208 248 198 Q218 188 198 204 Q174 223 172 274 ZM674 167 Q748 349 775 511 Q785 551 785 601 Q871 578 930 545 Q950 533 946 519 Q943 501 910 503 Q797 281 685 153 Q678 144 674 146 L673 -9 L760 -9 Q783 29 838 90 Q843 95 850 91 Q920 45 965 -14 Q970 -21 967 -29 Q964 -39 951 -39 L308 -39 Q215 -39 58 -47 Q40 -26 38 1 Q124 -9 323 -9 L323 646 Q318 764 313 793 Q400 791 451 779 Q476 773 478 759 Q479 740 443 734 L442 -9 L554 -9 L554 633 Q554 729 544 795 Q604 795 685 780 Q707 777 710 761 Q712 752 704 745 Q696 737 676 733 L674 167 Z" /><glyph glyph-name="uni4E1C" unicode="&#x4e1c;" d="M795 33 Q776 80 740 126 Q698 181 647 216 Q634 225 638 229 Q641 232 656 230 Q736 214 799 186 Q879 151 907 106 Q928 75 922 40 Q916 6 888 -11 Q860 -27 833 -12 Q808 2 795 33 ZM67 -37 Q51 -44 48 -39 Q45 -35 57 -25 Q171 78 234 209 Q244 231 253 266 Q349 234 386 205 Q404 190 396 179 Q385 166 355 174 Q242 34 67 -37 ZM583 332 L583 131 Q583 71 587 21 Q589 -27 551 -63 Q509 -103 433 -109 Q413 -110 405 -95 Q396 -70 366 -46 Q336 -24 275 2 Q263 8 264 13 Q265 19 279 18 Q330 11 401 7 Q423 7 441 19 Q464 35 464 65 L464 332 L308 332 Q287 306 266 288 Q259 282 249 287 Q196 312 155 346 Q140 362 149 374 Q157 385 187 392 Q216 440 283 607 L255 607 Q111 607 65 602 Q50 614 48 643 Q149 635 281 634 L293 634 Q310 677 326 720 Q346 773 346 811 Q432 795 482 772 Q504 762 504 750 Q502 730 459 730 Q433 662 422 634 L754 634 Q780 673 829 726 Q833 729 840 726 Q899 689 940 638 Q949 624 946 616 Q943 607 930 607 L412 607 Q345 443 303 360 L464 360 L464 421 Q464 494 455 544 Q535 541 598 530 Q619 525 619 513 Q619 495 585 487 L583 371 L583 360 L699 360 Q727 406 766 444 Q772 449 776 445 Q829 410 869 362 Q878 350 875 341 Q872 332 858 332 L583 332 Z" /><glyph glyph-name="uni4E1D" unicode="&#x4e1d;" d="M948 -38 L348 -38 Q137 -38 69 -46 Q52 -26 52 -1 Q174 -9 372 -10 L751 -10 Q796 60 832 91 Q837 96 844 92 Q921 38 961 -12 Q966 -20 963 -28 Q960 -38 948 -38 ZM724 503 Q730 517 736 531 Q765 601 773 640 Q842 612 897 577 Q918 563 913 549 Q909 533 873 542 Q749 366 616 245 Q771 252 902 271 Q922 273 926 268 Q930 263 913 254 Q758 185 557 133 Q555 94 540 92 Q530 92 520 110 Q494 163 477 243 Q507 240 531 244 Q583 254 610 297 Q661 373 700 452 Q625 417 551 397 Q552 359 538 357 Q527 354 516 377 Q492 442 481 513 Q499 511 517 509 Q537 514 552 531 Q564 545 577 574 Q608 634 628 710 Q641 768 642 806 Q726 781 771 752 Q796 737 789 724 Q784 709 753 717 Q672 591 580 504 Q650 502 724 503 ZM337 508 Q346 528 355 549 Q388 629 396 671 Q471 640 520 607 Q543 590 536 577 Q529 561 496 572 Q370 375 229 242 Q357 249 473 266 Q493 268 497 264 Q501 259 484 249 Q325 171 171 129 Q171 110 166 98 Q160 87 152 89 Q144 90 134 107 Q107 159 89 241 Q124 237 145 241 Q188 246 217 291 Q268 364 316 463 Q218 420 145 402 Q147 364 132 360 Q120 358 109 381 Q84 446 73 518 Q92 516 110 514 Q151 516 173 566 Q203 619 228 703 Q242 759 244 805 Q335 779 379 751 Q401 738 398 725 Q394 709 360 715 Q280 601 176 508 Q232 506 337 508 Z" /><glyph glyph-name="uni4E24" unicode="&#x4e24;" d="M663 550 L757 550 Q780 584 802 601 Q807 604 813 601 Q864 580 908 543 Q922 530 917 518 Q912 504 885 493 L885 212 Q887 136 889 60 Q892 -2 854 -45 Q813 -91 737 -97 Q711 -99 705 -81 Q693 -52 666 -36 Q628 -10 572 10 Q554 18 558 25 Q560 30 575 28 Q644 21 706 19 Q768 19 768 84 L768 523 L663 523 Q663 510 662 497 Q659 433 651 392 Q690 356 720 309 Q752 259 753 224 Q752 145 700 136 Q677 132 666 148 Q655 163 656 191 Q657 225 658 273 Q659 322 647 368 Q626 268 577 191 Q538 131 473 74 Q459 63 456 66 Q452 70 462 83 Q522 168 542 280 Q555 353 557 500 L557 523 L433 523 L433 506 Q432 461 423 407 Q470 354 485 333 Q515 290 515 258 Q517 225 505 203 Q493 180 470 175 Q450 171 439 184 Q427 198 429 223 Q430 280 430 295 Q429 345 418 382 Q378 206 244 86 Q235 79 232 78 Q233 43 233 8 Q233 -34 235 -66 Q235 -83 213 -91 Q191 -100 160 -101 Q107 -104 110 -71 Q112 -29 113 14 Q117 138 117 165 L117 439 Q117 553 106 609 Q191 583 248 550 L328 550 Q328 631 326 701 Q109 698 77 695 Q60 714 60 741 Q169 732 348 730 L752 730 Q762 744 785 772 Q814 806 829 818 Q833 823 841 819 Q905 780 951 728 Q955 720 952 711 Q949 701 936 701 L663 701 L663 550 ZM557 550 Q557 667 555 701 L434 701 Q434 625 433 550 L557 550 ZM328 523 L231 523 L231 149 Q231 117 232 96 Q284 180 307 288 Q325 377 328 509 L328 523 Z" /><glyph glyph-name="uni4E25" unicode="&#x4e25;" d="M845 587 Q770 504 687 448 Q675 440 671 443 Q667 446 673 459 Q714 542 731 625 Q736 646 739 676 Q813 654 864 624 Q889 608 881 594 Q872 581 845 587 ZM213 491 Q207 525 198 566 Q190 607 164 644 Q156 655 157 658 Q158 663 177 658 Q230 640 268 613 Q314 580 323 541 Q331 512 318 486 Q306 462 283 453 Q260 445 241 453 Q220 462 213 491 ZM654 703 L653 410 L768 410 Q816 480 836 500 Q842 504 848 501 Q909 463 954 407 Q959 400 957 392 Q954 384 941 383 L254 383 Q254 308 253 265 Q247 7 25 -110 Q14 -116 10 -112 Q7 -109 14 -101 Q131 34 128 282 Q128 316 126 370 Q125 402 116 466 Q191 446 267 410 L363 410 L363 703 L305 703 Q147 703 85 696 Q66 715 69 738 Q166 729 329 729 L760 729 Q769 741 790 768 Q811 796 830 814 Q835 818 842 814 Q903 778 948 726 Q953 719 950 712 Q947 703 935 703 L654 703 ZM542 410 L542 703 L474 703 L473 410 L542 410 Z" /><glyph glyph-name="uni4E2A" unicode="&#x4e2a;" d="M557 443 L556 138 Q557 65 558 -7 Q559 -38 560 -68 Q560 -92 520 -103 Q498 -107 478 -107 Q417 -110 420 -72 Q424 -34 424 -1 Q427 131 427 136 L427 349 Q427 444 418 502 Q502 498 568 485 Q589 480 589 466 Q589 450 557 443 ZM549 733 Q712 533 974 442 Q984 436 971 431 Q912 405 891 393 Q851 371 828 346 Q819 335 801 344 Q715 397 643 498 Q575 594 530 718 Q447 578 309 464 Q184 361 41 299 Q20 289 18 295 Q16 300 34 314 Q145 394 241 512 Q336 628 387 746 Q404 783 411 817 Q496 803 571 772 Q593 761 585 746 Q579 733 549 733 Z" /><glyph glyph-name="uni4E2D" unicode="&#x4e2d;" d="M779 558 L561 558 L560 296 L778 296 Q779 324 779 369 L779 558 ZM777 267 L560 267 L560 201 Q561 102 562 3 Q562 -43 564 -67 Q566 -106 487 -110 Q454 -112 440 -105 Q425 -97 427 -73 Q430 -10 430 15 Q435 130 435 198 L435 267 L230 267 L230 218 Q230 207 213 197 Q192 185 154 182 Q128 180 114 189 Q99 198 100 216 Q102 239 104 262 Q108 338 108 397 L108 484 Q108 587 97 643 Q167 624 241 587 L435 587 L435 629 Q435 729 424 808 Q520 806 579 793 Q592 790 598 784 Q605 777 603 770 Q601 752 562 745 L561 587 L765 587 Q794 624 817 642 Q823 646 831 643 Q896 613 929 583 Q942 572 938 559 Q933 543 901 532 L901 377 Q903 319 905 261 Q906 244 906 227 Q907 212 887 202 Q867 192 835 190 Q806 188 790 196 Q774 203 775 218 Q777 228 777 259 L777 267 ZM435 296 L435 558 L229 558 Q229 472 229 386 Q227 367 229 296 L435 296 Z" /><glyph glyph-name="uni4E30" unicode="&#x4e30;" d="M564 629 L732 629 Q774 694 807 723 Q812 727 819 723 Q881 685 930 627 Q937 620 933 610 Q929 599 916 599 L563 599 L563 414 L680 414 Q722 475 751 503 Q757 507 763 504 Q825 469 874 414 Q881 406 877 396 Q873 386 859 386 L563 386 L562 188 L765 188 Q792 230 840 282 Q846 286 852 283 Q914 245 963 188 Q970 180 966 170 Q962 159 949 159 L562 159 Q564 72 565 -15 Q565 -38 567 -74 Q569 -106 484 -110 Q421 -112 424 -75 Q426 -43 428 -11 Q431 106 431 153 L431 159 L319 159 Q129 159 68 153 Q53 165 51 198 Q161 188 345 188 L431 188 L431 386 L385 386 Q227 386 158 378 Q143 396 141 423 Q238 414 411 414 L431 414 L431 599 L349 599 Q159 599 98 592 Q83 607 81 638 Q178 629 375 629 L431 629 L431 645 Q431 752 422 803 Q506 803 577 789 Q603 783 601 768 Q597 750 564 745 L564 629 Z" /><glyph glyph-name="uni4E34" unicode="&#x4e34;" d="M663 442 Q654 487 645 509 Q630 547 603 570 Q592 580 594 582 Q596 585 614 582 Q670 571 710 549 Q758 523 772 484 Q782 458 771 430 Q761 403 737 393 Q713 383 693 394 Q669 406 663 442 ZM183 635 L181 231 Q181 187 183 133 Q184 106 185 79 Q185 69 170 61 Q153 52 121 49 Q77 46 80 74 Q83 125 84 140 Q85 163 85 233 L85 566 Q85 654 78 692 Q144 692 191 678 Q214 671 214 659 Q211 642 183 635 ZM813 316 L735 316 L735 11 L813 11 L813 316 ZM812 -17 L557 -17 L557 -37 Q558 -54 558 -71 Q557 -102 486 -105 Q463 -105 453 -100 Q439 -93 440 -76 Q443 -49 443 -30 Q446 22 446 69 L447 261 Q447 330 437 397 Q502 378 570 344 L803 344 Q828 377 850 395 Q855 400 862 396 Q910 375 951 338 Q962 327 959 315 Q955 301 926 293 L925 61 Q925 7 928 -23 Q930 -45 931 -67 Q931 -81 911 -90 Q893 -98 863 -100 Q840 -102 825 -95 Q810 -89 811 -75 Q812 -71 812 -27 L812 -17 ZM635 11 L635 316 L557 316 L557 11 L635 11 ZM590 652 L790 652 Q820 700 856 740 Q864 746 873 741 Q927 702 965 655 Q972 645 969 636 Q965 626 952 626 L576 626 Q492 474 381 386 Q374 380 369 379 Q365 378 364 381 L364 138 Q364 71 366 1 Q366 -11 369 -71 Q371 -101 296 -106 Q244 -109 246 -71 Q248 -37 250 23 Q250 27 253 127 L253 665 Q253 767 244 811 Q310 811 374 796 Q397 790 396 775 Q395 760 364 755 L364 384 Q364 388 369 396 Q467 567 498 728 Q506 777 505 809 Q579 802 643 777 Q674 765 667 749 Q660 734 629 734 Q609 687 590 652 Z" /><glyph glyph-name="uni4E3A" unicode="&#x4e3a;" d="M253 608 Q245 623 237 645 Q221 686 210 705 Q191 738 160 761 Q147 770 151 774 Q154 777 170 775 Q236 768 283 747 Q332 725 353 691 Q370 665 365 633 Q360 604 339 588 Q321 575 297 577 Q268 580 253 608 ZM552 537 L754 537 Q777 569 805 596 Q812 602 823 596 Q873 572 914 537 Q933 521 927 505 Q921 487 892 482 Q891 390 882 275 Q871 134 854 77 Q812 -75 643 -89 Q614 -93 604 -71 Q592 -37 556 -11 Q518 13 473 36 Q460 42 460 48 Q460 54 479 51 Q510 44 579 36 Q604 34 629 32 Q702 34 726 95 Q731 103 736 123 Q740 139 743 156 Q772 341 770 508 L548 508 Q537 445 524 392 Q649 367 688 306 Q705 281 700 249 Q696 220 676 203 Q656 188 632 191 Q602 194 587 222 Q580 236 571 261 Q546 330 516 362 Q463 184 354 74 Q249 -32 65 -101 Q48 -107 43 -102 Q38 -97 55 -87 Q215 13 299 150 Q385 290 416 508 L358 508 Q225 507 116 501 Q99 520 93 546 Q214 538 369 537 L420 537 Q428 600 432 672 Q437 730 429 809 Q469 807 530 799 Q572 794 587 790 Q611 783 611 768 Q611 751 572 744 Q569 697 565 651 Q560 586 552 537 Z" /><glyph glyph-name="uni4E3B" unicode="&#x4e3b;" d="M566 589 L710 589 Q732 625 784 684 Q790 690 797 684 Q867 636 907 584 Q911 578 909 570 Q907 561 893 560 L480 560 Q545 554 576 547 Q585 545 593 539 Q601 533 601 526 Q600 516 594 511 Q587 505 566 501 L566 311 L667 311 Q669 313 695 349 Q721 385 737 401 Q742 406 750 402 Q810 362 851 311 Q857 302 853 292 Q849 282 837 282 L566 282 L566 -17 L753 -17 Q775 20 828 84 Q833 89 840 84 Q868 64 902 33 Q939 -1 952 -21 Q956 -27 954 -35 Q952 -44 938 -45 L300 -45 Q179 -43 66 -51 Q48 -33 46 -7 Q154 -17 324 -17 L430 -17 L430 282 L369 282 Q222 282 162 276 Q145 292 143 321 Q248 311 395 311 L430 311 L430 433 Q428 516 421 560 L341 560 Q220 563 113 554 Q95 574 94 598 Q191 589 366 589 L430 589 L430 696 Q430 758 421 806 Q505 806 576 795 Q609 787 606 772 Q604 755 567 748 L566 589 Z" /><glyph glyph-name="uni4E3E" unicode="&#x4e3e;" d="M312 590 Q289 578 266 588 Q244 598 236 623 Q209 717 169 763 Q157 776 159 780 Q161 783 178 781 Q237 776 282 752 Q329 727 343 689 Q354 661 345 632 Q336 603 312 590 ZM514 594 Q488 583 465 599 Q445 613 440 640 Q428 704 425 715 Q414 755 394 782 Q383 796 386 798 Q387 801 403 799 Q461 788 503 760 Q546 731 558 691 Q567 661 555 633 Q542 604 514 594 ZM630 520 Q705 444 785 400 Q870 353 979 332 Q985 330 985 327 Q985 323 979 320 Q961 310 942 301 Q882 269 861 240 Q848 227 832 235 Q769 270 708 349 Q652 422 606 520 L448 520 Q292 269 32 175 Q21 171 16 174 Q9 176 25 188 Q212 328 299 520 Q137 520 74 513 Q56 530 57 555 Q154 546 321 546 L591 546 Q640 648 661 738 Q669 776 672 812 Q756 790 818 761 Q845 744 834 730 Q825 716 793 720 Q706 612 623 546 L764 546 Q787 577 836 631 Q842 635 848 632 Q914 592 955 544 Q959 538 957 530 Q954 521 940 520 L630 520 ZM552 98 L552 73 Q552 12 554 -32 Q556 -46 556 -76 Q557 -88 542 -97 Q522 -109 482 -111 Q424 -114 427 -80 Q429 -62 431 -36 Q434 13 434 74 L434 98 L369 98 Q269 99 135 92 Q120 107 119 132 Q200 123 394 123 L434 123 L434 251 Q314 251 264 245 Q245 264 248 286 Q309 280 434 278 L434 327 Q434 387 426 434 Q513 430 568 420 Q588 415 588 403 Q586 387 552 379 L552 278 L596 278 Q623 325 651 350 Q656 355 663 351 Q705 326 745 274 Q750 267 747 260 Q744 251 731 251 L552 251 L552 123 L709 123 Q742 176 774 205 Q779 210 786 206 Q847 169 888 121 Q893 114 890 107 Q887 98 874 98 L552 98 Z" /><glyph glyph-name="uni4E45" unicode="&#x4e45;" d="M616 419 Q653 287 750 180 Q847 73 969 29 Q980 24 979 19 Q977 14 968 11 Q867 -28 832 -66 Q816 -77 805 -69 Q726 -18 669 108 Q611 236 601 383 Q439 14 54 -96 Q34 -101 32 -95 Q30 -90 47 -82 Q239 4 362 187 Q486 372 532 621 L412 621 Q294 364 97 234 Q83 225 78 228 Q73 231 85 244 Q168 335 228 471 Q279 586 308 723 Q317 763 317 808 Q403 795 479 765 Q505 752 498 736 Q490 717 453 720 Q438 679 425 650 L529 650 Q558 686 586 704 Q590 706 597 704 Q652 677 701 633 Q717 616 713 604 Q708 587 668 581 Q648 500 616 419 Z" /><glyph glyph-name="uni4E48" unicode="&#x4e48;" d="M468 690 Q313 411 96 277 Q84 270 80 274 Q77 278 85 288 Q162 380 226 496 Q286 605 316 701 Q327 738 335 792 Q425 771 499 731 Q521 718 515 701 Q506 683 468 690 ZM762 88 Q506 6 237 -46 Q238 -84 224 -90 Q210 -96 192 -64 Q151 11 138 81 Q177 77 211 82 Q250 88 274 106 Q295 122 328 168 Q429 303 505 473 Q527 528 531 578 Q614 553 694 512 Q716 499 709 483 Q704 469 665 471 Q601 375 503 262 Q418 165 332 83 Q545 94 751 120 Q710 227 639 311 Q627 327 632 330 Q637 333 655 323 Q742 278 817 212 Q904 136 924 72 Q939 22 924 -15 Q910 -48 877 -63 Q843 -79 816 -56 Q791 -35 783 6 Q774 46 762 88 Z" /><glyph glyph-name="uni4E49" unicode="&#x4e49;" d="M332 776 Q320 784 323 788 Q327 793 347 790 Q406 780 454 758 Q509 733 535 699 Q556 671 551 635 Q546 598 517 582 Q492 568 467 576 Q438 586 426 621 Q407 675 394 701 Q368 752 332 776 ZM569 209 Q745 86 958 63 Q972 61 971 55 Q970 49 958 44 Q907 19 879 1 Q837 -26 819 -56 Q807 -72 785 -65 Q617 -7 490 124 Q323 -30 49 -96 Q29 -100 25 -94 Q21 -88 41 -80 Q278 18 427 197 Q303 359 249 574 Q241 606 222 620 Q202 633 182 643 Q167 652 179 665 Q193 681 229 678 Q252 677 278 601 Q340 413 487 277 Q591 434 632 635 Q644 692 648 752 Q750 725 805 697 Q834 684 830 665 Q826 646 784 649 Q703 372 569 209 Z" /><glyph glyph-name="uni4E4B" unicode="&#x4e4b;" d="M537 601 L665 602 Q698 641 723 657 Q730 662 738 657 Q767 642 799 619 Q838 591 857 570 Q874 549 866 535 Q856 517 811 515 Q592 280 309 121 Q391 59 539 54 Q625 51 760 62 Q874 72 958 85 Q965 87 967 81 Q969 76 960 69 Q928 43 902 13 Q869 -24 858 -52 Q852 -66 830 -68 Q688 -76 551 -70 Q435 -63 352 -1 Q266 63 226 179 Q225 173 223 168 Q203 81 167 -33 Q182 -58 173 -74 Q166 -88 141 -71 Q76 -25 31 35 Q71 54 125 109 Q174 159 204 205 Q205 213 205 221 Q210 230 222 230 Q233 230 239 225 Q245 220 243 211 Q241 202 237 198 Q259 166 290 137 Q393 220 498 342 Q595 456 667 571 L397 571 Q250 573 125 561 Q108 583 102 611 Q229 599 412 601 L412 671 Q412 730 402 787 Q482 789 548 777 Q577 770 575 755 Q573 740 539 731 L537 601 Z" /><glyph glyph-name="uni4E4E" unicode="&#x4e4e;" d="M242 426 Q216 546 160 605 Q149 616 152 618 Q156 621 172 617 Q233 601 285 567 Q342 529 358 487 Q372 455 362 422 Q351 387 320 375 Q294 364 274 376 Q251 389 242 426 ZM631 363 Q618 353 614 355 Q610 358 618 372 Q659 443 700 572 Q712 616 715 641 Q793 617 851 583 Q875 568 870 553 Q862 537 828 543 Q737 435 631 363 ZM564 303 L564 185 Q564 162 569 52 Q572 -11 532 -53 Q488 -99 403 -105 Q376 -107 368 -89 Q354 -61 319 -41 Q280 -18 220 8 Q203 16 204 22 Q205 28 223 26 Q325 15 366 15 Q401 16 420 30 Q442 46 442 77 L442 303 L326 303 Q138 303 65 296 Q49 309 47 341 Q164 332 349 331 L442 331 L442 656 Q263 645 101 649 Q85 650 83 657 Q81 664 97 665 Q230 679 378 710 Q504 736 601 766 Q660 785 707 812 Q773 768 823 716 Q843 692 827 684 Q809 673 778 689 Q688 676 564 665 L564 331 L767 331 Q815 405 842 427 Q847 432 854 428 Q916 390 968 331 Q975 323 971 313 Q967 303 953 303 L564 303 Z" /><glyph glyph-name="uni4E50" unicode="&#x4e50;" d="M383 215 Q399 202 393 193 Q388 176 351 184 Q241 46 64 -31 Q48 -38 45 -33 Q42 -29 54 -19 Q168 87 230 220 Q240 242 249 277 Q341 246 383 215 ZM867 -7 Q839 -25 811 -8 Q786 7 774 42 Q722 172 632 242 Q619 251 622 255 Q625 258 639 256 Q715 240 781 206 Q858 167 886 118 Q908 84 902 47 Q896 11 867 -7 ZM570 352 L570 131 Q570 121 574 21 Q577 -26 537 -63 Q494 -103 419 -109 Q399 -110 391 -95 Q382 -73 366 -60 Q337 -32 262 2 Q250 7 251 13 Q252 19 265 18 Q316 11 387 7 Q410 7 428 19 Q451 34 451 65 L451 352 L266 352 Q248 327 219 300 Q211 295 202 299 Q149 323 107 360 Q92 376 101 387 Q110 398 140 405 L201 637 Q215 702 217 750 Q285 731 341 701 Q347 698 352 693 Q496 726 608 768 Q663 792 683 807 Q738 770 795 710 Q820 683 804 671 Q789 660 747 680 Q577 658 327 659 L256 381 L451 381 L451 478 Q451 548 443 602 Q522 599 586 588 Q606 583 608 570 Q608 552 573 544 L570 429 L570 381 L723 381 Q748 421 795 470 Q800 474 806 471 Q871 430 917 376 Q921 369 918 361 Q915 352 903 352 L570 352 Z" /><glyph glyph-name="uni4E5D" unicode="&#x4e5d;" d="M471 539 L581 539 Q613 581 634 595 Q639 600 646 596 Q699 569 742 528 Q757 514 752 501 Q746 487 712 477 Q689 231 689 91 Q690 63 700 52 Q709 42 732 39 Q777 33 811 43 Q844 53 865 107 Q890 175 906 249 Q911 265 918 266 Q925 267 924 248 Q920 179 915 110 Q914 91 919 82 Q922 75 934 67 Q963 51 960 14 Q959 -27 922 -51 Q894 -68 841 -74 Q762 -84 687 -77 Q613 -70 586 -33 Q561 1 563 80 Q565 178 589 509 L468 509 Q467 495 465 469 Q443 252 349 118 Q254 -18 64 -98 Q46 -106 42 -101 Q38 -96 55 -84 Q174 0 239 111 Q305 224 329 389 Q338 443 341 509 Q174 509 110 501 Q93 522 91 549 Q157 543 343 539 Q348 628 346 691 Q349 754 339 800 Q422 798 492 788 Q521 781 518 764 Q514 747 480 742 Q479 669 471 539 Z" /><glyph glyph-name="uni4E5F" unicode="&#x4e5f;" d="M575 240 Q576 228 576 216 Q577 186 578 156 Q578 146 566 136 Q551 123 505 119 Q448 115 451 152 Q454 174 454 215 Q456 285 456 367 L456 478 L320 426 L317 89 Q318 41 372 34 Q561 14 742 40 Q818 54 849 107 Q879 160 905 263 Q911 278 919 276 Q924 275 924 261 Q919 187 913 114 Q913 94 929 85 Q964 66 964 32 Q962 -19 918 -41 Q881 -62 812 -69 Q585 -95 354 -79 Q274 -71 236 -39 Q191 -1 194 79 L196 376 Q90 332 68 320 Q45 336 34 358 Q83 372 196 410 L197 589 Q197 705 187 745 Q268 744 332 728 Q361 723 360 708 Q362 690 323 681 L321 456 L456 509 L457 679 Q457 746 447 812 Q525 810 585 797 Q609 790 608 777 Q608 760 574 752 L573 554 L719 611 Q732 639 752 668 Q758 674 765 672 Q826 658 866 629 Q882 618 877 604 Q872 590 849 580 Q851 504 849 432 Q844 314 828 258 Q817 218 788 188 Q751 149 691 140 Q681 138 671 142 Q660 147 658 156 Q652 182 633 198 Q616 216 575 240 ZM575 257 Q641 247 646 247 Q705 247 719 308 Q730 350 733 444 Q735 523 731 584 L573 523 L573 369 Q574 313 575 257 Z" /><glyph glyph-name="uni4E60" unicode="&#x4e60;" d="M489 402 Q433 368 394 430 Q334 533 212 586 Q200 591 201 595 Q203 601 220 602 Q304 597 378 577 Q463 554 494 522 Q519 497 518 460 Q517 424 489 402 ZM226 119 Q235 92 226 78 Q216 63 189 91 Q149 143 107 230 Q147 233 181 241 Q413 294 650 381 Q670 388 672 382 Q674 376 658 363 Q463 226 226 119 ZM753 692 L357 692 Q175 692 122 685 Q106 704 103 730 Q180 721 381 721 L742 721 Q778 772 792 786 Q796 789 803 787 Q892 741 912 722 Q932 703 906 682 Q897 674 877 669 Q877 634 877 600 Q875 413 871 338 Q864 194 843 109 Q821 5 755 -51 Q699 -99 607 -104 Q577 -105 570 -83 Q563 -57 527 -34 Q494 -11 426 14 Q409 21 410 28 Q411 35 429 32 Q479 24 543 19 Q573 17 583 17 Q694 14 724 134 Q744 215 750 354 Q753 419 754 621 Q754 656 753 692 Z" /><glyph glyph-name="uni4E61" unicode="&#x4e61;" d="M678 329 Q690 353 698 373 Q719 423 728 482 Q807 456 870 416 Q901 393 886 377 Q874 365 843 371 Q795 261 737 186 Q629 48 456 -21 Q302 -83 57 -105 Q44 -106 42 -99 Q39 -92 52 -89 Q282 -29 423 57 Q569 146 650 279 Q499 236 284 199 Q282 164 268 159 Q252 154 237 189 Q213 239 198 322 Q261 318 306 334 Q334 344 363 366 Q444 423 548 527 Q430 497 240 466 Q238 434 225 430 Q211 425 198 456 Q176 510 163 575 Q223 572 256 583 Q283 590 305 612 Q360 673 395 741 Q410 779 412 807 Q500 777 565 736 Q587 720 576 706 Q564 692 530 701 Q445 622 331 562 Q419 563 594 575 Q629 613 644 636 Q674 679 684 710 Q769 666 820 618 Q845 593 824 580 Q810 571 778 585 Q584 420 371 310 Q506 315 678 329 Z" /><glyph glyph-name="uni4E66" unicode="&#x4e66;" d="M677 757 Q668 763 671 767 Q674 772 686 771 Q765 762 828 738 Q913 705 931 657 Q948 604 917 569 Q897 548 866 551 Q834 554 821 584 Q771 700 677 757 ZM725 357 L779 357 Q809 390 833 407 Q838 411 845 408 Q902 382 941 347 Q953 334 951 323 Q948 307 915 299 Q912 194 889 122 Q853 0 718 -6 Q692 -8 687 10 Q679 43 649 65 Q627 82 576 105 Q554 114 556 120 Q558 127 579 123 Q648 112 689 112 Q749 112 765 160 Q786 221 789 329 L505 329 L505 201 Q505 123 507 3 Q507 -43 509 -67 Q510 -83 494 -94 Q475 -107 432 -110 Q399 -112 385 -104 Q370 -96 372 -72 Q374 -29 376 15 Q378 107 380 199 L380 329 L228 329 Q113 329 60 322 Q42 339 41 366 Q104 357 243 357 L380 357 L380 579 L316 579 Q201 579 148 572 Q127 589 129 614 Q190 605 331 605 L380 605 L380 631 Q380 731 369 810 Q465 808 524 795 Q552 788 549 770 Q544 754 507 747 L506 605 L635 605 Q669 649 683 658 Q689 663 698 659 Q749 635 787 603 Q799 591 797 582 Q794 565 758 559 L725 357 ZM641 579 L506 579 L506 357 L605 357 L641 579 Z" /><glyph glyph-name="uni4E70" unicode="&#x4e70;" d="M233 615 Q222 622 224 625 Q226 628 240 629 Q370 632 426 590 Q449 574 454 543 Q459 513 443 493 Q424 466 394 467 Q363 469 348 499 Q331 535 307 560 Q278 592 233 615 ZM162 449 Q151 455 153 458 Q155 462 169 462 Q301 465 361 421 Q385 404 390 373 Q395 344 380 322 Q359 292 326 294 Q293 296 277 330 Q258 368 236 393 Q208 424 162 449 ZM884 656 Q800 580 713 534 Q694 522 695 532 Q694 536 698 547 Q747 634 765 700 L373 700 Q179 700 106 693 Q89 710 89 737 Q218 729 394 728 L763 728 Q785 757 811 780 Q818 786 829 780 Q894 745 924 715 Q946 696 946 677 Q944 649 884 656 ZM597 260 L766 260 Q781 282 795 304 Q818 340 833 354 Q843 357 852 354 Q913 311 952 263 Q962 251 958 242 Q954 233 941 233 L589 233 Q574 189 549 146 Q552 145 554 145 Q785 119 867 43 Q898 15 896 -29 Q894 -70 868 -91 Q842 -112 813 -102 Q786 -93 765 -62 Q724 3 686 41 Q632 95 551 133 Q548 135 544 137 Q478 29 357 -30 Q242 -86 61 -107 Q41 -108 40 -103 Q38 -97 54 -92 Q228 -36 320 34 Q420 111 463 233 L270 233 Q132 233 82 226 Q64 244 60 268 Q136 260 295 260 L471 260 Q497 351 502 479 Q506 575 496 656 Q574 656 645 645 Q671 641 671 626 Q673 609 633 602 Q635 521 629 452 Q621 340 597 260 Z" /><glyph glyph-name="uni4E71" unicode="&#x4e71;" d="M929 97 Q928 74 944 63 Q973 48 973 18 Q973 -27 936 -49 Q910 -64 860 -71 Q765 -84 689 -71 Q650 -64 629 -37 Q606 -8 607 41 L607 651 Q607 742 599 788 Q690 783 731 772 Q756 766 756 752 Q757 737 722 729 L720 84 Q720 58 727 46 Q734 35 751 32 Q789 28 819 35 Q856 42 873 86 Q888 128 898 166 Q906 198 922 260 Q927 277 933 275 Q938 274 938 259 Q934 189 929 97 ZM403 245 L228 245 L226 102 Q226 45 227 17 L402 17 Q403 51 403 86 L403 245 ZM402 -8 L228 -8 Q229 -17 229 -25 Q229 -43 229 -60 Q229 -90 158 -96 Q135 -97 123 -90 Q109 -82 110 -65 Q111 -60 113 -19 Q116 77 116 96 L116 197 Q116 280 109 323 Q166 308 232 269 L257 269 L257 462 L240 462 Q119 462 62 455 Q51 465 42 497 Q128 488 249 488 L257 488 L257 639 Q169 628 77 624 Q54 624 54 631 Q56 637 71 641 Q257 688 364 750 Q405 771 433 798 Q494 757 533 711 Q554 685 537 676 Q526 668 497 683 Q432 668 370 656 L370 488 L411 488 Q447 550 473 576 Q478 581 484 577 Q540 538 583 486 Q588 479 585 471 Q581 462 568 462 L370 462 L370 269 L398 269 Q426 307 441 320 Q446 324 454 321 Q499 302 536 267 Q549 257 545 245 Q540 230 512 223 L512 94 Q512 56 515 -1 Q515 -25 517 -47 Q518 -75 446 -81 Q398 -84 400 -53 Q400 -34 402 -8 Z" /><glyph glyph-name="uni4E86" unicode="&#x4e86;" d="M580 519 Q588 517 591 516 Q618 508 617 493 Q615 476 579 469 L578 182 Q580 123 582 64 Q584 1 540 -42 Q495 -86 416 -96 Q383 -99 373 -78 Q357 -44 326 -27 Q304 -13 219 20 Q199 29 199 36 Q199 43 223 40 Q301 30 381 30 Q413 30 431 46 Q450 63 450 96 L450 386 Q450 489 441 536 Q481 535 525 528 Q628 625 678 691 L405 691 Q275 690 132 682 Q119 694 112 729 Q208 720 406 720 L682 720 Q729 771 745 782 Q753 786 761 781 Q833 745 887 699 Q919 667 897 648 Q879 635 844 644 Q711 569 580 519 Z" /><glyph glyph-name="uni4E89" unicode="&#x4e89;" d="M828 383 L844 383 Q869 435 894 470 Q900 476 907 471 Q947 439 982 386 Q989 375 985 365 Q980 355 966 355 L828 355 L827 308 Q827 259 831 211 Q833 188 834 166 Q839 129 759 123 Q700 119 702 153 Q702 173 703 182 L566 182 L566 146 Q568 94 569 43 Q571 -17 529 -59 Q486 -102 408 -112 Q374 -115 367 -94 Q356 -66 329 -48 Q299 -26 228 -1 Q212 5 211 12 Q210 20 234 17 Q324 8 373 8 Q401 8 422 24 Q444 41 444 65 L444 182 L401 182 Q217 182 171 175 Q159 193 155 218 Q286 210 417 209 L444 209 L444 355 L335 355 Q108 355 64 348 Q47 368 44 395 Q176 385 364 383 L444 383 L444 523 L418 523 Q276 523 236 517 Q231 521 225 535 Q146 474 66 436 Q49 428 46 432 Q42 436 56 449 Q126 509 193 600 Q252 680 291 758 Q312 799 318 831 Q415 811 461 790 Q487 777 477 763 Q470 750 440 755 Q430 741 419 727 L553 727 Q576 753 602 771 Q609 776 618 771 Q672 741 716 704 Q730 690 729 680 Q728 669 714 662 Q699 655 674 653 Q599 594 514 550 L697 550 Q725 583 746 599 Q751 603 762 599 Q811 578 851 545 Q866 530 863 518 Q859 504 830 496 L828 383 ZM705 355 L565 355 L566 209 L703 209 Q704 249 705 289 L705 355 ZM705 383 L705 523 L565 523 L565 383 L705 383 ZM476 550 Q518 614 551 699 L396 699 Q332 624 252 556 Q343 553 434 550 L476 550 Z" /><glyph glyph-name="uni4E8B" unicode="&#x4e8b;" d="M829 211 L829 190 Q829 137 831 109 Q832 92 833 76 Q835 62 816 52 Q798 42 765 40 Q710 37 710 66 Q711 79 711 93 L560 93 Q560 87 563 33 Q568 -92 411 -113 Q390 -116 382 -112 Q374 -108 368 -93 Q356 -63 329 -48 Q292 -24 236 -5 Q213 5 217 12 Q220 17 241 14 Q293 6 374 4 Q440 5 442 58 L442 93 L379 93 Q215 93 177 87 Q163 104 161 127 Q278 119 394 119 L442 119 L442 211 L351 211 Q122 211 62 203 Q48 222 45 248 Q194 238 376 237 L442 237 L442 325 L396 325 Q225 325 184 320 Q170 337 167 361 Q288 353 409 352 L442 352 L442 440 L303 440 L303 426 Q305 396 233 392 Q179 390 182 424 Q184 441 186 459 Q188 485 188 514 L188 551 Q188 598 181 639 Q242 626 312 592 L442 592 L442 666 L358 666 Q138 666 75 659 Q61 678 58 703 Q130 694 383 694 L442 694 Q440 766 432 815 Q531 813 576 800 Q605 793 598 777 Q592 762 560 757 L560 694 L774 694 Q804 736 845 779 Q849 783 856 779 Q919 743 960 695 Q968 687 965 677 Q962 666 944 666 L560 666 L559 592 L695 592 Q720 621 741 635 Q748 640 754 635 Q804 616 843 587 Q857 574 851 562 Q845 551 819 544 L819 504 Q820 486 821 468 Q823 450 823 442 Q825 428 806 417 Q787 406 757 405 Q701 402 703 434 L703 440 L559 440 L559 352 L700 352 Q728 386 752 402 Q756 404 758 403 Q760 404 763 404 Q815 383 849 353 Q862 344 859 331 Q856 317 829 310 L829 237 L842 237 Q857 270 889 311 Q893 317 900 312 Q941 281 974 236 Q979 229 975 220 Q971 211 957 211 L829 211 ZM712 211 L558 211 L558 167 Q558 136 559 119 L711 119 Q712 137 712 173 L712 211 ZM712 237 L712 325 L559 325 L558 237 L712 237 ZM704 567 L559 567 L559 467 L704 467 L704 567 ZM442 467 L442 567 L301 567 L301 509 Q301 481 302 467 L442 467 Z" /><glyph glyph-name="uni4E8C" unicode="&#x4e8c;" d="M845 576 L461 576 Q224 576 153 569 Q135 588 134 615 Q260 607 484 606 L643 606 Q676 659 726 713 Q732 717 738 714 Q766 697 804 663 Q845 626 858 603 Q863 595 860 586 Q857 576 845 576 ZM932 48 L396 48 Q141 48 70 41 Q52 62 51 90 Q186 81 419 79 L720 79 Q756 133 810 190 Q814 194 821 191 Q849 174 889 138 Q929 101 945 76 Q950 68 947 59 Q944 48 932 48 Z" /><glyph glyph-name="uni4E8E" unicode="&#x4e8e;" d="M571 399 L571 188 Q573 121 574 55 Q576 -8 532 -52 Q487 -97 408 -104 Q379 -107 370 -90 Q358 -59 329 -42 Q276 -9 207 18 Q192 24 193 30 Q194 36 210 35 Q309 24 363 25 Q395 26 415 39 Q438 54 438 80 L438 399 L362 399 Q133 399 63 392 Q47 410 45 435 Q178 428 384 427 L438 427 L438 689 L374 689 Q210 689 140 682 Q121 700 122 726 Q219 717 396 717 L685 717 Q711 769 762 811 Q768 815 774 811 Q844 767 889 714 Q895 707 891 698 Q887 689 875 689 L570 689 Q571 614 571 427 L746 427 Q757 445 779 472 Q807 507 829 526 Q834 530 841 526 Q920 476 962 426 Q967 418 964 409 Q960 399 948 399 L571 399 Z" /><glyph glyph-name="uni4E91" unicode="&#x4e91;" d="M811 668 L393 668 Q240 668 169 661 Q153 678 152 707 Q255 697 420 697 L629 697 Q660 746 702 788 Q706 792 715 788 Q774 754 823 698 Q830 689 827 679 Q824 668 811 668 ZM708 78 Q469 -9 233 -54 Q233 -85 219 -94 Q206 -102 193 -80 Q152 -1 133 82 Q168 80 201 84 Q236 88 258 105 Q278 121 297 156 Q347 247 378 354 Q383 375 389 413 L325 413 Q143 413 72 406 Q56 417 54 451 Q164 443 351 442 L741 442 Q767 490 818 544 Q823 548 829 544 Q854 529 892 498 Q932 464 947 443 Q954 434 950 424 Q946 413 933 413 L450 413 Q534 394 568 377 Q594 363 583 350 Q575 337 539 339 Q433 190 316 84 Q466 93 690 116 Q643 208 585 262 Q573 273 578 277 Q582 281 595 276 Q685 246 767 186 Q851 124 875 67 Q893 27 883 -13 Q873 -54 837 -71 Q806 -85 780 -68 Q756 -52 745 -19 Q733 22 708 78 Z" /><glyph glyph-name="uni4E92" unicode="&#x4e92;" d="M693 -2 L757 -2 Q785 42 834 98 Q838 101 846 99 Q912 55 959 -3 Q966 -11 962 -21 Q958 -31 945 -31 L300 -31 Q123 -31 54 -39 Q38 -21 36 7 Q128 -2 327 -2 L564 -2 L596 218 L351 218 Q328 186 307 166 Q297 154 282 160 Q223 183 185 222 Q172 236 181 250 Q191 264 224 273 Q278 466 314 687 Q147 684 100 679 Q84 696 82 725 Q164 715 366 715 L707 715 Q734 756 785 810 Q790 813 797 811 Q861 769 909 715 Q916 707 912 697 Q908 687 895 687 L440 687 Q424 604 407 522 L624 522 Q652 553 682 576 Q689 580 694 576 Q750 546 794 503 Q806 489 798 477 Q789 464 759 460 L693 -2 ZM635 493 L400 493 Q369 344 342 247 L600 247 L635 493 Z" /><glyph glyph-name="uni4E94" unicode="&#x4e94;" d="M772 -2 L794 -2 Q821 48 858 93 Q863 98 869 94 Q896 73 920 48 Q949 18 958 -4 Q963 -13 960 -22 Q957 -31 944 -31 L311 -31 Q126 -31 57 -39 Q41 -26 39 7 Q95 2 289 -2 Q330 240 350 390 Q208 390 149 383 Q133 403 131 429 Q212 421 354 419 Q370 535 384 672 L354 672 Q164 672 103 665 Q89 682 86 710 Q194 702 380 701 L699 701 Q729 750 776 801 Q781 804 788 802 Q850 761 898 700 Q904 692 900 682 Q896 672 883 672 L514 672 Q497 536 482 419 L649 419 Q675 452 702 474 Q708 478 714 475 Q768 451 817 410 Q831 397 826 385 Q820 370 787 361 L772 -2 ZM663 390 L478 390 Q447 165 419 -2 L648 -2 L663 390 Z" /><glyph glyph-name="uni4E9A" unicode="&#x4e9a;" d="M184 237 Q177 327 164 383 Q147 460 110 525 Q101 539 106 541 Q110 543 123 534 Q195 479 242 416 Q294 346 303 282 Q309 244 298 212 Q286 176 257 165 Q228 155 210 170 Q189 187 184 237 ZM674 152 Q665 141 661 144 Q657 147 662 160 Q730 335 752 484 Q758 512 758 556 Q844 535 903 501 Q923 489 921 473 Q919 456 882 457 Q809 311 674 152 ZM656 -16 L764 -16 Q792 29 839 81 Q845 85 852 82 Q918 39 965 -19 Q970 -26 967 -35 Q963 -45 950 -45 L321 -45 Q127 -45 58 -52 Q39 -34 39 -6 Q116 -16 331 -16 L331 689 Q167 689 93 682 Q77 698 75 727 Q183 718 359 717 L712 717 Q740 760 790 812 Q796 817 802 813 Q866 772 913 717 Q919 708 916 699 Q912 689 900 689 L656 689 L656 -16 ZM541 -16 L541 689 L445 689 L445 -16 L541 -16 Z" /><glyph glyph-name="uni4E9B" unicode="&#x4e9b;" d="M832 172 Q837 165 833 156 Q829 147 817 147 L417 147 Q262 149 183 140 Q165 158 165 185 Q241 176 434 176 L632 176 Q657 216 706 266 Q711 271 718 267 Q741 256 782 221 Q820 189 832 172 ZM939 -19 Q944 -26 941 -34 Q938 -43 925 -43 L363 -43 Q160 -43 86 -50 Q68 -32 67 -4 Q146 -13 379 -13 L734 -13 Q759 28 808 80 Q814 85 822 81 Q895 34 939 -19 ZM663 554 Q736 613 779 669 Q800 697 811 720 Q875 673 910 625 Q924 603 912 594 Q899 587 877 602 Q785 558 663 528 L662 443 Q662 419 671 407 Q679 397 698 393 Q756 385 809 399 Q852 412 871 449 Q884 479 902 539 Q906 552 912 552 Q919 552 918 536 Q913 488 915 456 Q913 434 926 429 Q950 420 955 380 Q955 338 917 317 Q887 302 846 296 Q744 282 647 295 Q553 308 556 415 L558 694 Q556 775 551 804 Q615 801 676 790 Q697 786 697 772 Q697 754 664 747 L663 554 ZM402 395 Q462 402 531 412 Q550 414 552 409 Q553 402 537 394 Q383 322 130 254 Q129 224 116 217 Q104 211 88 236 Q57 291 39 376 Q66 373 104 373 Q121 373 130 374 L130 583 Q130 655 122 702 Q191 700 242 688 Q261 684 261 670 Q259 654 228 648 L228 379 Q249 380 295 384 L295 679 Q295 732 286 800 Q355 798 416 789 Q435 783 435 771 Q435 753 402 747 L402 581 L423 581 Q442 623 469 656 Q474 661 481 656 Q521 621 543 583 Q550 569 547 562 Q544 555 531 555 L402 555 L402 395 Z" /><glyph glyph-name="uni4EA4" unicode="&#x4ea4;" d="M91 267 Q75 263 73 267 Q71 272 83 280 Q214 371 296 525 Q314 563 319 587 Q402 559 459 523 Q476 509 469 496 Q459 482 429 489 Q283 330 91 267 ZM757 359 Q690 486 582 548 Q564 560 568 564 Q571 567 593 563 Q806 519 859 446 Q877 419 878 388 Q879 354 857 331 Q831 307 800 318 Q772 328 757 359 ZM588 141 Q742 55 963 33 Q972 32 973 29 Q971 22 960 16 Q855 -37 812 -82 Q801 -93 785 -88 Q627 -37 519 74 Q347 -68 59 -105 Q34 -107 33 -100 Q33 -95 51 -90 Q301 -27 454 151 Q406 217 368 303 Q356 333 323 343 Q312 345 316 357 Q320 369 336 373 Q360 379 377 350 Q420 266 495 204 Q533 257 566 321 Q588 365 594 413 Q681 378 727 350 Q753 335 746 320 Q741 304 703 307 Q652 211 588 141 ZM561 647 L736 647 Q743 659 767 691 Q796 730 810 742 Q815 746 821 742 Q840 733 882 696 Q924 660 934 644 Q939 637 936 628 Q932 617 920 617 L321 617 Q175 619 93 611 Q76 629 76 656 Q166 647 345 647 L436 647 L436 690 Q436 754 426 804 Q524 804 573 794 Q603 786 601 770 Q599 753 564 746 L561 647 Z" /><glyph glyph-name="uni4EA7" unicode="&#x4ea7;" d="M448 537 Q459 512 451 485 Q443 457 418 446 Q395 434 375 441 Q352 449 341 481 Q335 507 324 541 Q313 575 277 610 Q267 620 271 623 Q274 626 288 623 Q420 604 448 537 ZM582 418 L770 418 Q810 478 845 509 Q849 513 857 509 Q925 467 963 419 Q969 411 966 402 Q962 392 949 392 L258 392 Q259 346 259 300 Q259 26 54 -102 Q41 -110 37 -107 Q33 -104 40 -94 Q100 -14 123 84 Q142 165 142 293 Q142 389 127 472 Q202 453 270 418 L544 418 Q584 506 600 566 Q610 611 612 638 Q712 616 754 592 Q776 579 771 566 Q764 550 729 554 Q659 484 582 418 ZM571 675 L711 675 Q734 714 780 760 Q785 765 791 760 Q858 720 897 672 Q902 665 899 657 Q896 649 884 649 L371 649 Q195 649 131 643 Q113 660 114 685 Q198 675 386 675 L448 675 L448 726 Q448 766 438 815 Q518 815 582 805 Q611 799 612 786 Q614 778 605 771 Q595 763 573 759 L571 675 Z" /><glyph glyph-name="uni4EAC" unicode="&#x4eac;" d="M788 -10 Q730 99 626 159 Q618 163 616 166 Q613 169 615 171 Q619 174 635 172 Q722 162 791 137 Q862 111 893 76 Q918 48 915 10 Q912 -28 886 -45 Q856 -64 829 -53 Q803 -43 788 -10 ZM36 -77 Q19 -81 17 -76 Q15 -71 28 -63 Q92 -23 150 40 Q198 93 229 146 Q244 168 256 198 Q332 167 383 130 Q401 115 393 103 Q382 90 349 98 Q285 38 212 -5 Q123 -58 36 -77 ZM669 492 L328 492 Q328 440 327 389 Q328 344 328 300 L668 300 Q669 339 669 378 L669 492 ZM668 273 L569 273 L569 137 Q569 132 573 32 Q576 -24 540 -60 Q499 -101 416 -105 Q398 -107 391 -91 Q379 -64 358 -47 Q333 -27 281 -6 Q269 -1 268 4 Q268 11 284 10 Q327 5 386 3 Q410 2 426 12 Q447 25 447 53 L447 273 L328 273 Q329 264 329 253 Q329 220 256 216 Q232 214 217 221 Q199 229 201 245 Q205 261 205 292 Q208 367 208 385 L208 434 Q208 510 198 563 Q256 551 320 520 L666 520 Q693 547 708 558 Q712 561 720 558 Q775 536 815 502 Q830 490 826 478 Q821 464 791 457 L791 372 Q791 334 793 292 Q795 270 795 252 Q796 221 725 216 Q664 212 667 244 Q667 260 668 273 ZM562 655 L750 655 Q793 719 824 748 Q829 753 836 749 Q903 705 945 652 Q951 644 948 636 Q945 626 932 626 L321 626 Q127 626 66 620 Q46 639 49 664 Q123 655 338 655 L436 655 L436 709 Q436 759 427 809 Q500 811 572 798 Q604 791 602 776 Q600 759 563 752 L562 655 Z" /><glyph glyph-name="uni4EAE" unicode="&#x4eae;" d="M638 568 L360 568 L360 498 Q361 482 361 467 L638 467 L638 568 ZM637 440 L361 440 Q362 433 362 419 Q362 392 288 389 Q261 388 250 396 Q239 403 241 417 Q246 462 246 501 L246 548 Q246 595 237 642 Q293 633 370 595 L628 595 Q655 626 679 641 Q684 644 690 641 Q736 624 778 590 Q794 578 786 566 Q779 554 754 549 L754 507 Q754 476 758 424 Q759 413 743 405 Q724 396 686 395 Q656 394 645 401 Q635 407 636 420 Q636 433 637 440 ZM561 694 L747 694 Q755 707 774 733 Q800 768 816 781 Q822 785 828 782 Q896 743 937 691 Q942 683 939 676 Q936 668 924 668 L366 668 Q164 668 100 662 Q81 679 83 703 Q159 694 382 694 L436 694 L436 721 Q436 767 426 813 Q517 813 570 803 Q604 798 601 781 Q597 764 561 757 L561 694 ZM546 215 L441 215 Q443 181 438 142 Q424 15 313 -47 Q225 -96 59 -109 Q40 -110 38 -105 Q35 -99 52 -95 Q175 -69 246 -4 Q319 63 325 163 Q328 211 317 291 Q375 279 448 240 L537 240 Q562 269 582 285 Q586 287 594 284 Q644 263 682 232 Q696 218 689 206 Q682 194 657 191 L657 66 Q657 40 665 29 Q672 19 693 15 Q746 7 796 20 Q830 31 851 73 Q867 109 888 180 Q892 193 897 193 Q902 193 902 177 Q900 128 898 80 Q898 51 910 46 Q923 42 932 30 Q943 16 942 -3 Q941 -45 902 -63 Q874 -78 837 -83 Q738 -95 670 -90 Q543 -81 546 41 L546 215 ZM216 326 Q216 240 166 194 Q139 168 104 166 Q69 164 50 189 Q31 215 42 250 Q52 283 82 299 Q162 340 177 414 Q181 431 185 432 Q191 432 199 414 Q210 385 214 353 L779 353 Q802 378 833 404 Q841 411 848 404 Q904 371 948 332 Q976 302 960 286 Q946 272 905 272 Q824 218 745 189 Q737 187 733 190 Q728 194 732 201 Q773 286 783 326 L216 326 Z" /><glyph glyph-name="uni4EB2" unicode="&#x4eb2;" d="M771 13 Q745 61 710 100 Q665 151 609 182 Q594 191 598 195 Q602 199 619 197 Q697 190 757 171 Q825 149 864 112 Q891 88 890 46 Q889 5 865 -16 Q837 -35 811 -25 Q787 -16 771 13 ZM53 -44 Q36 -48 34 -42 Q32 -36 46 -27 Q175 66 251 181 Q265 207 274 234 Q341 203 389 160 Q409 143 398 130 Q387 116 356 128 Q224 1 53 -44 ZM324 487 Q319 505 313 523 Q296 591 269 621 Q262 628 266 631 Q270 634 281 632 Q339 622 371 609 Q419 589 435 555 Q447 528 438 501 Q429 473 404 463 Q382 453 360 457 Q335 462 324 487 ZM590 453 L771 453 Q772 453 793 480 Q830 529 842 539 Q848 543 853 540 Q920 498 959 448 Q964 441 961 434 Q958 425 945 425 L558 425 Q570 423 574 422 Q596 416 596 403 Q596 387 561 382 L561 298 L723 298 Q751 339 793 381 Q797 385 805 381 Q865 346 906 297 Q914 289 910 281 Q906 272 893 272 L561 272 L561 116 Q563 70 565 24 Q568 -27 537 -61 Q501 -101 428 -104 Q409 -104 403 -90 Q396 -74 382 -57 Q376 -51 358 -39 Q329 -20 291 -3 Q279 1 282 8 Q285 14 297 12 Q362 5 389 5 Q448 5 448 54 L448 272 L339 272 Q162 272 104 266 Q86 282 88 307 Q160 298 363 298 L448 298 L448 325 Q448 377 442 425 L316 425 Q153 425 61 416 Q44 435 43 461 Q123 453 327 453 L551 453 Q571 512 586 597 Q588 625 588 645 Q686 626 741 601 Q766 589 761 576 Q756 561 721 564 Q666 506 590 453 ZM561 683 L705 683 Q727 720 771 766 Q777 770 783 767 Q846 730 889 679 Q894 673 891 665 Q887 656 875 656 L374 656 Q189 656 121 648 Q103 668 103 692 Q195 683 385 683 L437 683 L437 723 Q437 757 429 807 Q513 807 573 797 Q601 791 599 776 Q597 759 561 751 L561 683 Z" /><glyph glyph-name="uni4EBA" unicode="&#x4eba;" d="M556 731 Q560 498 674 307 Q786 120 968 36 Q977 32 975 26 Q973 20 964 17 Q854 -22 821 -57 Q804 -71 787 -60 Q654 46 589 279 Q531 486 541 726 Q538 725 534 725 Q534 661 522 547 Q500 299 371 131 Q252 -23 52 -99 Q34 -105 31 -100 Q26 -95 43 -84 Q222 27 309 219 Q378 372 395 596 Q406 705 394 787 Q475 785 550 774 Q583 769 580 751 Q578 738 556 731 Z" /><glyph glyph-name="uni4EC0" unicode="&#x4ec0;" d="M702 435 L702 233 Q702 49 708 -70 Q710 -94 658 -102 Q615 -106 599 -104 Q564 -98 567 -71 Q569 -39 574 186 L574 435 L564 435 Q464 440 345 430 Q327 446 327 475 Q403 466 574 466 L574 654 Q574 728 566 800 Q645 800 718 785 Q730 782 737 776 Q743 771 742 764 Q736 745 702 742 L702 466 L778 466 Q820 532 854 565 Q859 570 866 565 Q934 517 973 465 Q980 456 976 446 Q972 435 959 435 L702 435 ZM250 538 Q281 534 304 527 Q334 520 327 503 Q321 487 293 481 L288 249 Q288 87 292 5 Q292 -33 292 -71 Q292 -96 245 -105 Q213 -109 197 -108 Q160 -105 162 -76 L167 15 Q173 132 173 169 L173 430 Q116 356 58 304 Q45 293 40 297 Q35 301 43 316 Q147 499 204 703 Q219 760 226 814 Q320 796 382 766 Q407 754 400 739 Q391 722 356 725 Q315 637 250 538 Z" /><glyph glyph-name="uni4EC5" unicode="&#x4ec5;" d="M705 201 Q799 107 963 26 Q974 20 974 16 Q973 11 963 8 Q926 -3 895 -21 Q859 -41 839 -65 Q828 -76 816 -68 Q702 18 633 115 Q501 -24 292 -102 Q277 -108 273 -103 Q269 -98 282 -90 Q470 21 581 201 Q487 380 455 683 Q423 682 394 678 Q378 696 373 724 Q453 714 590 714 L748 714 Q770 745 803 773 Q809 777 815 774 Q838 764 870 743 Q905 720 917 705 Q929 690 921 678 Q912 666 880 660 Q833 380 705 201 ZM634 284 Q726 456 753 686 L580 686 Q557 686 477 684 Q527 433 634 284 ZM235 535 Q273 530 303 523 Q314 520 321 514 Q327 508 326 502 Q324 484 290 477 L289 187 Q289 119 291 19 Q292 -19 292 -56 Q292 -83 248 -92 Q236 -94 221 -95 Q168 -96 171 -61 Q173 -17 175 28 Q178 139 178 187 L178 450 Q107 355 34 294 Q22 284 17 288 Q12 292 21 305 Q86 399 137 527 Q182 640 204 744 Q212 792 211 810 Q307 795 361 768 Q385 755 380 742 Q375 726 338 729 Q288 619 235 535 Z" /><glyph glyph-name="uni4ECA" unicode="&#x4eca;" d="M708 93 Q689 43 654 -38 Q645 -59 635 -79 Q613 -115 527 -106 Q502 -103 492 -92 Q483 -82 489 -70 Q500 -50 511 -30 Q578 98 630 240 L447 240 Q254 240 194 233 Q175 252 174 278 Q264 269 450 269 L627 269 Q653 300 687 327 Q696 329 700 327 Q754 298 795 256 Q807 240 795 227 Q784 216 759 214 Q744 177 708 93 ZM289 439 Q348 431 459 431 L518 431 Q563 498 581 513 Q585 517 593 514 Q648 480 687 435 Q696 422 692 413 Q688 404 676 404 L456 404 Q352 404 306 399 Q291 411 289 439 ZM553 731 Q721 526 979 445 Q986 444 984 439 Q983 436 977 434 Q936 414 898 395 Q861 377 840 352 Q829 339 813 347 Q724 397 646 505 Q575 604 532 723 Q449 584 312 468 Q182 358 41 299 Q20 291 18 296 Q16 301 34 315 Q144 390 243 513 Q335 628 389 747 Q401 771 412 815 Q502 801 570 769 Q589 759 585 747 Q581 734 553 731 Z" /><glyph glyph-name="uni4ECB" unicode="&#x4ecb;" d="M717 448 Q711 439 689 434 Q684 290 688 130 Q689 68 690 7 Q691 -25 691 -56 Q692 -70 675 -81 Q656 -93 615 -96 Q556 -102 560 -60 Q562 -23 564 15 Q567 114 567 130 L567 335 Q567 413 558 492 Q628 490 683 480 Q588 576 532 718 Q456 592 325 489 Q401 483 436 476 Q467 470 464 453 Q458 436 428 432 Q426 413 426 361 Q431 143 340 36 Q248 -71 60 -109 Q35 -115 33 -108 Q31 -101 51 -94 Q185 -45 245 61 Q305 166 304 351 L304 396 Q304 421 300 469 Q175 376 41 330 Q19 323 17 329 Q15 335 34 346 Q144 411 241 523 Q330 626 389 746 Q408 786 415 815 Q499 803 572 769 Q593 759 587 745 Q581 731 548 732 Q619 645 735 579 Q849 514 975 486 Q982 485 980 480 Q978 477 973 474 Q935 453 900 431 Q865 410 843 385 Q834 373 817 380 Q765 406 717 448 Z" /><glyph glyph-name="uni4ECD" unicode="&#x4ecd;" d="M691 706 L581 706 Q581 652 577 544 Q567 308 505 167 Q436 8 277 -98 Q265 -106 260 -101 Q255 -96 268 -83 Q364 8 411 186 Q449 332 457 550 Q460 635 459 705 Q389 703 360 700 Q350 709 344 731 Q337 729 326 731 Q277 621 224 537 Q248 533 275 527 Q303 519 296 502 Q289 486 262 480 L261 170 Q261 43 262 -7 Q264 -23 264 -67 Q264 -91 223 -101 Q208 -106 192 -106 Q138 -112 141 -75 L145 0 Q149 80 149 170 L149 428 Q88 350 32 304 Q20 294 16 298 Q12 302 20 314 Q139 489 198 746 Q207 782 207 816 Q300 797 352 773 Q379 756 366 741 L364 739 Q466 733 562 733 L684 733 Q715 763 732 776 Q739 778 743 776 Q794 750 826 722 Q840 709 836 697 Q831 683 802 679 Q779 523 769 470 L803 470 Q822 500 850 522 Q855 526 860 522 Q914 499 944 469 Q959 454 954 442 Q949 429 922 420 Q918 199 895 88 Q877 4 827 -43 Q774 -92 689 -96 Q659 -97 652 -77 Q641 -46 609 -27 Q571 -4 523 16 Q507 25 509 31 Q510 35 526 33 Q602 17 663 16 Q751 13 775 103 Q790 159 799 268 Q804 324 808 444 L779 444 Q763 415 744 396 Q735 384 721 390 Q665 411 628 446 Q615 460 622 472 Q630 485 660 494 Q682 610 691 706 Z" /><glyph glyph-name="uni4ECE" unicode="&#x4ece;" d="M708 609 Q722 406 792 254 Q858 112 975 11 Q982 5 981 0 Q980 -4 970 -7 Q925 -19 900 -28 Q860 -43 837 -63 Q823 -76 810 -60 Q757 29 731 166 Q708 290 702 479 Q685 247 597 113 Q506 -24 313 -102 Q299 -107 295 -103 Q291 -99 303 -91 Q421 -14 485 86 Q545 179 569 312 Q583 383 588 474 Q591 529 592 641 Q592 731 582 800 Q668 798 723 786 Q755 780 753 764 Q751 745 712 739 Q710 674 708 609 ZM321 424 Q380 392 425 352 Q478 304 495 259 Q509 227 502 192 Q494 154 464 138 Q438 124 416 139 Q394 154 388 189 Q366 321 317 398 Q293 222 220 100 Q156 -6 40 -93 Q28 -102 24 -98 Q20 -94 30 -82 Q130 34 172 197 Q206 330 211 547 Q216 699 204 794 Q265 791 346 779 Q379 772 376 755 Q373 738 336 731 Q333 610 327 496 Q324 458 321 424 Z" /><glyph glyph-name="uni4ED6" unicode="&#x4ed6;" d="M693 273 Q693 236 695 198 Q696 167 697 136 Q697 124 684 115 Q667 103 631 100 Q578 97 581 131 Q583 164 584 197 Q586 271 586 361 L586 479 L496 443 L496 88 Q496 61 509 46 Q521 32 546 28 Q676 13 790 38 Q837 49 857 91 Q879 137 906 233 Q910 247 916 247 Q922 247 921 231 Q920 215 919 199 Q913 133 913 101 Q912 77 931 66 Q958 52 959 24 Q961 4 952 -15 Q942 -37 922 -47 Q883 -66 841 -70 Q679 -93 526 -79 Q452 -71 420 -40 Q386 -6 387 64 L387 399 Q320 371 298 360 Q274 380 269 399 Q326 412 387 433 L387 593 Q387 673 379 717 Q460 713 504 702 Q530 695 529 683 Q529 668 496 660 L496 473 L586 510 L586 678 Q586 755 578 802 Q648 799 702 788 Q723 783 722 769 Q722 754 691 748 L691 552 L780 588 Q791 619 813 647 Q819 653 825 651 Q882 636 922 610 Q938 598 932 585 Q926 572 901 561 Q903 367 891 293 Q882 243 855 211 Q824 175 774 167 Q750 163 745 184 Q740 213 728 234 Q715 254 693 273 ZM693 288 Q709 284 737 281 Q752 280 763 288 Q777 298 780 320 Q792 392 790 560 L691 521 L691 363 Q692 325 693 288 ZM224 525 Q258 519 270 516 Q296 510 294 495 Q290 478 259 473 L258 173 Q259 80 259 -12 Q260 -41 261 -70 Q261 -96 217 -103 Q205 -106 190 -106 Q136 -110 139 -75 Q141 -39 143 -2 Q147 78 147 173 L147 417 Q93 350 31 294 Q19 284 16 288 Q12 293 20 305 Q141 483 200 750 Q207 780 207 816 Q265 804 354 772 Q376 761 367 745 Q358 731 329 731 Q287 625 224 525 Z" /><glyph glyph-name="uni4EE3" unicode="&#x4ee3;" d="M731 628 Q709 683 703 695 Q683 734 652 756 Q641 764 644 767 Q646 769 660 767 Q717 760 758 743 Q807 723 825 691 Q838 669 832 642 Q827 618 809 605 Q788 590 765 596 Q741 602 731 628 ZM615 468 Q648 193 786 92 Q804 78 821 79 Q841 80 856 102 Q881 143 929 260 Q937 277 942 277 Q949 276 946 255 Q930 175 922 81 Q917 26 942 -13 Q964 -52 931 -87 Q912 -107 875 -106 Q841 -105 809 -89 Q558 29 501 458 L492 457 Q381 446 325 437 Q309 448 305 475 Q295 470 282 467 L281 178 Q282 94 283 10 Q284 -27 284 -64 Q284 -89 243 -98 Q216 -101 212 -101 Q159 -105 162 -69 Q165 -18 165 20 Q169 98 169 178 L169 404 Q107 327 42 272 Q30 262 26 266 Q22 270 30 282 Q98 380 149 508 Q193 620 216 733 Q225 775 224 805 Q314 789 378 759 Q402 747 393 730 Q380 715 352 719 Q313 621 252 521 Q276 518 295 513 Q321 506 319 491 Q318 484 309 478 Q373 477 498 487 Q490 560 487 613 Q484 665 480 718 Q477 763 469 793 Q555 790 614 779 Q626 777 632 770 Q638 764 635 757 Q630 745 603 739 Q600 607 611 497 L753 509 Q774 546 815 599 Q818 604 824 601 Q890 567 937 525 Q942 518 940 508 Q937 498 924 495 L615 468 Z" /><glyph glyph-name="uni4EE4" unicode="&#x4ee4;" d="M472 465 L506 465 Q529 505 568 549 Q573 553 580 549 Q635 513 670 471 Q679 458 675 449 Q671 440 658 440 L445 440 Q369 440 325 433 Q309 452 308 475 Q364 465 472 465 ZM555 57 Q575 44 589 31 Q619 3 620 -38 Q621 -77 596 -98 Q575 -116 545 -111 Q511 -105 488 -72 Q442 -1 377 54 Q320 102 259 129 Q247 135 249 139 Q251 143 264 142 Q404 128 505 84 Q587 204 621 277 L428 277 Q237 277 177 270 Q160 289 157 315 Q247 306 432 306 L621 306 Q629 316 645 336 Q661 355 677 366 Q683 371 693 367 Q758 336 807 291 Q831 269 820 251 Q808 233 770 240 Q648 126 555 57 ZM550 737 Q722 551 982 476 Q988 474 986 470 Q984 466 978 464 Q905 425 904 424 Q865 401 847 381 Q835 368 820 377 Q737 421 657 516 Q575 614 534 723 Q447 584 319 485 Q198 392 50 342 Q30 335 28 341 Q26 347 42 357 Q160 435 254 545 Q338 643 392 754 Q412 797 417 821 Q502 806 574 774 Q595 763 589 750 Q583 736 550 737 Z" /><glyph glyph-name="uni4EE5" unicode="&#x4ee5;" d="M561 413 Q536 398 512 405 Q484 413 474 450 Q455 510 439 543 Q411 601 370 642 Q360 651 362 656 Q364 662 382 659 Q447 645 504 610 Q564 573 586 529 Q603 495 594 460 Q586 428 561 413 ZM524 301 Q369 159 167 36 Q175 10 165 0 Q155 -14 129 15 Q85 70 55 136 Q92 146 121 159 Q159 174 174 196 Q190 219 189 258 L176 623 Q171 702 162 752 Q237 752 302 741 Q330 736 329 719 Q327 702 293 695 L309 221 Q414 264 514 318 Q529 326 533 319 Q537 313 524 301 ZM734 219 Q897 155 936 72 Q951 39 944 5 Q937 -33 905 -49 Q876 -65 850 -50 Q825 -35 816 2 Q800 65 786 98 Q761 158 722 198 Q655 86 534 21 Q422 -39 241 -71 Q227 -73 223 -67 Q220 -62 234 -56 Q486 17 591 176 Q696 335 699 636 Q701 693 690 760 Q780 756 845 743 Q873 736 868 720 Q865 704 829 697 Q827 628 824 596 Q809 357 734 219 Z" /><glyph glyph-name="uni4EEC" unicode="&#x4eec;" d="M569 626 Q551 609 527 612 Q501 615 487 640 Q478 656 471 675 Q457 708 446 726 Q428 755 401 779 Q393 785 394 789 Q395 794 409 793 Q464 788 512 769 Q566 747 582 716 Q606 662 569 626 ZM494 552 L494 157 Q494 37 495 4 Q497 -33 498 -69 Q499 -84 475 -94 Q455 -102 424 -104 Q399 -104 388 -99 Q374 -92 375 -75 Q377 -33 379 9 Q383 97 383 175 L383 476 Q383 551 375 615 Q448 612 505 597 Q526 591 526 577 Q528 560 494 552 ZM811 676 L790 676 Q686 676 638 670 Q623 689 620 713 Q697 705 793 705 L801 705 Q835 747 853 761 Q857 765 864 762 Q915 737 956 700 Q970 686 963 673 Q955 660 927 653 L927 202 Q929 128 931 55 Q933 -5 891 -47 Q848 -89 770 -99 Q745 -105 741 -83 Q732 -58 705 -37 Q674 -11 615 11 Q601 18 601 23 Q602 28 618 27 Q697 17 745 18 Q774 19 792 35 Q811 52 811 83 L811 676 ZM236 531 Q258 527 279 523 Q306 516 301 501 Q294 483 266 478 L265 171 Q265 15 266 -10 Q267 -40 267 -70 Q267 -92 227 -101 Q212 -106 192 -106 Q141 -110 144 -74 L148 0 Q152 80 152 171 L152 415 Q98 349 33 292 Q21 282 18 285 Q15 289 23 302 Q143 502 194 703 Q208 760 215 813 Q317 791 363 768 Q390 755 383 739 Q375 724 338 727 Q292 619 236 531 Z" /><glyph glyph-name="uni4EF6" unicode="&#x4ef6;" d="M704 567 L757 567 Q783 610 823 651 Q828 654 833 652 Q893 613 930 569 Q937 561 934 550 Q930 539 918 539 L704 539 L703 299 L772 299 Q817 366 844 390 Q847 395 853 391 Q911 355 958 302 Q967 292 963 282 Q959 271 945 271 L703 271 L703 188 Q705 103 706 19 Q707 -24 708 -67 Q710 -90 668 -101 Q657 -104 628 -106 Q574 -109 577 -71 Q579 -23 581 25 Q584 157 584 186 L584 271 L535 271 Q423 271 331 265 Q316 283 312 308 Q422 299 562 299 L584 299 L584 539 L476 539 Q409 419 318 347 Q307 339 302 341 Q296 344 303 356 Q378 481 415 665 Q424 705 424 758 Q499 741 555 716 Q578 705 573 692 Q571 678 539 678 Q518 619 491 567 L584 567 L584 652 Q584 747 575 804 Q660 804 714 791 Q743 783 740 768 Q736 751 704 747 L704 567 ZM240 536 Q265 533 285 528 Q309 523 307 507 Q304 489 273 483 L272 178 Q272 59 273 9 Q274 0 274 -66 Q276 -95 231 -101 Q215 -103 204 -103 Q152 -106 153 -70 Q157 -36 157 19 Q162 116 162 178 L162 422 Q104 346 43 293 Q31 284 27 288 Q23 292 31 304 Q91 392 144 527 Q189 643 212 747 Q218 777 220 812 Q307 795 367 767 Q394 752 384 738 Q373 723 341 726 Q297 628 240 536 Z" /><glyph glyph-name="uni4EF7" unicode="&#x4ef7;" d="M803 407 Q796 403 787 402 Q785 247 787 119 Q787 82 789 0 Q790 -32 790 -64 Q790 -96 715 -100 Q686 -102 674 -93 Q661 -84 663 -63 Q667 -21 667 0 Q669 62 671 124 L671 328 Q671 405 663 458 Q708 460 771 448 Q692 559 649 727 Q574 576 444 453 Q507 451 560 439 Q586 432 585 420 Q583 406 553 398 Q554 352 551 260 Q544 103 475 18 Q414 -57 277 -104 Q261 -109 258 -105 Q256 -101 269 -93 Q367 -29 404 59 Q438 141 440 291 Q443 379 434 444 Q359 376 281 333 Q267 325 263 330 Q260 334 271 345 Q353 421 422 540 Q482 644 513 743 Q524 779 528 811 Q610 799 675 773 Q697 762 694 748 Q689 736 667 735 Q801 541 982 445 Q990 441 990 436 Q990 433 979 429 Q892 397 864 369 Q852 361 841 369 Q821 386 803 407 ZM237 533 Q273 526 276 525 Q304 516 297 500 Q290 485 263 479 L261 175 Q262 92 263 10 Q264 -28 264 -66 Q264 -91 225 -100 Q207 -104 193 -104 Q138 -107 140 -71 L144 20 Q148 98 148 175 L149 410 Q90 338 31 290 Q18 281 14 285 Q9 289 17 301 Q85 397 139 529 Q184 639 207 742 Q212 762 216 812 Q309 794 366 765 Q392 750 381 736 Q370 720 340 723 Q295 626 237 533 Z" /><glyph glyph-name="uni4EFB" unicode="&#x4efb;" d="M674 -12 L749 -12 Q788 46 819 76 Q825 80 832 76 Q890 38 929 -8 Q939 -19 935 -29 Q931 -39 918 -39 L502 -39 Q380 -39 328 -45 Q312 -28 310 -2 Q403 -12 529 -12 L549 -12 L549 346 L492 346 Q355 346 305 339 Q289 358 286 383 Q381 373 519 373 L549 373 L549 627 Q434 615 332 612 Q313 612 311 619 Q309 624 326 629 Q543 675 697 743 Q749 768 780 796 Q837 752 880 700 Q899 670 882 662 Q866 656 840 671 Q774 654 674 641 L674 373 L773 373 Q813 438 842 465 Q848 469 855 466 Q916 425 954 377 Q963 364 960 355 Q956 346 944 346 L674 346 L674 -12 ZM234 530 Q266 524 276 522 Q304 515 299 498 Q293 481 264 475 L263 176 Q263 110 265 8 Q266 -30 266 -68 Q266 -77 257 -85 Q245 -96 224 -101 Q211 -105 190 -105 Q138 -109 142 -73 L145 1 Q148 124 148 176 L148 411 Q95 345 31 289 Q19 279 16 283 Q12 287 20 299 Q83 391 135 520 Q183 638 206 746 Q215 791 215 813 Q299 801 363 768 Q387 755 379 740 Q370 724 336 727 Q299 630 234 530 Z" /><glyph glyph-name="uni4F01" unicode="&#x4f01;" d="M570 257 L665 257 Q675 275 695 300 Q719 331 737 347 Q743 350 748 347 Q806 310 852 257 Q859 249 855 240 Q851 231 838 231 L570 231 L569 -15 L738 -15 Q786 56 817 82 Q820 85 828 83 Q891 40 941 -16 Q947 -23 943 -33 Q939 -43 927 -43 L321 -43 Q143 -43 74 -50 Q59 -33 57 -6 Q94 -10 229 -14 L229 222 Q229 324 221 366 Q292 369 359 352 Q384 346 384 330 Q384 312 344 308 L342 -15 L450 -15 L450 378 Q450 476 441 523 Q527 523 587 508 Q613 502 611 484 Q609 468 570 462 L570 257 ZM547 730 Q628 630 740 560 Q848 493 967 462 Q978 457 965 450 Q912 425 890 412 Q853 390 835 367 Q825 353 809 363 Q636 453 531 718 Q329 412 39 300 Q16 292 14 297 Q11 303 30 316 Q134 383 235 506 Q326 618 389 744 Q406 777 414 815 Q503 801 565 771 Q590 762 585 746 Q580 730 547 730 Z" /><glyph glyph-name="uni4F17" unicode="&#x4f17;" d="M739 418 Q734 416 720 414 Q720 402 719 390 Q741 96 967 -28 Q973 -32 972 -35 Q970 -38 964 -40 Q872 -46 835 -86 Q822 -101 810 -86 Q762 -22 737 54 Q710 137 705 252 Q683 124 602 33 Q526 -52 402 -103 Q383 -110 380 -106 Q377 -102 392 -90 Q495 -11 542 89 Q590 192 594 347 Q594 428 585 472 Q619 472 695 462 Q593 574 536 721 Q451 574 297 468 Q369 462 389 457 Q417 450 414 436 Q411 421 376 416 Q367 319 361 285 Q359 275 359 271 Q423 243 462 206 Q501 169 508 127 Q513 97 499 69 Q485 41 457 32 Q432 26 415 41 Q399 56 395 84 Q384 139 381 151 Q370 192 349 227 Q291 7 59 -97 Q42 -104 39 -100 Q36 -96 50 -83 Q147 -2 193 95 Q242 198 248 346 Q250 385 247 436 Q163 385 59 347 Q39 340 37 345 Q35 351 52 362 Q163 433 258 537 Q359 647 401 752 Q416 791 422 817 Q481 807 521 793 Q562 779 575 772 Q594 764 590 749 Q585 735 556 734 Q715 549 970 461 Q977 459 975 455 Q974 452 968 450 Q882 414 838 362 Q829 352 812 360 Q782 380 739 418 Z" /><glyph glyph-name="uni4F18" unicode="&#x4f18;" d="M750 654 Q744 666 734 692 Q714 748 686 775 Q677 783 677 786 Q677 790 691 789 Q801 775 833 726 Q848 704 842 678 Q837 655 820 642 Q804 627 783 630 Q762 633 750 654 ZM631 573 L789 573 Q799 589 816 611 Q839 641 854 654 Q858 658 864 655 Q920 613 952 572 Q957 565 954 556 Q951 546 939 546 L630 546 Q628 506 626 486 Q697 484 736 471 Q759 465 756 451 Q753 436 724 432 L721 78 Q721 54 728 42 Q736 29 754 27 Q792 21 834 34 Q861 46 876 88 Q889 124 909 220 Q913 234 919 233 Q926 232 925 217 Q923 154 921 91 Q921 60 934 54 Q963 36 962 6 Q961 -34 926 -55 Q897 -72 856 -77 Q792 -85 720 -80 Q664 -75 639 -46 Q613 -16 614 44 L620 396 Q620 407 618 439 Q613 423 613 421 Q574 54 302 -105 Q286 -112 281 -109 Q277 -106 293 -91 Q501 92 515 546 Q387 543 340 538 Q328 549 323 580 Q389 575 516 573 Q518 657 517 703 Q517 785 511 809 Q588 807 646 796 Q666 791 669 779 Q674 762 636 754 Q634 663 631 573 ZM254 535 Q279 531 304 525 Q316 523 322 517 Q327 512 326 505 Q323 486 291 480 L289 179 Q291 95 292 11 Q293 -26 293 -63 Q293 -89 248 -97 Q236 -100 222 -100 Q168 -104 171 -68 Q175 -34 175 21 Q179 99 179 179 L179 431 Q112 348 43 292 Q31 282 26 286 Q21 290 30 302 Q98 394 154 522 Q204 636 229 743 Q238 781 236 809 Q312 797 388 762 Q416 747 403 731 Q390 718 361 721 Q314 624 254 535 Z" /><glyph glyph-name="uni4F19" unicode="&#x4f19;" d="M433 314 Q411 291 379 290 Q348 289 331 311 Q316 330 319 360 Q322 391 343 411 Q389 451 407 484 Q430 528 432 602 Q433 617 439 617 Q444 617 449 602 Q507 394 433 314 ZM696 355 Q734 231 818 135 Q887 57 969 15 Q985 5 967 -1 Q934 -12 897 -26 Q859 -39 832 -62 Q820 -71 812 -65 Q740 13 704 129 Q667 248 659 441 Q652 239 571 113 Q479 -30 285 -94 Q266 -101 262 -96 Q258 -91 275 -80 Q428 9 495 178 Q546 306 546 478 Q546 612 545 672 Q545 748 536 789 Q608 788 681 777 Q708 771 706 757 Q704 739 667 731 L667 722 Q667 705 667 688 L667 550 Q667 464 689 378 Q756 476 789 569 Q796 593 801 625 Q887 585 934 545 Q954 528 940 515 Q926 507 903 515 Q812 417 696 355 ZM235 524 Q250 522 275 517 Q287 514 293 508 Q299 502 298 495 Q296 477 264 471 L264 176 Q264 17 265 -8 Q266 -16 266 -66 Q266 -75 258 -83 Q247 -93 226 -98 Q208 -100 189 -102 Q136 -106 141 -71 Q143 -35 145 2 Q149 162 149 176 L149 406 Q98 346 35 295 Q23 285 19 289 Q16 293 24 305 Q148 492 204 739 Q210 770 212 809 Q300 792 361 763 Q389 748 378 733 Q367 718 335 723 Q290 613 235 524 Z" /><glyph glyph-name="uni4F1A" unicode="&#x4f1a;" d="M685 414 L466 414 Q386 414 302 407 Q286 423 284 449 Q343 440 462 440 L521 440 Q553 488 588 523 Q592 527 600 523 Q655 488 699 440 Q706 432 702 423 Q698 414 685 414 ZM670 33 Q500 -24 251 -75 Q253 -106 238 -112 Q223 -118 210 -93 Q181 -31 163 51 Q221 46 250 56 Q288 67 308 105 Q345 166 376 252 L348 252 Q190 252 115 244 Q98 258 96 290 Q201 282 374 280 L704 280 Q745 342 777 367 Q782 372 790 368 Q849 332 895 284 Q904 274 900 263 Q896 252 883 252 L546 252 Q437 128 335 49 Q460 53 649 72 Q608 137 554 178 Q541 189 543 193 Q546 198 565 194 Q662 171 731 130 Q801 88 827 36 Q845 3 836 -34 Q827 -71 799 -86 Q772 -102 745 -90 Q719 -78 706 -48 Q686 3 670 33 ZM547 733 Q706 548 971 482 Q978 481 977 475 Q976 470 970 468 Q911 436 896 427 Q857 403 839 382 Q826 372 812 379 Q726 426 651 519 Q579 607 531 717 Q448 584 314 479 Q186 379 40 326 Q19 319 17 324 Q15 330 33 341 Q143 410 241 523 Q335 631 390 746 Q407 783 414 815 Q495 802 567 772 Q591 761 587 746 Q583 732 547 733 Z" /><glyph glyph-name="uni4F20" unicode="&#x4f20;" d="M687 81 Q745 51 769 9 Q798 -48 760 -89 Q738 -112 707 -106 Q674 -100 654 -68 Q619 -14 569 36 Q513 92 456 123 Q441 131 442 138 Q442 144 463 143 Q558 134 641 102 Q693 197 722 272 L576 272 Q556 244 528 219 Q521 214 513 217 Q459 245 419 283 Q407 295 415 309 Q424 324 450 329 Q461 370 474 432 Q367 430 324 425 Q308 443 305 467 Q368 461 480 459 Q497 534 509 602 Q404 602 364 597 Q349 609 347 637 Q406 631 514 629 Q528 710 529 723 Q535 771 534 813 Q611 804 676 784 Q702 773 696 759 Q689 746 658 742 Q647 685 636 629 L763 629 Q796 683 826 714 Q831 719 838 715 Q890 676 929 631 Q939 621 935 611 Q932 602 920 602 L630 602 Q614 519 601 459 L790 459 Q825 515 856 548 Q862 552 868 548 Q924 507 963 462 Q973 450 970 441 Q967 432 954 432 L595 432 Q586 386 565 299 L721 299 Q746 330 766 344 Q773 350 784 344 Q838 315 884 275 Q916 247 904 229 Q892 211 848 219 Q781 150 687 81 ZM248 527 Q260 525 293 519 Q305 516 312 510 Q318 505 317 498 Q315 481 280 473 L279 180 Q280 95 281 11 Q282 -26 282 -63 Q282 -89 241 -98 Q214 -101 210 -101 Q183 -102 170 -94 Q158 -86 159 -68 Q163 -34 163 21 Q167 99 167 180 L167 413 Q109 341 38 279 Q26 268 21 273 Q16 277 25 290 Q153 474 215 739 Q224 782 224 811 Q311 795 376 764 Q400 751 391 735 Q380 720 349 723 Q308 622 248 527 Z" /><glyph glyph-name="uni4F24" unicode="&#x4f24;" d="M657 390 L772 389 Q793 414 827 441 Q831 443 838 441 Q886 416 925 381 Q946 361 928 347 Q919 338 900 335 Q894 148 879 71 Q848 -81 699 -87 Q675 -90 667 -71 Q659 -47 628 -23 Q599 -4 549 20 Q536 26 537 32 Q539 36 554 33 Q597 25 651 23 Q681 21 697 25 Q750 41 762 100 Q782 187 782 364 L654 364 Q643 260 618 189 Q582 82 508 14 Q439 -50 312 -102 Q300 -107 296 -102 Q293 -98 303 -90 Q417 -6 469 96 Q520 197 536 364 Q445 364 385 357 Q370 372 366 398 Q444 390 539 390 Q541 414 542 441 Q542 537 537 565 Q610 561 681 547 Q701 539 699 529 Q699 513 665 507 Q661 428 657 390 ZM537 633 L770 633 Q779 648 801 678 Q827 713 841 726 Q846 729 851 728 Q917 685 955 637 Q963 626 959 616 Q955 607 941 607 L519 607 Q428 478 323 396 Q308 385 305 389 Q302 393 311 406 Q415 563 452 734 Q460 768 461 812 Q549 798 618 773 Q638 765 636 750 Q632 732 595 733 Q569 681 537 633 ZM244 534 Q273 531 292 526 Q319 519 315 503 Q309 484 278 480 L277 174 Q278 91 279 9 Q280 -29 280 -67 Q280 -99 211 -105 Q189 -105 185 -104 Q153 -100 156 -72 L160 19 Q163 136 163 174 L163 423 Q100 344 37 290 Q25 280 21 285 Q17 290 25 301 Q86 389 139 510 Q186 617 213 718 Q220 742 221 750 Q227 774 229 811 Q311 798 373 766 Q392 757 392 745 Q391 724 350 723 Q308 631 244 534 Z" /><glyph glyph-name="uni4F2F" unicode="&#x4f2f;" d="M786 601 L516 601 L516 342 L786 342 L786 601 ZM785 314 L516 314 L516 24 L785 24 L785 314 ZM785 -4 L516 -4 L516 -10 Q517 -38 518 -65 Q517 -76 502 -84 Q482 -95 442 -97 Q417 -99 404 -92 Q389 -84 390 -69 Q392 -42 393 -14 Q396 14 396 127 L396 538 Q396 630 386 684 Q466 661 525 627 L549 627 Q559 693 561 748 Q562 787 561 815 Q657 803 721 777 Q749 765 744 751 Q740 735 702 736 Q641 669 589 627 L775 627 Q806 667 827 681 Q834 685 840 682 Q899 654 933 621 Q947 606 942 594 Q936 581 908 574 L908 133 Q909 70 910 7 Q912 -23 913 -53 Q917 -87 839 -93 Q782 -96 784 -66 Q785 -41 785 -16 L785 -4 ZM238 535 Q246 534 279 528 Q308 521 302 505 Q298 489 269 483 L268 174 Q269 81 269 -11 Q271 -29 271 -69 Q271 -93 224 -102 Q206 -106 192 -106 Q139 -110 144 -73 Q146 -37 148 -1 Q151 119 151 174 L152 417 Q92 344 31 294 Q18 284 15 288 Q12 292 20 305 Q155 514 202 743 Q209 769 211 814 Q309 795 365 767 Q392 752 381 738 Q373 724 341 727 Q302 637 238 535 Z" /><glyph glyph-name="uni4F3C" unicode="&#x4f3c;" d="M669 418 Q647 404 624 411 Q598 418 587 459 Q560 568 512 622 Q503 632 506 635 Q509 637 524 635 Q577 624 627 592 Q677 560 694 524 Q705 500 703 473 Q700 437 669 418 ZM794 192 Q849 176 895 141 Q940 107 957 69 Q974 32 966 0 Q958 -33 926 -50 Q899 -65 875 -54 Q848 -41 841 -1 Q830 54 821 86 Q805 140 782 171 Q667 -22 374 -87 Q354 -90 352 -83 Q351 -79 366 -73 Q571 2 662 148 Q748 285 757 522 Q766 707 754 776 Q813 776 893 761 Q922 754 920 740 Q920 723 883 716 Q880 606 872 499 Q860 313 794 192 ZM363 748 Q436 746 489 737 Q503 734 510 728 Q516 722 514 715 Q511 701 480 692 L488 212 Q581 250 641 284 Q655 291 658 285 Q661 279 650 268 Q517 140 387 58 Q395 30 382 23 Q370 16 353 40 Q311 95 283 154 Q308 160 342 178 Q380 199 380 238 L371 619 Q369 696 361 743 Q351 726 321 730 Q273 614 217 521 Q249 518 268 513 Q279 511 285 505 Q291 499 290 492 Q286 475 255 467 L254 171 Q254 12 255 -13 Q257 -29 257 -71 Q257 -94 216 -104 Q200 -106 183 -108 Q156 -109 144 -101 Q133 -93 135 -75 Q137 -39 139 -3 Q143 157 143 171 L143 413 Q91 347 32 294 Q19 284 16 288 Q13 292 21 305 Q83 399 131 525 Q173 635 196 745 Q203 780 205 814 Q275 801 347 769 Q365 760 363 748 Z" /><glyph glyph-name="uni4F46" unicode="&#x4f46;" d="M965 -44 L540 -44 Q429 -44 323 -54 Q309 -40 304 -7 Q394 -16 568 -16 L791 -16 Q803 3 820 26 Q845 59 863 75 Q868 80 874 76 Q897 64 933 31 Q965 1 978 -16 Q983 -23 981 -32 Q979 -43 965 -44 ZM747 442 L527 442 L527 282 L528 190 L746 190 Q747 242 747 295 L747 442 ZM747 468 Q746 556 746 703 L528 703 L527 468 L747 468 ZM746 163 L528 163 L528 157 Q529 127 529 98 Q529 87 514 79 Q496 69 457 67 Q402 63 405 96 Q407 128 409 161 Q412 218 412 295 L412 642 Q412 726 401 786 Q480 762 539 730 L735 730 Q763 769 788 785 Q794 789 800 786 Q857 757 891 725 Q904 710 899 698 Q893 685 866 678 L867 313 Q867 220 869 188 Q869 146 872 125 Q873 90 798 86 Q768 85 757 91 Q745 97 745 112 Q746 137 746 163 ZM240 537 Q252 535 279 530 Q303 524 303 509 Q301 490 270 483 L269 174 Q269 15 270 -10 Q272 -28 272 -69 Q272 -78 263 -86 Q251 -96 226 -101 Q210 -105 194 -105 Q141 -109 146 -74 Q148 -38 150 -1 Q153 119 153 173 L154 416 Q96 345 34 293 Q21 283 18 287 Q14 292 23 305 Q155 494 203 741 Q211 781 211 812 Q311 793 362 768 Q388 755 380 740 Q373 724 339 727 Q297 628 240 537 Z" /><glyph glyph-name="uni4F4D" unicode="&#x4f4d;" d="M582 166 Q583 134 566 104 Q547 71 518 65 Q487 58 470 85 Q456 107 457 142 Q459 240 452 306 Q442 403 410 476 Q403 491 408 494 Q413 497 424 485 Q494 411 538 322 Q580 235 582 166 ZM662 597 L756 597 Q795 659 824 682 Q829 687 834 683 Q897 646 941 596 Q947 589 944 580 Q941 570 929 570 L534 570 Q393 570 339 564 Q322 581 322 605 Q398 599 542 597 L542 687 Q542 751 533 801 Q628 801 677 791 Q704 784 702 769 Q699 755 664 747 L662 597 ZM648 -2 L769 -2 Q794 40 840 88 Q846 92 852 89 Q916 49 963 -3 Q969 -11 966 -20 Q963 -30 951 -30 L507 -30 Q368 -30 310 -36 Q293 -18 292 7 Q364 -2 530 -2 L623 -2 Q675 213 691 419 Q695 484 693 514 Q778 502 848 476 Q871 467 866 451 Q859 436 825 437 Q752 171 648 -2 ZM247 537 Q270 533 281 531 Q309 524 309 510 Q308 492 273 484 L272 170 Q273 79 273 -11 Q274 -19 274 -71 Q274 -102 206 -108 Q149 -113 154 -76 Q157 -22 157 -2 Q161 80 161 170 L162 416 Q102 344 35 287 Q23 277 20 281 Q17 286 25 298 Q92 394 142 517 Q185 621 213 740 Q222 774 222 813 Q321 790 370 765 Q396 754 391 739 Q386 723 345 726 Q303 628 247 537 Z" /><glyph glyph-name="uni4F4E" unicode="&#x4f4e;" d="M736 414 Q764 195 845 92 Q856 77 867 78 Q878 79 889 96 Q924 160 951 240 Q959 257 964 253 Q969 250 967 237 Q958 158 948 80 Q944 30 965 -24 Q970 -47 958 -70 Q946 -94 924 -100 Q894 -110 856 -91 Q824 -75 797 -45 Q727 31 686 150 Q683 148 680 146 Q658 132 557 72 Q666 45 700 -15 Q714 -37 707 -66 Q700 -97 675 -111 Q649 -126 622 -112 Q596 -99 587 -70 Q562 6 525 54 Q444 8 395 -17 Q397 -47 384 -53 Q370 -60 354 -34 Q323 12 299 87 Q321 89 340 94 Q370 101 382 115 Q393 128 393 152 L392 568 Q391 653 383 734 Q452 712 499 688 Q667 732 738 772 Q772 790 786 807 Q839 775 889 719 Q910 698 898 684 Q886 672 852 691 Q803 681 720 673 Q720 543 732 440 L773 440 Q799 484 840 529 Q845 534 851 530 Q903 494 945 444 Q955 431 952 423 Q948 414 934 414 L736 414 ZM681 165 Q646 267 627 414 L504 414 L504 118 Q587 137 673 163 Q677 164 681 165 ZM623 440 Q613 530 606 663 Q553 659 504 657 L504 440 L623 440 ZM229 534 Q251 531 280 524 Q293 521 299 515 Q305 509 303 502 Q298 484 268 478 L266 170 Q267 78 267 -14 Q269 -30 269 -72 Q269 -99 221 -106 Q205 -108 195 -109 Q141 -112 146 -77 Q148 -41 150 -4 Q154 76 154 170 L155 430 Q97 357 35 305 Q23 295 19 299 Q15 303 23 315 Q136 480 197 747 Q203 768 205 813 Q309 791 358 769 Q377 760 377 745 Q374 726 334 729 Q292 633 229 534 Z" /><glyph glyph-name="uni4F4F" unicode="&#x4f4f;" d="M665 -11 L776 -11 Q818 57 849 88 Q852 93 858 89 Q885 72 920 37 Q946 11 963 -11 Q969 -19 966 -28 Q964 -38 951 -39 L482 -39 Q434 -39 309 -44 Q295 -32 293 -3 Q410 -11 508 -11 L543 -11 L543 287 L532 287 Q436 287 354 282 Q340 294 338 322 Q436 315 543 315 L543 444 Q543 504 534 567 L511 567 Q415 567 333 562 Q318 575 316 606 Q391 596 536 596 L544 596 L544 686 Q544 757 535 801 Q635 801 679 791 Q690 789 697 783 Q703 778 702 771 Q700 757 666 748 L664 596 L761 596 Q767 606 787 636 Q806 666 827 688 Q831 692 837 689 Q903 642 937 596 Q944 588 941 578 Q938 567 926 567 L614 567 Q657 562 679 556 Q699 550 696 535 Q693 518 665 512 L665 315 L734 315 Q740 324 760 355 Q779 385 798 406 Q802 410 808 407 Q873 361 906 315 Q913 306 910 297 Q907 287 895 287 L665 287 L665 -11 ZM243 532 Q273 528 285 525 Q315 515 309 500 Q303 485 271 481 L269 176 Q269 61 270 11 Q271 2 271 -66 Q271 -92 227 -101 Q211 -103 201 -103 Q142 -107 145 -70 L149 21 Q154 118 154 176 L154 413 Q94 340 33 291 Q20 282 16 286 Q12 290 19 302 Q86 394 141 520 Q189 631 216 741 Q225 777 225 811 Q313 795 377 763 Q403 751 395 736 Q386 719 351 722 Q305 625 243 532 Z" /><glyph glyph-name="uni4F53" unicode="&#x4f53;" d="M659 549 Q703 440 797 335 Q887 234 974 189 Q984 184 982 179 Q981 175 972 173 Q924 159 906 152 Q867 138 850 122 Q837 112 825 121 Q711 243 655 508 L655 149 L672 149 Q696 197 710 217 Q714 223 719 218 Q738 203 775 151 Q783 139 779 132 Q775 125 764 125 L655 125 Q657 50 659 -24 Q660 -49 661 -73 Q662 -84 647 -93 Q627 -105 587 -108 Q556 -109 543 -102 Q530 -95 531 -77 Q532 -68 534 -27 Q536 44 538 116 L538 125 L529 125 Q449 125 408 120 Q391 137 391 157 Q457 149 539 149 L545 370 Q511 303 484 268 Q403 158 278 82 Q267 76 263 78 Q263 29 264 11 Q265 -27 265 -64 Q265 -90 225 -97 Q207 -101 195 -101 Q142 -105 145 -68 Q148 -20 148 21 Q152 99 152 179 L152 411 Q94 339 33 288 Q21 278 17 282 Q13 287 21 299 Q86 394 137 520 Q183 635 204 742 Q210 770 212 809 Q302 794 361 768 Q386 756 380 742 Q372 723 338 726 Q296 626 235 529 Q267 523 278 520 Q303 513 300 499 Q298 481 265 474 L262 179 L262 87 Q263 89 267 93 Q345 177 409 300 Q470 419 506 549 Q374 549 312 542 Q294 567 294 584 Q384 575 537 575 L537 661 Q537 747 526 810 Q595 810 667 800 Q692 795 692 780 Q692 762 655 756 L655 575 L771 575 Q777 585 797 614 Q817 643 839 664 Q844 668 851 664 Q892 642 951 577 Q956 570 953 560 Q949 549 935 549 L659 549 Z" /><glyph glyph-name="uni4F55" unicode="&#x4f55;" d="M886 669 L886 167 Q886 101 889 38 Q891 -16 849 -57 Q803 -101 727 -106 Q704 -108 697 -92 Q683 -61 662 -46 Q626 -21 560 5 Q545 11 546 17 Q550 22 563 21 Q667 10 707 11 Q736 12 752 27 Q768 42 768 69 L768 669 L551 669 Q395 669 350 664 Q335 680 333 705 Q443 696 576 695 L782 695 Q800 730 856 788 Q861 791 867 788 Q938 742 972 700 Q983 688 979 678 Q975 669 962 669 L886 669 ZM566 495 L468 495 L468 262 L565 262 Q566 286 566 320 L566 495 ZM565 236 L468 236 L468 204 Q469 185 469 166 Q468 134 409 130 Q380 128 368 135 Q356 142 357 161 Q359 184 360 208 Q363 310 363 317 L363 452 Q363 527 355 572 Q409 559 474 522 L556 522 Q574 548 594 568 Q599 573 606 569 Q651 548 690 513 Q701 502 700 491 Q696 478 669 469 L669 315 Q669 296 672 221 Q672 192 673 183 Q673 153 612 148 Q562 144 564 177 Q565 199 565 222 L565 236 ZM230 539 Q263 534 278 530 Q302 524 299 509 Q294 491 264 485 L263 173 Q264 79 264 -15 Q266 -31 266 -73 Q266 -99 223 -106 Q211 -109 195 -109 Q143 -113 146 -78 Q148 -42 150 -5 Q154 73 154 173 L154 426 Q95 350 37 300 Q25 291 21 295 Q17 299 25 311 Q142 482 198 741 Q205 772 205 806 Q302 788 351 762 Q378 749 369 735 Q360 717 325 722 Q283 627 230 539 Z" /><glyph glyph-name="uni4F59" unicode="&#x4f59;" d="M762 19 Q713 135 616 204 Q590 223 624 218 Q706 203 768 175 Q846 140 875 93 Q898 60 892 25 Q887 -8 857 -27 Q827 -43 800 -28 Q775 -14 762 19 ZM392 187 Q411 171 401 160 Q392 148 360 154 Q236 4 64 -61 Q47 -68 44 -63 Q41 -59 54 -48 Q114 5 164 72 Q210 134 236 191 Q249 220 256 250 Q334 224 392 187 ZM567 294 L567 135 Q567 91 570 19 Q573 -28 534 -64 Q491 -103 418 -109 Q395 -111 390 -95 Q378 -67 355 -51 Q318 -22 264 1 Q251 7 253 13 Q254 18 267 17 Q332 9 388 7 Q411 7 427 18 Q447 32 447 61 L447 294 L379 294 Q199 294 137 287 Q120 301 120 329 Q199 320 406 320 L447 320 L447 459 L443 459 Q374 459 313 453 Q301 464 297 486 Q174 396 42 346 Q21 339 19 344 Q17 350 34 361 Q150 435 249 545 Q339 645 396 753 Q415 787 422 819 Q502 804 566 776 Q589 764 581 749 Q575 739 558 738 Q714 569 972 507 Q982 504 981 499 Q980 494 973 491 Q883 447 851 408 Q838 396 822 403 Q738 448 663 536 Q589 623 539 733 Q444 596 304 492 Q370 484 458 484 L527 484 Q558 530 589 559 Q594 564 600 560 Q656 522 689 484 Q696 476 693 468 Q690 459 678 459 L567 459 L567 320 L700 320 Q729 364 768 402 Q772 406 780 402 Q845 362 882 320 Q889 312 886 303 Q883 294 871 294 L567 294 Z" /><glyph glyph-name="uni4F5B" unicode="&#x4f5b;" d="M797 616 L735 616 L735 480 L796 480 Q797 493 797 524 L797 616 ZM796 453 L734 453 L734 304 L817 304 Q839 328 867 350 Q871 352 877 350 Q923 326 954 294 Q963 282 958 272 Q952 261 929 257 Q929 141 911 88 Q887 16 805 -1 Q786 -5 781 11 Q774 36 756 52 Q746 58 734 66 Q735 32 735 -1 Q735 -31 737 -67 Q737 -90 701 -98 Q681 -102 666 -102 Q643 -103 633 -93 Q624 -84 626 -67 Q629 -43 629 -1 Q632 56 632 178 L632 276 L571 276 Q562 118 484 23 Q412 -66 270 -110 Q258 -113 254 -109 Q250 -104 260 -98 Q453 -5 472 276 L420 276 Q403 251 386 234 Q375 223 362 228 Q307 253 280 283 Q267 297 273 307 Q280 318 311 327 Q319 370 326 427 Q334 502 334 528 Q399 506 442 480 L474 480 L474 616 Q346 613 319 610 Q306 622 303 650 Q342 645 474 642 L474 692 Q474 760 467 799 Q545 797 585 787 Q601 783 601 772 Q599 753 572 745 L572 642 L632 642 L632 674 Q632 744 625 802 Q687 802 742 791 Q766 786 766 771 Q766 755 736 749 L735 642 L789 642 Q805 665 833 686 Q837 689 844 687 Q888 665 922 636 Q933 625 928 614 Q923 603 898 595 L898 540 Q899 507 900 475 Q900 466 903 436 Q904 424 885 414 Q867 405 841 403 Q791 400 794 427 Q794 431 796 453 ZM734 276 L733 90 Q749 88 757 88 Q788 86 806 121 Q824 161 824 276 L734 276 ZM632 304 L632 453 L572 453 L572 304 L632 304 ZM632 480 L632 616 L572 616 L572 480 L632 480 ZM474 453 L433 453 Q429 422 412 304 L473 304 Q474 314 474 334 L474 453 ZM221 525 Q262 517 263 517 Q286 511 286 498 Q285 480 250 471 L248 179 Q248 111 250 11 Q251 -27 251 -64 Q251 -90 209 -98 Q185 -101 181 -101 Q130 -105 133 -68 Q136 -20 136 21 Q140 99 140 179 L140 402 Q87 331 30 282 Q18 272 14 277 Q10 282 18 294 Q83 389 130 517 Q171 627 191 739 Q198 781 198 808 Q288 794 344 769 Q371 758 364 742 Q356 725 321 728 Q279 622 221 525 Z" /><glyph glyph-name="uni4F5C" unicode="&#x4f5c;" d="M654 169 Q654 92 656 8 Q657 -31 658 -70 Q658 -83 651 -90 Q640 -101 611 -104 Q605 -104 585 -106 Q554 -107 541 -100 Q528 -93 530 -75 Q533 -21 533 4 Q537 84 537 164 L537 584 L528 584 Q429 421 306 326 Q297 320 293 320 L290 174 Q288 120 290 7 L290 -69 Q290 -97 246 -105 Q228 -107 217 -107 Q189 -108 176 -99 Q164 -91 166 -73 L172 17 Q177 117 177 174 L181 432 L181 435 Q112 347 41 290 Q29 281 25 285 Q21 289 29 301 Q96 395 150 522 Q198 634 222 742 Q228 772 230 811 Q307 801 381 765 Q407 752 398 736 Q389 721 355 723 Q312 629 253 538 Q288 533 309 527 Q335 521 332 505 Q326 488 296 481 L293 336 Q416 518 469 734 Q481 782 481 815 Q580 797 636 772 Q665 758 654 743 Q643 730 609 731 Q573 660 545 611 L762 611 Q807 677 838 703 Q842 707 850 704 Q914 667 959 615 Q969 601 965 593 Q961 584 946 584 L654 584 L654 407 L751 407 Q790 467 817 491 Q823 497 830 491 Q889 455 925 409 Q936 396 932 388 Q928 380 914 380 L654 380 L654 195 L758 195 Q782 236 824 280 Q829 285 838 280 Q896 245 932 198 Q942 186 938 177 Q934 169 920 169 L654 169 Z" /><glyph glyph-name="uni4F60" unicode="&#x4f60;" d="M691 538 L691 181 Q691 159 694 36 Q696 -18 660 -53 Q623 -89 549 -102 Q526 -105 521 -89 Q512 -62 484 -45 Q451 -19 397 3 Q382 9 383 15 Q384 21 400 19 Q466 11 524 13 Q572 13 577 67 L577 429 Q577 536 571 598 Q644 596 698 582 Q719 576 721 564 Q725 546 691 538 ZM545 406 Q568 397 564 383 Q560 367 528 368 Q459 171 294 28 Q283 18 279 21 Q275 24 282 36 Q376 199 405 374 Q411 406 411 441 Q486 426 545 406 ZM950 160 Q955 128 941 102 Q927 74 898 64 Q868 52 846 70 Q824 87 821 122 Q812 195 796 254 Q772 338 729 408 Q721 422 725 424 Q729 426 742 418 Q924 289 950 160 ZM515 642 L791 642 Q810 664 842 693 Q846 697 853 693 Q901 668 948 629 Q977 602 961 583 Q950 571 918 573 Q835 484 763 437 Q753 432 749 435 Q745 438 749 448 Q778 519 796 614 L499 614 Q426 497 315 409 Q304 400 300 403 Q296 407 303 418 Q400 571 432 732 Q441 770 441 809 Q522 799 582 774 Q609 765 600 748 Q591 732 561 735 Q544 693 515 642 ZM234 529 Q244 528 269 522 Q295 516 292 501 Q287 485 259 479 L258 175 Q259 83 259 -9 Q260 -38 261 -67 Q261 -90 218 -99 Q202 -103 188 -103 Q137 -107 140 -72 Q144 -4 144 1 Q147 121 147 175 L147 410 Q99 353 33 300 Q21 290 17 294 Q13 298 21 310 Q146 494 202 743 Q209 776 209 811 Q305 794 359 767 Q386 753 377 739 Q368 722 333 727 Q285 611 234 529 Z" /><glyph glyph-name="uni4F7F" unicode="&#x4f7f;" d="M782 505 L677 505 Q679 412 677 345 Q677 330 676 316 L781 316 Q782 355 782 394 L782 505 ZM780 291 L674 291 Q661 168 605 84 Q739 26 972 38 Q981 38 981 34 Q981 29 972 22 Q899 -42 879 -79 Q872 -91 855 -91 Q680 -86 556 27 Q461 -67 280 -104 Q258 -107 255 -102 Q253 -98 269 -91 Q435 -32 504 84 Q465 136 443 190 Q433 198 419 200 Q411 201 409 206 Q407 211 410 215 Q422 229 434 232 Q447 236 452 226 Q459 203 473 186 Q494 157 527 130 Q555 198 561 291 L464 291 Q465 286 465 282 Q465 250 397 247 Q348 245 351 275 Q354 299 354 312 Q357 384 357 413 L357 459 Q357 529 348 577 Q411 564 472 530 L564 530 Q564 571 562 649 L513 649 Q398 649 328 642 Q313 658 310 684 Q386 675 539 675 L562 675 L562 683 Q562 755 554 803 Q642 801 692 791 Q716 787 716 771 Q714 754 678 748 Q676 726 676 675 L774 675 Q796 712 842 760 Q846 764 853 761 Q912 726 958 673 Q963 667 960 658 Q956 649 944 649 L676 649 Q677 589 677 530 L771 530 Q796 563 819 578 Q825 582 832 579 Q880 555 915 526 Q929 512 924 500 Q919 488 892 481 L892 406 Q894 357 895 308 Q895 285 897 267 Q898 253 880 243 Q861 234 829 232 Q804 231 791 238 Q777 245 778 259 Q780 273 780 291 ZM565 505 L463 505 L462 407 Q463 385 463 324 L463 316 L563 316 Q564 335 564 354 Q565 404 565 505 ZM225 535 Q249 531 276 525 Q304 517 296 500 Q288 483 263 480 L262 176 Q263 93 264 11 Q265 -27 265 -64 Q265 -92 220 -100 Q207 -101 194 -101 Q166 -103 154 -95 Q143 -88 144 -69 L148 21 Q151 138 151 176 L151 424 Q96 349 32 291 Q20 281 16 285 Q12 289 20 302 Q83 399 131 527 Q170 633 194 744 Q202 784 202 813 Q289 797 350 770 Q374 758 367 744 Q360 726 323 729 Q282 630 225 535 Z" /><glyph glyph-name="uni4F8B" unicode="&#x4f8b;" d="M810 53 L810 636 Q810 740 801 791 Q874 788 935 778 Q947 776 952 771 Q957 767 956 760 Q956 745 921 737 L920 143 Q920 133 923 22 Q925 -29 888 -65 Q851 -100 793 -104 Q770 -106 764 -91 Q753 -67 732 -51 Q699 -24 654 -8 Q638 -1 639 4 Q640 10 657 8 Q716 1 758 2 Q808 2 810 53 ZM661 710 Q688 708 756 697 Q768 695 774 689 Q780 684 778 677 Q776 664 747 658 L747 328 Q747 269 749 173 Q750 165 750 120 Q750 98 715 90 Q713 89 688 87 Q662 86 652 93 Q642 100 644 117 Q648 149 648 172 Q651 289 651 330 L651 582 Q651 643 645 699 L491 699 Q480 639 455 557 L507 557 Q529 586 552 602 Q557 606 563 603 Q609 578 642 548 Q652 537 649 527 Q645 515 621 507 Q598 296 508 143 Q415 -14 259 -95 Q245 -103 240 -98 Q235 -93 247 -83 Q403 43 469 270 Q466 266 461 265 Q424 247 407 290 Q402 307 399 323 Q391 361 382 379 Q327 273 259 204 Q246 191 243 196 Q240 199 247 213 Q295 305 328 441 Q358 564 370 698 Q321 696 304 693 Q291 704 289 728 Q255 637 200 537 Q212 535 239 530 Q266 524 261 508 Q256 494 230 489 L228 164 Q228 35 230 -14 Q230 -38 232 -74 Q232 -99 189 -106 Q171 -108 160 -109 Q134 -110 124 -101 Q114 -93 116 -76 Q118 -44 120 -12 Q124 64 124 173 L126 417 Q80 349 30 298 Q20 287 16 290 Q11 293 18 306 Q120 491 166 734 Q173 774 173 813 Q255 800 315 781 Q338 772 331 755 Q323 744 294 741 Q292 735 291 733 Q350 724 453 724 L498 724 Q525 775 558 805 Q562 808 568 805 Q616 776 653 729 Q662 717 661 710 ZM489 347 Q506 428 512 530 L446 530 Q421 458 396 407 Q470 392 489 347 Z" /><glyph glyph-name="uni4F9B" unicode="&#x4f9b;" d="M901 -71 Q844 -101 810 -37 Q781 22 759 56 Q715 124 659 165 Q646 175 650 179 Q654 183 670 181 Q760 162 834 118 Q905 76 923 34 Q936 7 930 -24 Q924 -57 901 -71 ZM612 128 Q632 111 621 98 Q609 86 578 93 Q452 -44 275 -98 Q257 -103 254 -98 Q251 -94 266 -84 Q322 -49 373 15 Q417 70 443 125 Q459 159 469 195 Q551 168 612 128 ZM784 556 L804 556 Q826 603 854 642 Q861 648 869 643 Q918 609 948 556 Q955 544 951 536 Q947 528 935 528 L784 528 L783 259 L811 259 Q842 317 871 352 Q877 358 883 352 Q936 312 973 258 Q980 248 977 240 Q973 231 961 231 L472 231 Q404 231 298 225 Q284 242 282 265 Q361 260 440 259 L440 527 Q346 525 320 523 Q306 539 304 564 Q370 559 440 557 L440 687 Q440 746 431 795 Q513 793 572 783 Q596 780 596 765 Q596 757 587 750 Q577 743 558 739 L557 556 L666 556 L666 687 Q666 739 657 795 Q740 793 799 783 Q822 780 822 765 Q822 746 784 739 L784 556 ZM666 259 L666 528 L557 528 L556 259 L666 259 ZM233 533 Q251 530 271 525 Q299 517 292 501 Q285 485 258 480 L257 179 Q257 64 259 13 Q260 -25 260 -63 Q260 -89 219 -97 Q192 -100 189 -100 Q136 -104 138 -67 L142 23 Q146 103 146 179 L146 408 Q90 338 32 290 Q19 280 15 284 Q11 288 19 301 Q86 397 135 523 Q177 630 199 742 Q205 772 207 811 Q297 796 358 766 Q384 752 377 739 Q368 723 333 725 Q295 635 233 533 Z" /><glyph glyph-name="uni4F9D" unicode="&#x4f9d;" d="M722 297 Q770 192 842 112 Q909 38 980 2 Q986 -2 985 -6 Q983 -12 977 -13 Q872 -40 844 -66 Q830 -80 816 -65 Q755 -1 716 104 Q564 -11 446 -75 Q449 -101 440 -109 Q431 -117 415 -97 Q380 -59 342 23 Q381 31 408 41 Q448 53 448 93 L448 312 Q366 250 276 209 Q273 207 269 206 L269 176 Q269 111 271 11 Q272 -28 272 -66 Q272 -89 237 -98 Q220 -103 200 -103 Q146 -106 149 -70 Q151 -25 153 21 Q157 99 157 176 L157 410 Q96 335 33 285 Q20 275 17 280 Q14 285 23 297 Q91 390 145 520 Q192 634 216 743 Q224 781 227 814 Q303 799 369 769 Q397 757 391 740 Q383 724 351 727 Q307 628 241 525 Q265 522 284 517 Q312 510 307 494 Q302 477 271 472 L269 223 Q421 347 505 512 Q515 534 527 570 L494 570 Q386 570 320 563 Q306 577 304 605 Q378 597 518 597 L545 597 L545 695 Q545 754 535 804 Q613 804 677 793 Q702 786 701 773 Q699 757 663 749 L661 597 L774 597 Q796 636 839 684 Q844 689 851 685 Q913 642 951 598 Q958 589 954 579 Q950 570 939 570 L624 570 Q646 564 667 554 Q691 542 682 529 Q678 520 656 520 Q673 413 710 325 Q769 387 804 451 Q820 481 825 501 Q893 459 939 405 Q954 383 942 374 Q929 364 904 379 Q818 329 722 297 ZM711 118 Q654 275 640 515 Q589 442 525 379 Q555 375 566 372 Q579 369 585 363 Q591 357 589 350 Q582 336 554 332 L554 59 Q631 85 707 117 L711 118 Z" /><glyph glyph-name="uni4FB5" unicode="&#x4fb5;" d="M831 288 Q858 270 870 258 Q886 239 876 227 Q867 216 835 211 Q781 126 714 66 Q813 34 973 23 Q980 22 980 18 Q979 12 970 7 Q888 -42 862 -82 Q856 -92 841 -90 Q708 -65 622 0 Q491 -76 287 -104 Q266 -106 265 -99 Q265 -94 281 -89 Q447 -43 563 54 Q498 128 465 246 Q424 244 398 241 Q394 244 386 260 Q365 240 335 234 Q304 229 283 251 Q266 270 272 299 Q278 326 298 340 Q369 386 373 462 Q374 473 379 474 Q384 474 390 463 Q404 438 412 405 L802 405 Q823 430 849 450 Q855 454 860 451 Q919 421 949 390 Q975 362 962 343 Q951 326 912 332 Q886 313 831 288 ZM789 312 Q800 348 805 378 L417 378 Q422 322 400 280 Q452 275 555 275 L713 275 Q731 298 763 319 Q768 321 775 319 Q782 315 789 312 ZM737 615 L598 615 Q460 615 415 610 Q401 627 400 648 Q486 642 617 642 L737 642 L737 728 L587 728 Q450 728 404 723 Q390 739 387 761 Q455 755 608 755 L726 755 Q760 791 776 804 Q781 808 789 805 Q837 784 874 752 Q885 742 881 730 Q876 716 849 709 L849 598 Q851 509 854 476 Q856 446 785 440 Q761 438 747 446 Q733 454 734 469 Q735 484 735 499 L585 499 Q464 499 402 494 Q387 510 386 532 Q474 526 604 526 L736 526 Q737 546 737 584 L737 615 ZM620 108 Q681 176 716 248 L553 248 Q514 248 484 247 Q534 158 620 108 ZM226 531 Q261 526 276 522 Q287 519 294 513 Q300 507 299 501 Q296 484 263 478 L262 175 Q263 82 263 -10 Q265 -26 265 -68 Q265 -94 222 -102 Q209 -104 194 -105 Q139 -109 144 -73 Q146 -37 148 0 Q152 160 152 175 L152 426 Q92 352 34 301 Q21 292 18 296 Q14 301 22 313 Q85 403 134 528 Q175 633 202 748 Q209 781 211 814 Q297 800 357 771 Q380 759 375 745 Q368 727 331 730 Q289 631 226 531 Z" /><glyph glyph-name="uni4FBF" unicode="&#x4fbf;" d="M788 414 L687 414 Q687 347 685 299 Q685 288 684 282 L787 282 Q788 327 788 372 L788 414 ZM788 439 L788 562 L687 562 L687 439 L788 439 ZM787 257 L682 257 Q671 148 622 74 Q758 24 973 42 Q981 42 981 39 Q983 34 973 26 Q901 -39 881 -79 Q874 -92 857 -90 Q677 -77 570 13 Q470 -80 284 -106 Q262 -108 259 -102 Q257 -98 274 -92 Q446 -41 514 73 Q479 120 458 173 Q455 182 434 189 Q419 194 426 207 Q434 220 452 219 Q461 218 468 206 Q471 201 475 188 Q496 147 536 118 Q560 176 568 257 L475 256 Q477 226 408 223 Q360 221 361 249 Q363 268 365 288 Q368 363 368 390 L368 521 Q368 575 359 634 Q419 620 483 587 L574 587 Q574 646 573 705 L536 705 Q423 705 352 698 Q338 712 335 731 Q330 730 318 730 Q276 629 220 534 Q245 532 273 525 Q296 519 295 506 Q292 487 260 480 L259 177 Q260 93 261 10 Q262 -28 262 -65 Q262 -92 220 -99 Q210 -102 191 -102 Q138 -107 141 -69 Q145 -5 145 20 Q148 134 148 177 L148 425 Q91 347 34 294 Q23 283 18 287 Q13 291 21 304 Q81 400 128 528 Q168 638 189 745 Q196 787 196 811 Q281 796 340 772 Q364 762 359 747 Q358 743 351 738 Q442 731 562 731 L778 731 Q797 766 845 816 Q849 820 856 817 Q918 782 961 729 Q966 722 963 714 Q960 705 947 705 L687 705 L687 587 L779 587 Q799 616 821 632 Q827 636 834 633 Q884 613 924 579 Q936 567 930 556 Q924 546 900 536 L900 388 Q903 337 903 290 Q903 267 905 247 Q906 233 887 223 Q867 213 836 211 Q812 209 799 216 Q784 223 785 237 Q786 247 787 257 ZM575 439 L575 562 L473 562 Q472 535 472 439 L575 439 ZM575 414 L472 414 L472 386 Q473 365 473 297 L473 282 L570 282 Q572 300 572 308 Q573 336 575 414 Z" /><glyph glyph-name="uni4FC3" unicode="&#x4fc3;" d="M760 725 L515 725 L515 507 L759 507 Q760 539 760 572 L760 725 ZM759 481 L700 481 L700 273 L758 273 Q793 330 820 358 Q824 364 831 359 Q881 324 922 272 Q931 260 927 251 Q924 243 911 243 L700 243 L700 43 Q801 32 971 46 Q991 47 972 30 Q907 -33 893 -65 Q889 -80 869 -80 Q770 -79 708 -69 Q622 -55 574 -19 Q502 34 474 137 Q410 -6 290 -86 Q279 -94 275 -91 Q271 -88 280 -75 Q379 52 405 291 Q407 329 408 367 Q485 354 539 335 Q559 325 558 310 Q554 295 525 295 Q509 219 487 166 Q525 101 587 71 L587 481 L515 481 Q516 467 516 454 Q514 420 442 417 Q395 415 398 449 Q401 470 401 482 Q405 532 405 579 L405 684 Q405 759 397 807 Q448 793 523 753 L751 753 Q778 786 795 799 Q800 804 809 800 Q864 775 898 746 Q910 735 906 723 Q901 709 872 702 L872 580 Q874 537 875 494 Q877 474 877 463 Q879 432 813 426 Q755 425 758 454 Q759 467 759 481 ZM232 529 Q266 523 278 520 Q301 514 301 501 Q299 481 265 474 L263 179 Q263 61 264 11 Q265 2 265 -64 Q265 -89 226 -97 Q208 -101 193 -101 Q140 -105 143 -68 Q147 -36 147 21 Q151 177 151 179 L151 418 Q91 345 33 297 Q21 287 17 292 Q14 297 22 309 Q86 399 136 526 Q178 634 202 745 Q209 776 211 813 Q303 796 360 769 Q383 757 380 743 Q375 726 339 728 Q297 629 232 529 Z" /><glyph glyph-name="uni4FDD" unicode="&#x4fdd;" d="M724 722 L502 722 L501 598 Q501 542 502 517 L723 517 Q724 548 724 580 L724 722 ZM722 492 L666 492 L666 331 L775 331 Q811 387 842 417 Q847 422 854 418 Q919 375 956 329 Q961 322 958 313 Q955 304 942 304 L678 304 Q727 221 809 155 Q884 95 976 58 Q987 53 986 48 Q985 42 972 39 Q933 27 909 18 Q873 4 859 -8 Q847 -19 831 -7 Q774 29 728 112 Q685 190 666 283 L666 89 Q666 45 668 -11 Q668 -39 670 -73 Q671 -103 596 -109 Q543 -113 548 -77 Q551 -46 553 -14 Q553 -2 557 66 L561 160 Q519 103 471 65 Q383 -3 281 -38 Q271 -41 265 -41 L265 -65 Q265 -90 227 -98 Q216 -100 195 -102 Q142 -106 145 -69 Q147 -25 149 20 Q152 137 152 178 L152 410 Q91 334 34 288 Q22 278 18 282 Q14 287 22 299 Q88 396 138 520 Q183 631 205 742 Q210 774 212 809 Q307 794 362 768 Q385 757 381 743 Q375 726 338 727 Q295 624 235 529 Q267 523 278 520 Q289 517 296 511 Q302 505 301 499 Q298 481 265 474 L263 178 Q263 60 264 10 Q265 5 265 -32 Q269 -28 272 -26 Q354 31 425 124 Q493 212 530 304 L513 304 Q376 304 311 299 Q297 310 293 339 Q358 331 533 331 L556 331 L556 492 L502 492 Q503 477 503 463 Q501 429 431 426 Q383 424 387 458 Q387 461 388 463 Q390 477 390 491 Q393 563 393 588 L393 684 Q393 749 386 799 Q448 782 513 748 L712 748 Q744 786 763 800 Q768 804 776 801 Q821 781 862 747 Q875 736 871 724 Q866 710 837 702 L837 589 Q837 543 840 504 Q841 488 842 473 Q843 446 777 440 Q752 438 737 445 Q721 451 721 465 Q722 478 722 492 Z" /><glyph glyph-name="uni4FE1" unicode="&#x4fe1;" d="M872 492 Q882 479 879 471 Q875 462 862 462 L589 462 Q466 462 416 457 Q401 472 399 497 Q489 490 597 489 L704 489 Q739 543 768 569 Q774 573 778 570 Q844 524 872 492 ZM872 360 Q882 347 878 338 Q875 330 862 330 L588 330 Q461 330 416 324 Q402 341 399 364 Q489 357 597 356 L702 356 Q728 396 768 437 Q772 441 778 438 Q844 393 872 360 ZM757 189 L517 189 L517 3 L757 3 L757 189 ZM756 -24 L518 -24 L518 -70 Q518 -100 446 -104 Q393 -107 396 -75 Q397 -70 399 -39 Q401 6 402 51 L402 146 Q402 214 394 271 Q461 250 525 215 L748 215 Q778 251 798 266 Q803 270 811 267 Q855 244 898 207 Q909 197 905 184 Q900 170 872 162 L872 60 Q874 17 875 -25 Q877 -47 877 -65 Q878 -80 858 -89 Q838 -98 807 -100 Q751 -101 754 -72 Q755 -50 756 -27 L756 -24 ZM679 624 L789 624 Q826 681 858 709 Q863 712 868 710 Q927 676 969 627 Q978 615 975 606 Q972 598 959 598 L534 598 Q370 598 325 592 Q311 609 308 633 Q419 625 548 624 L566 624 L566 699 Q566 744 558 789 Q641 789 694 780 Q719 773 716 758 Q712 743 680 739 L679 624 ZM234 531 Q256 528 285 521 Q311 514 308 500 Q303 482 272 475 L269 254 Q267 147 273 8 Q274 -29 274 -66 Q274 -76 265 -84 Q253 -95 229 -99 Q213 -103 199 -103 Q146 -107 149 -71 Q153 -37 153 18 Q157 174 157 179 L157 421 Q97 344 33 290 Q21 280 16 285 Q12 289 20 301 Q88 393 139 524 Q181 632 206 748 Q211 766 216 814 Q304 798 366 768 Q392 754 384 741 Q373 725 341 728 Q290 619 234 531 Z" /><glyph glyph-name="uni4FEE" unicode="&#x4fee;" d="M947 99 Q968 78 955 68 Q943 60 919 71 Q731 -83 368 -110 Q348 -111 347 -105 Q347 -100 361 -97 Q505 -68 626 -2 Q730 54 800 126 Q825 151 844 178 Q910 137 947 99 ZM765 337 Q783 320 774 313 Q764 303 740 311 Q623 212 429 176 Q412 173 410 177 Q407 181 423 189 Q560 254 639 351 Q664 385 670 397 Q725 369 765 337 ZM862 231 Q881 212 870 204 Q861 195 835 203 Q700 92 436 45 Q416 43 416 49 Q416 54 429 59 Q619 125 730 249 Q754 277 764 295 Q829 261 862 231 ZM759 508 Q849 467 970 457 Q996 454 971 441 Q895 398 875 366 Q866 350 845 357 Q753 385 685 442 Q575 362 399 323 L398 263 Q398 173 399 126 Q401 91 402 57 Q402 35 372 27 Q360 23 338 21 Q313 19 303 27 Q294 34 295 52 Q298 115 298 127 Q302 199 302 273 L302 520 Q302 604 295 656 Q354 656 412 641 Q424 638 429 633 Q434 628 432 622 Q429 607 401 602 L400 472 Q483 581 525 742 Q532 769 536 814 Q609 798 667 774 Q689 763 684 751 Q679 739 647 740 Q637 722 626 704 L744 704 Q755 718 792 747 Q797 752 804 748 Q862 721 891 692 Q908 676 900 665 Q892 653 860 650 Q816 566 759 508 ZM677 555 Q718 610 748 681 L611 681 Q599 663 587 646 Q624 595 677 555 ZM631 499 Q591 551 568 621 Q491 519 410 464 Q406 461 400 458 L399 340 Q536 398 631 499 ZM217 536 Q231 534 261 526 Q287 519 281 502 Q275 486 248 481 L248 169 Q248 13 249 -13 Q250 -43 250 -73 Q250 -97 216 -105 Q198 -109 184 -109 Q133 -113 136 -78 L139 -3 Q143 79 143 169 L143 425 Q90 354 33 305 Q22 295 17 299 Q12 303 20 315 Q81 407 127 532 Q166 638 189 749 Q196 791 196 815 Q290 795 339 772 Q364 758 355 744 Q348 728 313 731 Q270 625 217 536 Z" /><glyph glyph-name="uni5012" unicode="&#x5012;" d="M823 49 L823 644 Q823 747 814 798 Q886 796 945 786 Q956 784 962 778 Q968 772 967 766 Q963 751 931 745 L931 142 Q931 78 934 21 Q935 -30 899 -63 Q864 -95 801 -105 Q778 -107 773 -91 Q762 -61 738 -46 Q703 -25 656 -9 Q640 -3 641 3 Q642 8 659 7 Q723 -1 770 -1 Q793 -1 808 12 Q823 25 823 49 ZM765 669 L764 349 Q765 272 766 196 Q767 169 767 143 Q767 113 712 110 Q658 104 663 140 Q666 188 666 195 Q669 252 669 350 L669 593 Q669 656 662 721 Q724 719 776 708 Q797 703 797 691 Q797 676 765 669 ZM541 469 Q450 430 332 397 Q334 373 320 365 Q308 358 298 379 Q276 425 261 501 Q271 500 298 500 Q338 502 353 542 Q377 608 394 697 Q345 696 296 690 Q288 697 282 714 Q244 619 196 533 Q222 530 237 527 Q256 523 259 512 Q261 496 228 486 L226 164 Q225 129 228 -12 Q228 -37 230 -71 Q231 -85 217 -94 Q199 -106 164 -107 Q133 -109 122 -101 Q111 -93 113 -73 Q115 -42 117 -10 Q121 142 121 174 L123 416 Q72 343 29 300 Q18 289 14 292 Q9 295 16 308 Q113 478 163 735 Q168 761 170 813 Q252 801 313 782 Q338 771 329 755 Q321 743 293 742 Q290 735 287 728 Q341 721 433 721 L492 721 Q524 770 554 798 Q558 802 563 798 Q607 773 647 724 Q653 716 650 707 Q647 697 635 697 L528 697 Q433 555 378 494 Q423 495 535 501 Q525 549 496 587 Q489 598 492 600 Q495 602 508 596 Q561 575 599 541 Q637 507 646 473 Q653 446 645 422 Q636 396 613 385 Q588 375 569 387 Q551 399 547 424 Q544 445 541 469 ZM510 245 L523 245 Q544 287 568 311 Q573 315 577 311 Q611 288 644 245 Q651 237 647 228 Q643 219 631 219 L510 219 L509 77 Q563 83 649 98 Q664 100 666 95 Q667 90 653 81 Q528 13 332 -48 Q332 -73 324 -83 Q318 -89 312 -85 Q304 -80 296 -65 Q268 -14 250 62 Q265 60 313 60 Q360 63 406 66 L406 219 Q323 219 291 214 Q277 230 274 252 Q305 247 406 245 L406 312 Q406 371 398 412 Q452 411 518 400 Q545 394 543 379 Q541 365 511 357 L510 245 Z" /></font>
</defs>
</svg>
