<?xml version="1.0" standalone="no"?><!DOCTYPE svg PUBLIC "-//W3C//DTD SVG 1.1//EN" "http://www.w3.org/Graphics/SVG/1.1/DTD/svg11.dtd" ><svg xmlns="http://www.w3.org/2000/svg"><metadata></metadata><defs><font id="fonteditor" horiz-adv-x="1872"><font-face font-family="Aldine721 Lt BT" font-weight="400" font-stretch="normal" units-per-em="2048" panose-1="2 4 5 3 6 5 6 9 2 3" ascent="1972" descent="-483" x-height="3" bbox="-332 -397 1976 1499" underline-thickness="90" underline-position="-195" unicode-range="U+0041-2263" /><missing-glyph horiz-adv-x="1229" d="M102 -362 L102 1444 L1126 1444 L1126 -362 L102 -362 ZM217 -248 L1012 -248 L1012 1329 L217 1329 L217 -248 Z" /><glyph glyph-name="A" unicode="a" d="M-186 0 L-186 61 Q-58 93 77 281 L88 297 L944 1479 L1069 1479 L1030 244 L1030 225 Q1030 142 1065 107 Q1100 72 1192 61 L1184 0 L655 0 L664 61 Q761 69 799 109.5 Q837 150 844 260 L864 614 L399 614 L158 274 Q138 248 127.5 218.5 Q117 189 117 164 Q117 117 158.5 90.5 Q200 64 276 61 L276 0 L-186 0 ZM444 676 L866 676 L903 1331 L444 676 Z" /><glyph glyph-name="B" unicode="b" d="M846 1450 Q1075 1450 1201 1369 Q1327 1288 1327 1141 Q1327 1002 1216 898.5 Q1105 795 907 750 Q1060 703 1143.5 613.5 Q1227 524 1227 406 Q1227 225 1085.5 118.5 Q944 12 688 0 L-88 0 L-74 61 Q22 70 72 123 Q122 176 172 362 L377 1108 Q399 1192 405.5 1224 Q412 1256 412 1276 Q412 1334 376 1361.5 Q340 1389 264 1389 L248 1389 L264 1450 L846 1450 ZM350 348 Q328 264 321.5 232.5 Q315 201 315 182 Q315 118 362 89.5 Q409 61 516 61 Q767 61 897.5 155.5 Q1028 250 1028 430 Q1028 578 902 658.5 Q776 739 543 739 Q509 739 490.5 738.5 Q472 738 457 737 L350 348 ZM473 801 Q506 798 539 796.5 Q572 795 604 795 Q854 795 990 882 Q1126 969 1126 1126 Q1126 1250 1030 1321.5 Q934 1393 766 1393 Q734 1393 702 1391 Q670 1389 637 1384 L473 801 Z" /><glyph glyph-name="C" unicode="c" d="M1425 1350 L1339 1042 L1296 1053 Q1297 1061 1297.5 1070.5 Q1298 1080 1298 1098 Q1298 1247 1201 1336 Q1104 1425 940 1425 Q835 1425 733.5 1379 Q632 1333 541 1243 Q409 1115 341.5 938.5 Q274 762 274 547 Q274 308 381.5 170.5 Q489 33 674 33 Q836 33 959 146.5 Q1082 260 1178 498 L1229 487 L1155 164 Q1048 72 914 22.5 Q780 -27 637 -27 Q385 -27 231.5 139 Q78 305 78 580 Q78 773 157.5 948 Q237 1123 387 1262 Q508 1371 651 1427 Q794 1483 956 1483 Q1073 1483 1187 1450.5 Q1301 1418 1425 1350 Z" /><glyph glyph-name="D" unicode="d" d="M653 1388 L365 347 L360 328 Q330 214 330 182 Q330 117 384.5 87 Q439 57 557 57 Q878 57 1063.5 270 Q1249 483 1249 852 Q1249 1107 1117 1251 Q985 1395 750 1395 Q727 1395 702.5 1393.5 Q678 1392 653 1388 ZM-70 0 L-57 61 Q36 65 86 117.5 Q136 170 188 365 L393 1110 L395 1118 Q428 1242 428 1276 Q428 1334 392.5 1361.5 Q357 1389 281 1389 L264 1389 L281 1450 L786 1450 Q1126 1450 1287 1301.5 Q1448 1153 1448 840 Q1448 625 1357 437.5 Q1266 250 1108 137 Q1009 67 879 33.5 Q749 0 573 0 L-70 0 Z" /><glyph glyph-name="E" unicode="e" d="M1360 1450 L1274 1120 L1225 1120 Q1225 1122 1225 1126 Q1229 1174 1229 1194 Q1229 1302 1176 1345.5 Q1123 1389 985 1389 L647 1389 L485 801 L659 801 Q854 801 931.5 841.5 Q1009 882 1055 985 L1114 985 L975 481 L918 481 Q918 485 919 491 Q926 533 926 553 Q926 647 859.5 692 Q793 737 653 737 L469 737 L362 348 L360 340 Q328 216 328 182 Q328 117 373.5 89 Q419 61 528 61 Q667 61 749.5 77.5 Q832 94 897 131 Q942 156 1003.5 214.5 Q1065 273 1153 375 L1200 371 L1059 0 L-78 0 L-61 61 Q33 70 82 122 Q131 174 182 362 L387 1108 Q409 1192 415.5 1224 Q422 1256 422 1276 Q422 1334 386 1361.5 Q350 1389 274 1389 L258 1389 L276 1450 L1360 1450 Z" /><glyph glyph-name="F" unicode="f" d="M1382 1450 L1296 1120 L1249 1120 Q1250 1124 1250 1130 Q1253 1172 1253 1192 Q1253 1301 1199.5 1345 Q1146 1389 1008 1389 L672 1389 L508 801 L684 801 Q878 801 955 841 Q1032 881 1077 985 L1137 985 L997 481 L940 481 Q941 485 942 492 Q948 533 948 553 Q948 647 881.5 692 Q815 737 676 737 L492 737 L385 348 Q364 267 357 231 Q350 195 350 170 Q350 115 387.5 88 Q425 61 504 61 L487 0 L-53 0 L-39 61 Q57 70 107 123 Q157 176 207 362 L409 1107 Q413 1120 419 1142 Q446 1246 446 1276 Q446 1333 409.5 1361 Q373 1389 297 1389 L281 1389 L299 1450 L1382 1450 Z" /><glyph glyph-name="G" unicode="g" d="M1487 725 L1470 670 Q1364 651 1323.5 609.5 Q1283 568 1270 469 L1180 84 Q1063 26 941 -2.5 Q819 -31 690 -31 Q404 -31 244 130.5 Q84 292 84 580 Q84 773 163.5 948 Q243 1123 393 1262 Q515 1373 664 1430 Q813 1487 981 1487 Q1100 1487 1224.5 1453.5 Q1349 1420 1479 1354 L1395 1049 L1352 1057 Q1353 1066 1353.5 1076 Q1354 1086 1354 1106 Q1354 1254 1247.5 1339.5 Q1141 1425 956 1425 Q844 1425 742 1380 Q640 1335 547 1243 Q415 1115 348 938.5 Q281 762 281 547 Q281 301 391.5 167 Q502 33 705 33 Q787 33 861 55 Q935 77 997 121 L1085 494 Q1091 530 1093.5 548.5 Q1096 567 1096 578 Q1096 618 1061 639 Q1026 660 940 670 L954 725 L1487 725 Z" /><glyph glyph-name="H" unicode="h" d="M1186 801 L1272 1110 L1274 1118 Q1307 1242 1307 1276 Q1307 1332 1273 1359.5 Q1239 1387 1167 1389 L1182 1450 L1720 1450 L1704 1389 Q1607 1377 1548 1308 Q1489 1239 1448 1087 L1243 342 Q1221 258 1214.5 226 Q1208 194 1208 174 Q1208 117 1244 89 Q1280 61 1354 61 L1337 0 L801 0 L817 61 Q986 72 1066 361 L1067 365 L1169 739 L471 739 L362 342 Q340 258 334 226 Q328 194 328 174 Q328 117 364 89 Q400 61 473 61 L481 61 L465 0 L-70 0 L-57 61 Q37 70 86 122 Q135 174 186 365 L391 1110 L393 1118 Q426 1242 426 1276 Q426 1332 392 1359.5 Q358 1387 287 1389 L303 1450 L862 1450 L844 1389 Q737 1384 674 1316 Q611 1248 567 1087 L487 801 L1186 801 Z" /><glyph glyph-name="I" unicode="i" d="M862 1450 L846 1389 Q739 1384 676 1316 Q613 1248 569 1087 L365 342 Q342 258 336 226 Q330 194 330 174 Q330 117 366 89 Q402 61 475 61 L483 61 L467 0 L-74 0 L-61 61 Q34 70 84 123 Q134 176 184 365 L389 1110 L391 1118 Q424 1242 424 1276 Q424 1332 390 1359.5 Q356 1387 285 1389 L299 1450 L862 1450 Z" /><glyph glyph-name="J" unicode="j" d="M788 1317 Q809 1393 850 1436 Q891 1479 942 1479 Q972 1479 991 1458 Q1010 1437 1010 1403 Q1010 1343 958.5 1295.5 Q907 1248 819 1227 Q783 1106 755.5 1006 Q728 906 709 829 L860 829 L846 768 L690 768 Q521 131 352.5 -120 Q184 -371 -61 -371 Q-172 -371 -241.5 -327.5 Q-311 -284 -311 -217 Q-311 -177 -288 -154 Q-265 -131 -225 -131 Q-192 -131 -171 -147 Q-150 -163 -129 -207 Q-106 -256 -76 -281.5 Q-46 -307 -10 -307 Q205 -307 488 678 L514 768 L295 768 L311 829 L541 829 Q560 888 600.5 977 Q641 1066 713 1206 Q704 1204 694.5 1203 Q685 1202 666 1202 Q628 1202 591.5 1215 Q555 1228 514 1255 Q495 1268 462 1295 Q372 1366 313 1366 Q261 1366 225.5 1340 Q190 1314 190 1276 Q190 1253 231 1201.5 Q272 1150 272 1110 Q272 1074 249.5 1051 Q227 1028 193 1028 Q152 1028 124 1061 Q96 1094 96 1145 Q96 1179 107 1217 Q118 1255 139 1294 Q193 1392 254 1434.5 Q315 1477 401 1477 Q506 1477 622 1364 Q638 1348 647 1339 Q665 1323 686 1315 Q707 1307 731 1307 Q748 1307 762 1309.5 Q776 1312 788 1317 Z" /><glyph glyph-name="K" unicode="k" d="M485 748 L1010 1106 Q1115 1179 1162.5 1228.5 Q1210 1278 1210 1315 Q1210 1352 1183 1370.5 Q1156 1389 1102 1389 L1094 1389 L1110 1450 L1575 1450 L1554 1382 Q1478 1379 1299 1236 Q1239 1187 1204 1161 Q1063 1053 722 829 L659 788 L1085 215 Q1135 148 1219 105.5 Q1303 63 1392 61 L1368 0 L1049 0 Q1032 8 1020 17.5 Q1008 27 1000 38 L485 748 ZM358 342 Q336 258 330 226 Q324 194 324 174 Q324 117 359.5 89 Q395 61 469 61 L477 61 L461 0 L-102 0 L-90 61 Q19 64 74 116.5 Q129 169 182 365 L387 1110 L389 1118 Q422 1242 422 1276 Q422 1334 386 1361.5 Q350 1389 272 1389 L289 1450 L856 1450 L840 1389 Q733 1384 669 1315.5 Q605 1247 561 1087 L358 342 Z" /><glyph glyph-name="L" unicode="l" d="M-57 0 L-43 61 Q53 70 103 123 Q153 176 203 362 L405 1107 Q409 1120 414 1141 Q442 1246 442 1276 Q442 1333 405.5 1361 Q369 1389 293 1389 L276 1389 L295 1450 L879 1450 L862 1389 Q756 1384 693 1316 Q630 1248 586 1087 L358 260 Q352 237 349 217 Q346 197 346 180 Q346 117 392.5 89 Q439 61 547 61 Q686 61 769 77.5 Q852 94 918 131 Q961 156 1020.5 212.5 Q1080 269 1171 375 L1219 371 L1077 0 L-57 0 Z" /><glyph glyph-name="M" unicode="m" d="M-82 0 L-66 61 Q26 85 87.5 157.5 Q149 230 203 383 L489 1200 Q498 1227 502 1243 Q506 1259 506 1270 Q506 1323 473 1352 Q440 1381 369 1389 L385 1450 L739 1450 Q729 1400 724 1353 Q719 1306 719 1266 Q719 1243 719.5 1232.5 Q720 1222 721 1214 L817 309 L1352 1184 Q1389 1244 1413 1311 Q1437 1378 1448 1450 L1812 1450 L1794 1389 Q1713 1387 1661 1344.5 Q1609 1302 1599 1228 L1483 293 Q1481 279 1480 263.5 Q1479 248 1479 215 Q1479 131 1514 96 Q1549 61 1632 61 L1614 0 L1077 0 L1094 61 L1100 61 Q1195 61 1241.5 113 Q1288 165 1305 293 L1417 1182 L877 295 Q846 245 809 168 Q772 91 735 0 L670 0 L537 1178 L246 315 Q231 273 223 235 Q215 197 215 174 Q215 127 257 97 Q299 67 375 61 L358 0 L-82 0 Z" /><glyph glyph-name="N" unicode="n" d="M230 1389 L246 1450 L518 1450 L1126 287 L1339 1049 Q1355 1103 1363.5 1154 Q1372 1205 1372 1235 Q1372 1316 1334.5 1351.5 Q1297 1387 1211 1389 L1227 1450 L1663 1450 L1647 1389 Q1565 1387 1510.5 1311.5 Q1456 1236 1397 1028 L1165 207 L1268 0 L1075 0 L479 1139 L283 422 Q264 356 254 300 Q244 244 244 211 Q244 136 281.5 103.5 Q319 71 420 61 L403 0 L-61 0 L-43 61 Q54 73 112 152.5 Q170 232 236 471 L442 1229 Q400 1317 352.5 1352 Q305 1387 230 1389 Z" /><glyph glyph-name="O" unicode="o" d="M883 1479 Q1137 1479 1294.5 1317 Q1452 1155 1452 893 Q1452 716 1378.5 538 Q1305 360 1174 221 Q1055 96 920.5 32.5 Q786 -31 641 -31 Q392 -31 238 137.5 Q84 306 84 580 Q84 733 138.5 881.5 Q193 1030 297 1163 Q417 1317 567 1398 Q717 1479 883 1479 ZM1255 911 Q1255 1149 1148.5 1286 Q1042 1423 858 1423 Q764 1423 679.5 1379 Q595 1335 526 1249 Q414 1110 347.5 916 Q281 722 281 532 Q281 301 386.5 165 Q492 29 670 29 Q782 29 884.5 88 Q987 147 1071 262 Q1158 381 1206.5 552 Q1255 723 1255 911 Z" /><glyph glyph-name="P" unicode="p" d="M-74 0 L-57 61 Q38 70 88.5 124 Q139 178 188 362 L393 1108 Q415 1192 421.5 1224 Q428 1256 428 1276 Q428 1334 392 1361.5 Q356 1389 281 1389 L264 1389 L281 1450 L854 1450 Q1103 1450 1225.5 1366.5 Q1348 1283 1348 1114 Q1348 907 1182.5 786.5 Q1017 666 731 666 Q658 666 620 676 Q582 686 582 707 Q582 722 592.5 728.5 Q603 735 627 735 Q635 735 669.5 732 Q704 729 729 729 Q917 729 1031 833.5 Q1145 938 1145 1110 Q1145 1248 1051.5 1320.5 Q958 1393 780 1393 Q751 1393 719 1390.5 Q687 1388 653 1384 L369 348 Q346 265 340 234 Q334 203 334 182 Q334 124 372.5 95 Q411 66 495 61 L479 0 L-74 0 Z" /><glyph glyph-name="Q" unicode="q" d="M627 -31 L352 -233 Q422 -206 490 -192 Q558 -178 627 -178 Q731 -178 888.5 -221 Q1046 -264 1098 -264 Q1175 -264 1254.5 -240.5 Q1334 -217 1442 -162 L1442 -221 Q1281 -312 1169.5 -349.5 Q1058 -387 954 -387 Q871 -387 710.5 -346 Q550 -305 467 -305 Q400 -305 325 -321.5 Q250 -338 166 -371 L137 -330 L549 -25 Q334 11 209 173.5 Q84 336 84 580 Q84 732 138 880 Q192 1028 295 1157 Q419 1313 574 1396 Q729 1479 895 1479 Q1141 1479 1296.5 1315.5 Q1452 1152 1452 893 Q1452 667 1336.5 454.5 Q1221 242 1022 102 Q933 40 834.5 7 Q736 -26 627 -31 ZM1255 911 Q1255 1143 1149 1282 Q1043 1421 868 1421 Q776 1421 691 1376.5 Q606 1332 537 1247 Q417 1103 349 913 Q281 723 281 532 Q281 305 384.5 167 Q488 29 655 29 Q773 29 884 104 Q995 179 1092 324 Q1168 439 1211.5 595.5 Q1255 752 1255 911 Z" /><glyph glyph-name="R" unicode="r" d="M461 801 Q494 798 526.5 796.5 Q559 795 590 795 Q839 795 976.5 882.5 Q1114 970 1114 1126 Q1114 1253 1018.5 1323 Q923 1393 750 1393 Q721 1393 690 1391 Q659 1389 625 1384 L461 801 ZM-102 0 L-86 61 Q10 70 60 123 Q110 176 160 362 L365 1108 Q387 1192 393 1224 Q399 1256 399 1276 Q399 1334 363.5 1361.5 Q328 1389 252 1389 L236 1389 L252 1450 L825 1450 Q1068 1450 1191.5 1368.5 Q1315 1287 1315 1126 Q1315 977 1175 872 Q1035 767 805 748 Q849 728 972 519 Q1068 356 1135 254 Q1208 140 1262 104 Q1316 68 1397 59 L1386 0 L1092 0 L666 674 Q643 709 619 724 Q595 739 561 739 L446 739 L340 348 Q317 268 310 235 Q303 202 303 182 Q303 125 340.5 96.5 Q378 68 461 61 L444 0 L-102 0 Z" /><glyph glyph-name="S" unicode="s" d="M1124 1352 L1087 1090 L1028 1102 L1028 1112 Q1028 1257 944.5 1339 Q861 1421 713 1421 Q579 1421 500.5 1353.5 Q422 1286 422 1171 Q422 1066 632 860 Q660 833 674 819 L698 795 Q944 553 944 381 Q944 196 805 83.5 Q666 -29 436 -29 Q312 -29 187.5 11 Q63 51 -53 127 L33 440 L90 419 Q89 410 88.5 399.5 Q88 389 88 369 Q88 213 183 122 Q278 31 440 31 Q588 31 684 116 Q780 201 780 330 Q780 399 744 463 Q708 527 590 643 Q569 664 529 702 Q274 949 274 1118 Q274 1279 394.5 1379 Q515 1479 711 1479 Q825 1479 927.5 1447.5 Q1030 1416 1124 1352 Z" /><glyph glyph-name="T" unicode="t" d="M1454 1450 L1356 1114 L1297 1114 Q1297 1124 1297.5 1136.5 Q1298 1149 1298 1171 Q1298 1287 1239 1338 Q1180 1389 1044 1389 L911 1389 L627 342 Q605 258 598.5 226 Q592 194 592 174 Q592 117 628 89 Q664 61 737 61 L745 61 L729 0 L193 0 L205 61 Q300 70 350.5 124.5 Q401 179 451 365 L729 1389 L608 1389 Q442 1389 347.5 1325.5 Q253 1262 195 1114 L139 1114 L227 1450 L1454 1450 Z" /><glyph glyph-name="U" unicode="u" d="M397 1150 Q406 1183 411 1214 Q416 1245 416 1272 Q416 1326 380 1354 Q344 1382 266 1389 L281 1450 L834 1450 L817 1389 Q719 1379 666.5 1330 Q614 1281 584 1169 L434 623 Q404 510 392.5 450 Q381 390 381 352 Q381 221 471.5 145.5 Q562 70 719 70 Q917 70 1029.5 175.5 Q1142 281 1214 545 L1366 1100 Q1380 1153 1386.5 1191.5 Q1393 1230 1393 1260 Q1393 1319 1351.5 1351.5 Q1310 1384 1229 1389 L1245 1450 L1714 1450 L1698 1389 Q1604 1381 1546.5 1312 Q1489 1243 1446 1083 L1292 518 Q1213 228 1071 99.5 Q929 -29 692 -29 Q471 -29 343 87.5 Q215 204 215 403 Q215 492 273 697 L276 711 L397 1150 Z" /><glyph glyph-name="V" unicode="v" d="M680 1450 L676 1389 Q569 1378 534.5 1345 Q500 1312 500 1219 L500 1192 L528 193 L636 340 Q1260 1194 1260 1288 Q1260 1335 1220 1360 Q1180 1385 1102 1389 L1116 1450 L1561 1450 L1550 1389 Q1445 1368 1309 1168 Q1295 1149 1288 1139 Q1125 901 840.5 514 Q556 127 457 -29 L365 -29 L319 1207 Q316 1297 277.5 1339 Q239 1381 152 1389 L150 1450 L680 1450 Z" /><glyph glyph-name="W" unicode="w" d="M354 -29 L235 1207 Q226 1297 191 1340.5 Q156 1384 90 1389 L90 1450 L547 1450 L547 1389 Q470 1380 441 1354.5 Q412 1329 412 1266 Q412 1248 415 1204 Q415 1196 416 1192 L506 205 Q587 326 666 431.5 Q745 537 821 625 L754 1206 Q743 1301 713 1345 Q683 1389 631 1389 L631 1450 L1044 1450 L1044 1389 Q987 1387 957.5 1358 Q928 1329 928 1274 Q928 1263 929.5 1243 Q931 1223 934 1191 L969 829 Q1105 1017 1175 1137 Q1245 1257 1245 1303 Q1245 1341 1214.5 1364 Q1184 1387 1133 1389 L1133 1450 L1507 1450 L1507 1389 Q1447 1375 1398.5 1336 Q1350 1297 1307 1227 Q1300 1216 1281 1185 Q1136 948 977 731 L1040 223 L1110 326 Q1708 1210 1708 1305 Q1708 1347 1683 1366 Q1658 1385 1597 1389 L1597 1450 L1976 1450 L1976 1389 Q1847 1360 1698 1106 Q1671 1060 1657 1036 Q1556 872 1318.5 517.5 Q1081 163 977 -29 L897 -29 L831 537 Q733 421 634.5 281.5 Q536 142 432 -29 L354 -29 Z" /><glyph glyph-name="X" unicode="x" d="M524 1098 Q443 1269 383.5 1327.5 Q324 1386 246 1386 L242 1386 L260 1450 L813 1450 L795 1387 Q718 1383 684.5 1359 Q651 1335 651 1284 Q651 1257 659.5 1226 Q668 1195 684 1161 L831 850 L1090 1106 Q1174 1191 1202.5 1233 Q1231 1275 1231 1309 Q1231 1343 1200 1364 Q1169 1385 1116 1387 L1135 1450 L1608 1450 L1593 1386 Q1522 1383 1428 1319 Q1334 1255 1155 1081 L858 793 L1092 307 Q1157 169 1213 119 Q1269 69 1354 61 L1337 0 L791 0 L809 61 Q890 70 921 92 Q952 114 952 162 Q952 182 935.5 228 Q919 274 887 340 L733 666 L387 301 Q338 248 319.5 215.5 Q301 183 301 154 Q301 118 330.5 92.5 Q360 67 410 61 L391 0 L-61 0 L-47 61 Q26 75 131 150 Q236 225 346 344 L700 725 L524 1098 Z" /><glyph glyph-name="Y" unicode="y" d="M653 299 Q645 258 642 234.5 Q639 211 639 193 Q639 134 676.5 101 Q714 68 786 61 L772 0 L205 0 L221 61 Q326 66 385.5 120.5 Q445 175 471 291 L530 557 L332 1133 Q276 1295 229.5 1342 Q183 1389 104 1389 L123 1450 L637 1450 L621 1389 Q545 1384 512 1360.5 Q479 1337 479 1288 Q479 1257 490 1212.5 Q501 1168 532 1077 L684 637 Q936 931 1036.5 1075 Q1137 1219 1137 1282 Q1137 1329 1103.5 1355.5 Q1070 1382 1004 1389 L1018 1450 L1470 1450 L1454 1389 Q1344 1374 1056 996 Q848 725 707 559 L653 299 Z" /><glyph glyph-name="Z" unicode="z" d="M221 1145 L324 1450 L1276 1450 L1276 1389 L184 61 L504 61 Q713 61 849.5 129 Q986 197 1112 362 L1161 352 L1018 0 L-45 0 L-45 61 L1057 1389 L731 1389 Q582 1389 470.5 1329.5 Q359 1270 283 1149 L221 1145 Z" /><glyph glyph-name="a" unicode="a" d="M510 899 Q442 899 377.5 844.5 Q313 790 252 680 Q192 571 157.5 455.5 Q123 340 123 250 Q123 176 154.5 136 Q186 96 244 96 Q306 96 374.5 150.5 Q443 205 502 303 Q565 408 603 527.5 Q641 647 641 731 Q641 812 607 855.5 Q573 899 510 899 ZM842 958 L895 958 L655 235 Q646 204 641.5 181 Q637 158 637 141 Q637 113 649.5 98.5 Q662 84 686 84 Q711 84 743.5 116 Q776 148 866 274 L905 252 Q819 99 753 34 Q687 -31 621 -31 Q561 -31 529.5 7 Q498 45 498 117 Q498 143 501.5 170 Q505 197 512 225 Q411 80 340 24.5 Q269 -31 193 -31 Q95 -31 37.5 37.5 Q-20 106 -20 219 Q-20 336 28 464.5 Q76 593 166 713 Q260 836 354.5 897 Q449 958 545 958 Q613 958 659.5 927.5 Q706 897 735 834 L842 958 Z" /><glyph glyph-name="b" unicode="b" d="M604 674 Q604 743 565 788.5 Q526 834 467 834 Q401 834 345.5 781.5 Q290 729 238 618 Q182 503 149.5 385 Q117 267 117 195 Q117 116 148.5 75.5 Q180 35 242 35 Q290 35 337 66 Q384 97 426 158 Q510 279 557 415.5 Q604 552 604 674 ZM221 1206 L224 1217 Q244 1292 244 1319 Q244 1362 212.5 1382 Q181 1402 76 1417 L84 1462 L434 1487 L217 688 Q286 822 365 890 Q444 958 532 958 Q635 958 694.5 882.5 Q754 807 754 676 Q754 558 707 430.5 Q660 303 578 197 Q493 87 397.5 28 Q302 -31 209 -31 Q108 -31 46 35.5 Q-16 102 -16 209 Q-16 237 -13 263 Q-10 289 -4 313 L221 1206 Z" /><glyph glyph-name="c" unicode="c" d="M596 319 L637 295 Q550 137 447 53 Q344 -31 238 -31 Q124 -31 60 51 Q-4 133 -4 276 Q-4 398 44 529.5 Q92 661 178 772 Q246 859 330.5 908.5 Q415 958 494 958 Q571 958 622.5 917.5 Q674 877 674 817 Q674 780 653 755.5 Q632 731 600 731 Q570 731 550 749 Q530 767 530 795 Q530 802 531 811.5 Q532 821 532 823 Q532 855 510.5 875 Q489 895 455 895 Q389 895 329.5 845.5 Q270 796 225 702 Q185 618 163 523.5 Q141 429 141 336 Q141 219 184 153.5 Q227 88 303 88 Q373 88 447 146.5 Q521 205 596 319 Z" /><glyph glyph-name="d" unicode="d" d="M129 252 Q129 175 163.5 129.5 Q198 84 254 84 Q315 84 377 141.5 Q439 199 500 311 Q559 421 594 535.5 Q629 650 629 731 Q629 810 596.5 853.5 Q564 897 506 897 Q444 897 387 848.5 Q330 800 272 698 Q205 581 167 461 Q129 341 129 252 ZM991 1497 L659 242 Q648 200 642.5 173.5 Q637 147 637 131 Q637 110 648.5 97 Q660 84 678 84 Q725 84 863 277 L864 279 L903 254 Q795 83 735 26 Q675 -31 616 -31 Q564 -31 533 7 Q502 45 502 106 Q502 125 505.5 153 Q509 181 518 231 Q426 99 340 34 Q254 -31 172 -31 Q79 -31 27 44 Q-25 119 -25 252 Q-25 383 38 520 Q101 657 219 786 Q294 869 375 913.5 Q456 958 530 958 Q578 958 616.5 937.5 Q655 917 688 874 L762 1194 Q774 1247 781 1285.5 Q788 1324 788 1339 Q788 1370 750 1386.5 Q712 1403 639 1403 L612 1403 L616 1458 L991 1497 Z" /><glyph glyph-name="e" unicode="e" d="M145 440 Q340 489 449.5 577 Q559 665 559 772 Q559 827 529 859 Q499 891 446 891 Q345 891 270 778.5 Q195 666 145 440 ZM138 385 Q134 357 132.5 336 Q131 315 131 301 Q131 199 172 143.5 Q213 88 289 88 Q360 88 434.5 146.5 Q509 205 584 319 L623 295 Q536 137 433 53 Q330 -31 223 -31 Q111 -31 46.5 51 Q-18 133 -18 274 Q-18 382 31 507 Q80 632 170 752 Q248 854 331.5 906 Q415 958 500 958 Q581 958 625.5 918 Q670 878 670 803 Q670 665 530 555.5 Q390 446 138 385 Z" /><glyph glyph-name="f" unicode="f" d="M381 938 L571 938 L557 883 L367 883 Q201 82 86.5 -155.5 Q-28 -393 -197 -393 Q-260 -393 -296 -370.5 Q-332 -348 -332 -307 Q-332 -275 -311.5 -253 Q-291 -231 -260 -231 Q-228 -231 -189.5 -268 Q-151 -305 -129 -305 Q-83 -305 -54 -255.5 Q-25 -206 25 4 Q48 101 110.5 396.5 Q173 692 215 883 L51 883 L66 938 L227 938 Q291 1205 411 1352 Q531 1499 684 1499 Q758 1499 806 1464.5 Q854 1430 854 1378 Q854 1355 835.5 1338 Q817 1321 791 1321 Q767 1321 748 1332.5 Q729 1344 710 1369 Q708 1372 704 1377 Q667 1427 623 1427 Q546 1427 489 1313 Q432 1199 381 938 Z" /><glyph glyph-name="g" unicode="g" d="M140 22 Q60 -26 23 -74 Q-14 -122 -14 -176 Q-14 -250 45 -290 Q104 -330 215 -330 Q333 -330 414.5 -278 Q496 -226 496 -156 Q496 -57 154 19 L140 22 ZM559 715 Q559 804 524.5 854.5 Q490 905 430 905 Q342 905 264 786 Q186 667 186 526 Q186 437 221 389.5 Q256 342 322 342 Q415 342 487 453 Q559 564 559 715 ZM205 309 Q161 287 136 260 Q111 233 111 211 Q111 162 272 129 Q330 117 365 109 Q508 76 565.5 25.5 Q623 -25 623 -115 Q623 -229 504 -309 Q385 -389 205 -389 Q51 -389 -37 -338 Q-125 -287 -125 -199 Q-125 -137 -76.5 -80.5 Q-28 -24 78 37 Q37 50 14.5 78.5 Q-8 107 -8 143 Q-8 190 24.5 231.5 Q57 273 154 340 Q106 382 81.5 437 Q57 492 57 559 Q57 729 165 843.5 Q273 958 430 958 Q469 958 507.5 949.5 Q546 941 586 924 Q604 930 636 942 Q732 977 766 977 Q806 977 829 954.5 Q852 932 852 893 Q852 867 840 850.5 Q828 834 811 834 Q790 834 752 868.5 Q714 903 692 903 Q684 903 669 898.5 Q654 894 633 885 Q673 835 691 786.5 Q709 738 709 678 Q709 514 599.5 401.5 Q490 289 332 289 Q304 289 271.5 294 Q239 299 205 309 Z" /><glyph glyph-name="h" unicode="h" d="M139 0 L-2 0 L295 1194 Q310 1257 316 1288.5 Q322 1320 322 1337 Q322 1369 282.5 1386 Q243 1403 170 1403 L145 1403 L150 1458 L524 1497 L258 489 Q392 730 504.5 844 Q617 958 721 958 Q769 958 796 927 Q823 896 823 840 Q823 804 812 750.5 Q801 697 780 635 L670 297 Q648 233 638.5 194 Q629 155 629 135 Q629 114 640 101 Q651 88 670 88 Q718 88 852 275 L856 281 L897 258 Q785 80 726 24.5 Q667 -31 606 -31 Q556 -31 525 10.5 Q494 52 494 119 Q494 150 502.5 194 Q511 238 528 297 L659 719 Q668 746 673 766 Q678 786 678 795 Q678 823 666.5 838.5 Q655 854 633 854 Q590 854 522.5 782.5 Q455 711 369 573 Q281 433 224.5 292.5 Q168 152 139 0 Z" /><glyph glyph-name="i" unicode="i" d="M313 1372 Q313 1410 340.5 1437 Q368 1464 406 1464 Q444 1464 471 1437.5 Q498 1411 498 1372 Q498 1334 470.5 1307 Q443 1280 406 1280 Q369 1280 341 1307.5 Q313 1335 313 1372 ZM-12 694 Q78 843 142 900.5 Q206 958 276 958 Q325 958 352 927 Q379 896 379 840 Q379 804 368 750.5 Q357 697 336 635 L225 297 Q206 239 196 198 Q186 157 186 135 Q186 113 196.5 100.5 Q207 88 225 88 Q274 88 408 275 L412 281 L453 258 Q341 80 281.5 24.5 Q222 -31 162 -31 Q112 -31 80.5 10.5 Q49 52 49 119 Q49 150 57.5 194 Q66 238 84 297 L215 719 Q233 775 238.5 797.5 Q244 820 244 834 Q244 846 233 855 Q222 864 207 864 Q184 864 143 819 Q102 774 33 672 L-12 694 Z" /><glyph glyph-name="j" unicode="j" d="M340 1372 Q340 1409 368 1436.5 Q396 1464 434 1464 Q473 1464 499.5 1437.5 Q526 1411 526 1372 Q526 1334 499 1307 Q472 1280 434 1280 Q397 1280 368.5 1308 Q340 1336 340 1372 ZM12 694 Q104 845 166.5 901.5 Q229 958 299 958 Q352 958 382 927.5 Q412 897 412 842 Q412 814 401 760.5 Q390 707 371 635 L184 -51 Q139 -219 54.5 -308 Q-30 -397 -141 -397 Q-210 -397 -252.5 -367.5 Q-295 -338 -295 -293 Q-295 -262 -274.5 -240.5 Q-254 -219 -225 -219 Q-191 -219 -149.5 -268 Q-108 -317 -84 -317 Q-50 -317 -29.5 -287.5 Q-9 -258 20 -141 L244 719 Q254 756 259 784.5 Q264 813 264 829 Q264 846 255 855 Q246 864 229 864 Q206 864 165.5 819 Q125 774 55 672 L12 694 Z" /><glyph glyph-name="k" unicode="k" d="M242 477 Q454 489 576 559.5 Q698 630 698 737 Q698 798 658.5 837.5 Q619 877 557 877 Q452 877 366.5 769 Q281 661 242 477 ZM313 780 Q383 868 464.5 913 Q546 958 635 958 Q728 958 785 905.5 Q842 853 842 768 Q842 665 754.5 586 Q667 507 508 467 L606 209 Q627 156 646.5 135.5 Q666 115 694 115 Q726 115 759.5 149.5 Q793 184 852 281 L889 252 Q803 104 740 36.5 Q677 -31 627 -31 Q583 -31 544.5 17.5 Q506 66 467 170 L367 438 L223 418 L111 0 L-41 0 L274 1194 Q288 1244 294.5 1280 Q301 1316 301 1337 Q301 1369 262.5 1386 Q224 1403 154 1403 L141 1403 L147 1458 L504 1497 L313 780 Z" /><glyph glyph-name="l" unicode="l" d="M489 1497 L158 242 Q146 200 140.5 173.5 Q135 147 135 131 Q135 109 145.5 97.5 Q156 86 176 86 Q214 86 364 272 L387 301 L422 272 Q289 79 229 24 Q169 -31 115 -31 Q62 -31 30 7 Q-2 45 -2 106 Q-2 134 2.5 167.5 Q7 201 14 231 L260 1194 Q271 1239 277 1274.5 Q283 1310 283 1331 Q283 1367 246 1386 Q209 1405 127 1411 L127 1458 L489 1497 Z" /><glyph glyph-name="m" unicode="m" d="M743 481 Q877 722 990 836 Q1103 950 1206 950 Q1255 950 1282 919 Q1309 888 1309 831 Q1309 796 1297.5 742.5 Q1286 689 1266 627 L1155 289 Q1136 231 1126 190 Q1116 149 1116 127 Q1116 106 1126.5 94 Q1137 82 1155 82 Q1183 82 1218 115.5 Q1253 149 1343 274 L1382 250 Q1279 85 1216.5 27 Q1154 -31 1092 -31 Q1040 -31 1009.5 7.5 Q979 46 979 111 Q979 142 987.5 185.5 Q996 229 1014 289 L1145 711 Q1153 737 1158 758.5 Q1163 780 1163 788 Q1163 817 1151.5 831.5 Q1140 846 1118 846 Q1076 846 1008.5 774.5 Q941 703 854 565 Q768 429 712 289 Q656 149 627 -2 L483 0 L670 719 Q680 755 684 772.5 Q688 790 688 795 Q688 823 676.5 838.5 Q665 854 643 854 Q600 854 533 782.5 Q466 711 379 573 Q292 436 236.5 295 Q181 154 152 0 L8 0 L201 748 L202 753 Q217 809 217 836 Q217 848 208.5 857 Q200 866 188 866 Q166 866 126.5 822.5 Q87 779 12 672 L-33 698 Q57 840 124.5 901.5 Q192 963 256 963 Q306 963 333 935 Q360 907 360 856 Q360 818 336 722 Q312 626 268 489 Q402 730 515 844 Q628 958 731 958 Q781 958 807.5 925 Q834 892 834 829 Q834 801 823 753 Q812 705 791 635 L743 481 Z" /><glyph glyph-name="n" unicode="n" d="M-14 698 Q77 842 143 902.5 Q209 963 272 963 Q323 963 350 935 Q377 907 377 856 Q377 816 353 719 Q329 622 287 489 Q420 730 533 844 Q646 958 750 958 Q798 958 825 927 Q852 896 852 840 Q852 807 840.5 753.5 Q829 700 807 635 L696 297 Q677 239 667 198 Q657 157 657 135 Q657 114 668.5 101 Q680 88 698 88 Q747 88 881 275 L885 281 L924 258 Q812 80 752.5 24.5 Q693 -31 633 -31 Q583 -31 551.5 10.5 Q520 52 520 119 Q520 150 528.5 194 Q537 238 555 297 L686 719 Q695 746 700 766 Q705 786 705 795 Q705 823 693 838.5 Q681 854 659 854 Q617 854 551 783 Q485 712 397 573 Q309 433 252.5 292.5 Q196 152 168 0 L25 0 L217 747 L219 754 Q233 809 233 836 Q233 848 225 857 Q217 866 205 866 Q183 866 143 822.5 Q103 779 29 672 L-14 698 Z" /><glyph glyph-name="o" unicode="o" d="M250 -31 Q117 -31 46 51.5 Q-25 134 -25 289 Q-25 408 35 542.5 Q95 677 201 795 Q272 874 356.5 916 Q441 958 526 958 Q646 958 715 881 Q784 804 784 670 Q784 588 761.5 503 Q739 418 694 336 Q602 164 484 66.5 Q366 -31 250 -31 ZM133 242 Q133 150 178 93.5 Q223 37 297 37 Q356 37 409.5 86.5 Q463 136 514 238 Q572 354 605.5 483.5 Q639 613 639 717 Q639 797 595 847 Q551 897 479 897 Q423 897 373.5 859.5 Q324 822 281 745 Q214 629 173.5 489.5 Q133 350 133 242 Z" /><glyph glyph-name="p" unicode="p" d="M170 51 Q180 50 190.5 49.5 Q201 49 221 49 Q430 49 565 207 Q700 365 700 610 Q700 733 645 796.5 Q590 860 483 860 Q455 860 432.5 856.5 Q410 853 391 845 L170 51 ZM-246 -391 L-233 -338 Q-145 -334 -99.5 -287 Q-54 -240 -4 -59 L238 801 Q180 780 115 725.5 Q50 671 -18 586 L-53 612 Q17 713 96 784 Q175 855 262 895 L311 1108 L459 1122 L412 940 Q451 950 480 954 Q509 958 535 958 Q679 958 763.5 872 Q848 786 848 637 Q848 507 791 383 Q734 259 627 158 Q540 76 439.5 36 Q339 -4 219 -4 Q194 -4 181 -3.5 Q168 -3 158 -2 L121 -141 Q115 -166 112 -187 Q109 -208 109 -225 Q109 -278 139 -301.5 Q169 -325 262 -338 L248 -391 L-246 -391 Z" /><glyph glyph-name="q" unicode="q" d="M545 897 Q486 897 430.5 852 Q375 807 315 711 Q250 606 209 480 Q168 354 168 266 Q168 189 201.5 142.5 Q235 96 291 96 Q364 96 439.5 167.5 Q515 239 578 369 Q627 473 655.5 570 Q684 667 684 731 Q684 808 646.5 852.5 Q609 897 545 897 ZM221 -389 L236 -336 Q330 -326 375.5 -286 Q421 -246 453 -137 L567 248 Q461 101 376.5 35 Q292 -31 211 -31 Q117 -31 63.5 38 Q10 107 10 227 Q10 332 56 453.5 Q102 575 182 682 Q287 821 386 889.5 Q485 958 580 958 Q642 958 687.5 930.5 Q733 903 766 844 L858 958 L905 958 L602 -115 Q593 -144 588.5 -173 Q584 -202 584 -227 Q584 -272 616 -296.5 Q648 -321 729 -336 L715 -389 L221 -389 Z" /><glyph glyph-name="r" unicode="r" d="M-25 723 Q60 849 121.5 905 Q183 961 236 961 Q286 961 310 933 Q334 905 334 846 Q334 776 260 416 L256 398 Q408 769 474.5 863.5 Q541 958 614 958 Q665 958 693 924.5 Q721 891 721 829 Q721 781 702.5 754 Q684 727 651 727 Q623 727 605.5 749 Q588 771 588 807 Q588 808 589 814.5 Q590 821 590 825 Q590 854 585.5 862 Q581 870 567 870 Q511 870 391 613.5 Q271 357 182 0 L45 0 L199 748 Q204 777 206.5 793.5 Q209 810 209 817 Q209 839 200 852.5 Q191 866 176 866 Q147 866 20 707 L9 693 L-25 723 Z" /><glyph glyph-name="s" unicode="s" d="M324 958 Q418 958 482.5 913.5 Q547 869 547 807 Q547 777 526.5 757 Q506 737 475 737 Q445 737 424 754.5 Q403 772 387 813 Q371 858 347 876.5 Q323 895 285 895 Q233 895 198.5 864 Q164 833 164 786 Q164 730 270 586 Q282 570 289 561 Q296 551 310 532 Q434 364 434 260 Q434 144 349 56.5 Q264 -31 150 -31 Q60 -31 -7 24.5 Q-74 80 -74 150 Q-74 184 -55 206.5 Q-36 229 -6 229 Q24 229 42.5 212 Q61 195 82 139 Q102 84 127 65.5 Q152 47 199 47 Q255 47 293.5 85 Q332 123 332 178 Q332 248 216 401 Q199 423 190 435 L183 444 Q63 603 63 696 Q63 813 135.5 885.5 Q208 958 324 958 Z" /><glyph glyph-name="t" unicode="t" d="M350 1137 L442 1137 L391 940 L569 940 L555 891 L375 891 L184 186 Q179 167 176.5 153.5 Q174 140 174 131 Q174 103 188 88.5 Q202 74 229 74 Q259 74 313 115 Q367 156 461 252 L494 223 Q360 62 297.5 15.5 Q235 -31 176 -31 Q112 -31 76.5 10.5 Q41 52 41 125 Q41 151 44 177 Q47 203 53 229 L223 891 L74 891 L86 940 Q172 951 238.5 1000.5 Q305 1050 350 1137 Z" /><glyph glyph-name="u" unicode="u" d="M909 248 Q811 93 745.5 31 Q680 -31 621 -31 Q573 -31 544.5 2.5 Q516 36 516 90 Q516 131 540 227.5 Q564 324 608 459 Q467 204 355.5 86.5 Q244 -31 145 -31 Q100 -31 71.5 8 Q43 47 43 106 Q43 142 54 197 Q65 252 86 313 L197 651 Q215 706 225.5 748 Q236 790 236 813 Q236 834 225.5 846 Q215 858 197 858 Q148 858 14 671 L10 666 L-31 690 Q65 842 129 900 Q193 958 260 958 Q314 958 343.5 925 Q373 892 373 829 Q373 795 364 749 Q355 703 338 651 L207 227 Q198 201 193.5 181.5 Q189 162 188 152 Q188 123 199.5 108.5 Q211 94 233 94 Q276 94 343.5 165.5 Q411 237 498 375 Q586 516 642.5 656 Q699 796 727 946 L868 946 L678 199 Q676 192 672 178 Q659 135 659 113 Q659 100 667.5 90 Q676 80 688 80 Q711 80 752.5 125.5 Q794 171 866 274 L909 248 Z" /><glyph glyph-name="v" unicode="v" d="M287 958 L518 958 Q478 874 405 727 Q225 364 225 252 Q225 177 265 135.5 Q305 94 377 94 Q456 94 544.5 164.5 Q633 235 696 352 Q732 418 751 483 Q770 548 770 606 Q770 635 762 665 Q754 695 741 715 Q735 725 724 742 Q659 843 659 891 Q659 920 679 938 Q699 956 731 956 Q783 956 816.5 893.5 Q850 831 850 729 Q850 598 807 472.5 Q764 347 676 223 Q586 97 494 33 Q402 -31 309 -31 Q211 -31 145.5 40.5 Q80 112 80 217 Q80 276 104.5 341 Q129 406 180 481 Q200 512 246 576 Q363 739 416 844 L131 844 Q75 844 53 829 Q31 814 31 778 Q31 756 60.5 712.5 Q90 669 90 643 Q90 616 72 598 Q54 580 27 580 Q-5 580 -26 613 Q-47 646 -47 696 Q-47 816 42.5 887 Q132 958 287 958 Z" /><glyph glyph-name="w" unicode="w" d="M694 326 Q596 132 506 50.5 Q416 -31 305 -31 Q206 -31 141 40.5 Q76 112 76 217 Q76 332 249 591 Q354 747 410 844 L125 844 Q69 844 47 829 Q25 814 25 778 Q25 756 54.5 712.5 Q84 669 84 643 Q84 616 65.5 598 Q47 580 20 580 Q-11 580 -32 613 Q-53 646 -53 696 Q-53 816 36.5 887 Q126 958 281 958 L551 958 Q387 709 302 528 Q217 347 217 246 Q217 174 256 130 Q295 86 358 86 Q410 86 461.5 118 Q513 150 565 215 Q615 276 658.5 356.5 Q702 437 719 500 Q726 527 731 660 Q736 793 768 881 Q783 923 806 946 Q829 969 856 969 Q880 969 894.5 949 Q909 929 909 897 Q909 851 886 777 Q863 703 821 614 Q811 592 792.5 555 Q774 518 770 506 Q764 483 761 447 Q758 411 758 348 Q758 252 808.5 184.5 Q859 117 930 117 Q1015 117 1083.5 186 Q1152 255 1217 408 Q1235 451 1244 495 Q1253 539 1253 588 Q1253 621 1246 647 Q1239 673 1221 705 Q1210 723 1189 756 Q1133 845 1133 891 Q1133 921 1152 938.5 Q1171 956 1204 956 Q1260 956 1292.5 889 Q1325 822 1325 705 Q1325 580 1297.5 471.5 Q1270 363 1212 260 Q1127 109 1046 39 Q965 -31 877 -31 Q790 -31 738 40 Q686 111 686 229 Q686 254 688 278 Q690 302 694 326 Z" /><glyph glyph-name="x" unicode="x" d="M98 672 L55 686 Q118 836 171 897 Q224 958 287 958 Q328 958 359.5 924.5 Q391 891 412 825 L485 596 Q606 811 674 884.5 Q742 958 809 958 Q871 958 908.5 925.5 Q946 893 946 842 Q946 809 924.5 787.5 Q903 766 870 766 Q848 766 833 778.5 Q818 791 807 819 Q794 848 786 855 Q778 862 764 862 Q738 862 709.5 836.5 Q681 811 647 756 L508 526 L621 174 Q637 122 650.5 104 Q664 86 684 86 Q709 86 732.5 119.5 Q756 153 803 266 L852 266 Q792 99 741 34 Q690 -31 627 -31 Q540 -31 480 159 Q475 174 473 180 L414 367 Q263 113 193 41 Q123 -31 53 -31 Q4 -31 -28.5 6 Q-61 43 -61 94 Q-61 129 -42.5 150.5 Q-24 172 4 172 Q26 172 40.5 161 Q55 150 68 122 Q70 118 74 107 Q85 80 109 80 Q136 80 170 110.5 Q204 141 240 197 L389 434 L297 735 Q276 807 261.5 828.5 Q247 850 225 850 Q200 850 171 810 Q142 770 98 672 Z" /><glyph glyph-name="y" unicode="y" d="M309 -31 L127 719 Q116 763 109.5 774.5 Q103 786 92 786 Q65 786 35 674 Q24 631 16 604 L-37 612 Q8 811 49 884.5 Q90 958 150 958 Q179 958 196.5 934 Q214 910 233 834 L412 104 Q522 273 577.5 399 Q633 525 633 608 Q633 666 601 750 Q569 834 569 872 Q569 910 594 934 Q619 958 659 958 Q709 958 737.5 916.5 Q766 875 766 801 Q766 674 678.5 470 Q591 266 438 47 Q292 -164 130 -277.5 Q-32 -391 -184 -391 Q-242 -391 -279.5 -366.5 Q-317 -342 -317 -305 Q-317 -272 -290 -250.5 Q-263 -229 -221 -229 Q-187 -229 -131 -249.5 Q-75 -270 -47 -270 Q33 -270 123 -210 Q213 -150 309 -31 Z" /><glyph glyph-name="z" unicode="z" d="M720 780 Q694 773 669 769.5 Q644 766 616 766 Q577 766 535 774.5 Q493 783 446 801 Q424 809 382 827 Q288 868 240 868 Q199 868 173 844.5 Q147 821 147 784 Q147 752 184 706.5 Q221 661 221 639 Q221 616 204.5 600 Q188 584 164 584 Q124 584 100 619.5 Q76 655 76 715 Q76 824 147.5 891 Q219 958 334 958 Q384 958 436 945 Q488 932 582 891 Q597 884 627 868 Q683 838 713 838 Q734 838 749 850 Q764 862 764 879 Q764 883 760 900 Q756 917 756 930 Q756 945 768 957 Q780 969 795 969 Q813 969 822 956 Q831 943 831 918 Q831 847 756.5 750 Q682 653 547 549 Q505 517 325.5 411.5 Q146 306 54 203 Q79 208 101.5 210.5 Q124 213 143 213 Q178 213 214 206 Q250 199 289 184 Q316 173 364 152 Q503 92 553 92 Q588 92 610.5 113.5 Q633 135 633 168 Q633 197 602 241 Q571 285 571 311 Q571 336 588.5 352.5 Q606 369 633 369 Q666 369 686.5 338 Q707 307 707 256 Q707 133 631 51 Q555 -31 438 -31 Q375 -31 261 38 Q226 59 207 70 L192 78 Q95 131 59 131 Q37 131 21.5 117.5 Q6 104 6 84 Q6 77 12 57 Q18 37 18 25 Q18 4 5 -13.5 Q-8 -31 -25 -31 Q-45 -31 -59.5 -8.5 Q-74 14 -74 45 Q-74 91 -32 161 Q10 231 80 299 Q186 402 442 560 L464 573 L479 582 Q649 687 720 780 Z" /></font>
</defs>
</svg>
